<svg width="1440" height="777" viewBox="0 0 1440 777" fill="none" xmlns="http://www.w3.org/2000/svg">
<path d="M0 297.895C170 378.395 467.5 382.895 770 217.395C1018.39 81.4976 1255.66 20.1057 1440 0V72.3103C1234.61 67.3992 1036.94 141.562 860 373.395C542.8 788.995 154.5 822.228 0 740.395V297.895Z" fill="url(#paint0_linear_272_18511)"/>
<path d="M0 297.895C170 378.395 467.5 382.895 770 217.395C1018.39 81.4976 1255.66 20.1057 1440 0V72.3103C1234.61 67.3992 1036.94 141.562 860 373.395C542.8 788.995 154.5 822.228 0 740.395V297.895Z" fill="url(#paint1_linear_272_18511)" fill-opacity="0.8"/>
<defs>
<linearGradient id="paint0_linear_272_18511" x1="-8.46477e-05" y1="-61.1053" x2="1390.59" y2="851.214" gradientUnits="userSpaceOnUse">
<stop stop-color="#001AFF"/>
<stop offset="1" stop-color="#55CCFF"/>
</linearGradient>
<linearGradient id="paint1_linear_272_18511" x1="720" y1="-0.105462" x2="70.3729" y2="830.907" gradientUnits="userSpaceOnUse">
<stop stop-color="#1DD6FF" stop-opacity="0"/>
<stop offset="1" stop-color="#7100E1"/>
</linearGradient>
</defs>
</svg>
