<svg width="1053" height="750" viewBox="0 0 1053 750" fill="none" xmlns="http://www.w3.org/2000/svg">
<g filter="url(#filter0_dd_324_43510)">
<g filter="url(#filter1_di_324_43510)">
<path fill-rule="evenodd" clip-rule="evenodd" d="M433.673 328.393C438.676 335.755 433.833 344.036 430.786 347.256C438.575 350.323 447.454 352.243 454.931 353.859L454.931 353.859L454.96 353.865C458.901 354.718 463.203 355.664 465.908 356.49C471.689 358.256 478.637 352.381 484.302 347.59C487.595 344.806 490.455 342.388 492.4 342.05C494.816 341.63 496.63 344.801 499.123 349.161C502.093 354.353 506.027 361.231 513.088 365.732C523.48 372.357 551.387 364.199 564.537 359.291C562.613 358.218 563.829 353.329 576.145 346.336C591.541 337.595 594.621 335.405 593.442 329.922C592.959 326.763 589.55 321.973 585.321 316.03L585.321 316.03L585.321 316.03L585.32 316.029L585.32 316.029C582.097 311.5 578.397 306.301 575.153 300.643C568.429 288.919 564.306 290.252 560.112 291.609C559.204 291.903 558.293 292.198 557.351 292.362C552.059 293.282 533.776 295.195 527.522 270.351C525.512 262.367 522.558 254.44 519.362 249.962C515.542 244.609 509.48 242.117 505.189 240.352C503.69 239.736 502.407 239.209 501.511 238.679C499.655 237.158 497.215 238.989 494.513 241.017C492.311 242.67 489.934 244.454 487.558 244.66C484.899 244.891 483.94 246.633 482.729 248.834C481.529 251.013 480.083 253.642 476.492 255.702C474.248 256.99 471.864 258.01 469.587 258.985L469.586 258.986C464.541 261.146 460.017 263.083 458.691 267.204C457.514 270.863 455.256 272.627 451.918 275.237C449.8 276.893 447.246 278.889 444.257 281.926C439.672 286.585 441.062 290.591 442.63 295.111C443.694 298.179 444.841 301.484 444.257 305.39C443.649 309.463 440.56 312.555 437.66 315.459C433.68 319.442 430.055 323.071 433.673 328.393ZM778.617 423.478C794.555 419.633 803.248 414.827 807.595 409.06C810.69 404.952 820.4 400.601 826.779 397.743C829.358 396.587 831.392 395.676 832.226 395.122C834.544 393.584 838.022 389.996 839.471 388.394C840.115 389.035 841.789 390.412 843.334 390.797C845.266 391.277 851.545 388.874 856.374 381.665C860.801 375.058 864.416 377.333 873.914 383.309C874.779 383.853 875.692 384.428 876.659 385.03C887.051 391.493 889.291 390.616 893.471 388.98L893.473 388.98L893.476 388.978L893.483 388.976C893.962 388.788 894.466 388.591 895.012 388.394C898.197 387.241 899.299 389.198 901.335 392.814C902.696 395.229 904.474 398.386 907.569 401.851C915.296 410.501 916.745 411.943 921.575 416.269C924.119 418.547 924.921 422.292 925.886 426.801C926.754 430.853 927.754 435.522 930.268 440.299C935.581 450.391 942.825 455.678 950.07 459.523C953.496 461.341 955.625 465.308 957.736 469.24C960.089 473.622 962.417 477.961 966.491 479.227C974.218 481.63 992.088 483.553 994.986 473.46C997.884 463.367 999.816 467.693 1001.75 473.46C1003.25 477.931 1005.9 481.536 1007.92 484.274L1007.92 484.275C1008.51 485.068 1009.04 485.788 1009.47 486.436C1010.37 487.773 1008.26 488.903 1005.64 490.304C1002.6 491.927 998.885 493.915 998.367 497.009C997.846 500.118 998.448 505.459 998.962 510.025C999.402 513.931 999.778 517.27 999.333 518.156C998.85 519.117 998.608 518.997 997.28 518.336C995.952 517.675 993.537 516.474 988.707 515.272C983.445 513.963 977.609 515.364 972.138 516.678C967.565 517.776 963.247 518.812 959.729 518.156C952.441 516.796 951.168 517.574 943.753 522.102C943.306 522.375 942.837 522.661 942.343 522.962C941.383 523.545 940.571 524.047 939.878 524.475C937.076 526.204 936.22 526.732 935.468 526.614C935.137 526.561 934.827 526.384 934.379 526.129L934.379 526.128C933.814 525.806 933.032 525.36 931.717 524.884C929.501 524.082 925.436 523.029 921.344 521.97L921.344 521.97C915.628 520.49 909.862 518.996 909.018 518.156C908.525 517.666 908.758 516.843 909.091 515.668C909.736 513.385 910.757 509.775 907.569 504.699C902.739 497.01 891.148 500.854 882.455 504.699C873.761 508.544 860.721 509.505 856.374 500.374C854.967 497.418 854.066 494.009 853.196 490.717C853.03 490.085 852.864 489.458 852.696 488.839C851.035 482.719 849.157 477.415 843.817 476.824C840.061 476.409 837.026 477.699 835.18 478.483C832.754 479.514 832.381 479.672 835.124 473.941C837.836 468.274 832.173 465.94 823.864 462.516C817.375 459.842 809.271 456.503 802.282 450.391C797.35 446.078 793.1 442.133 789.399 438.697C781.14 431.03 775.619 425.905 771.372 424.913C773.144 424.694 775.477 424.235 778.617 423.478ZM777.436 538.953L777.399 538.861L777.328 538.689C775.658 534.633 774.112 530.879 773.79 527.506C773.623 525.751 773.776 524.036 774.434 522.386C775.006 520.951 775.932 519.637 777.24 518.42C776.951 517.161 775.821 514.523 772.409 511.73C769.538 509.381 768.017 507.348 767.038 505.249C766.558 504.22 766.224 503.209 765.922 502.209C765.824 501.885 765.732 501.569 765.639 501.252C765.438 500.564 765.238 499.879 764.988 499.131C764.734 498.366 764.362 497.906 763.623 497.322C763.244 497.022 762.798 496.712 762.222 496.312L762.123 496.244C761.512 495.82 760.794 495.318 759.973 494.691C756.663 492.159 751.845 487.694 744.826 477.664C738.717 468.937 735.999 462.826 734.219 458.824L734.219 458.824L734.219 458.823L734.218 458.823C733.947 458.212 733.697 457.65 733.46 457.135C732.545 455.147 731.944 454.163 731.24 453.617C730.627 453.142 729.729 452.856 727.763 452.972C723.214 453.24 719.964 451.626 718.988 448.446C718.08 445.489 719.444 441.975 722.076 439.064C723.211 437.809 723.825 436.744 724.133 435.811C724.436 434.892 724.468 434.021 724.318 433.104C724.163 432.159 723.817 431.169 723.345 430.011C723.201 429.657 723.042 429.281 722.876 428.886L722.875 428.885L722.874 428.882C722.675 428.411 722.466 427.915 722.259 427.403C721.74 427.384 721.213 427.25 720.699 427.058C718.47 426.222 717.243 424.702 716.24 423.459L716.239 423.459C716.149 423.347 716.06 423.237 715.973 423.13C714.918 421.841 713.911 420.754 711.857 420.137C706.573 418.552 698.261 412.14 692.661 400.727L692.657 400.728C690.72 401.449 687.421 402.676 684.001 404.291C681.805 405.328 679.617 406.5 677.784 407.758C675.924 409.033 674.556 410.31 673.853 411.516C673.096 412.814 672.578 414.413 672.148 416.282C671.861 417.532 671.629 418.823 671.384 420.185C671.259 420.884 671.13 421.602 670.988 422.342C670.177 426.588 669.007 431.278 665.753 435.074C663.064 438.212 661.888 442.432 661.83 446.664C661.771 450.904 662.838 454.974 664.42 457.686C666.098 460.564 667.596 461.908 668.99 462.357C670.323 462.787 671.965 462.523 674.282 461.132C675.556 460.368 676.714 459.811 677.768 459.63C678.941 459.428 680.025 459.693 680.881 460.549C681.615 461.283 682.058 462.342 682.402 463.424C682.758 464.542 683.083 465.942 683.451 467.537C684.195 470.76 685.256 475.678 684.528 480.635C683.86 485.188 681.684 489.754 676.566 493.102C682.918 498.44 685.452 506.843 686.944 515.795C687.593 519.691 690.519 522.581 694.018 525.954L694.153 526.084C697.467 529.277 701.235 532.908 702.323 538.079C702.671 539.729 702.857 541.354 702.951 542.924C726.287 536.913 750.452 537.452 764.231 540.405C765.814 540.745 767.275 541.071 768.61 541.369L768.626 541.373L768.636 541.375L768.638 541.375C771.261 541.962 773.362 542.431 775.022 542.699C776.744 542.977 777.726 542.988 778.234 542.849C778.337 542.82 778.39 542.794 778.412 542.78C778.423 542.75 778.445 542.674 778.449 542.522C778.465 541.917 778.204 540.818 777.436 538.953ZM778.408 542.79C778.407 542.792 778.406 542.794 778.405 542.795L778.406 542.793L778.408 542.79ZM778.421 542.774C778.424 542.771 778.426 542.769 778.426 542.769C778.427 542.769 778.425 542.77 778.421 542.774ZM543.558 533.088C545.834 530.686 548.499 527.873 553.914 526.314C557.973 525.145 560 524.284 562.577 523.189C562.852 523.073 563.133 522.953 563.423 522.831C563.428 522.828 563.433 522.826 563.438 522.824C563.925 522.635 564.87 523.842 564.87 530.201C564.87 534.344 563.972 535.635 563.036 536.98C562.157 538.244 561.246 539.555 561.012 543.319C560.7 548.353 565.846 548.497 570.691 548.633C573.328 548.707 575.876 548.779 577.406 549.635C579.577 550.851 579.093 554.378 578.55 558.329C578.008 562.274 577.408 566.642 579.335 569.555C580.167 570.813 581.335 571.55 582.71 571.958C576.679 572.237 573.358 575.016 570.187 577.67L570.054 577.781C567.441 579.967 564.906 582.088 561.012 582.742C560.237 582.872 559.388 583.006 558.486 583.148L558.476 583.15L558.465 583.152L558.46 583.152L558.229 583.189C549.02 584.643 534.54 586.929 534.975 594.82C535.139 597.799 535.639 601.794 536.151 605.882L536.151 605.882L536.151 605.883C536.338 607.371 536.537 608.816 536.729 610.211L536.729 610.212L536.729 610.212C537.559 616.231 538.259 621.307 537.221 624.79C535.941 629.081 523.5 636 523.5 636C523.5 636 513.495 626.84 511.111 624.79C508.727 622.741 505.913 619.951 504.116 618.141C500.654 614.652 500.869 610.867 501.106 606.704C501.297 603.33 501.503 599.707 499.776 595.791C495.919 587.046 485.793 572.956 480.972 570.527C478.804 569.435 477.124 568.735 475.668 568.561C476.439 561.159 469.237 552.859 465.54 549.635C472.713 548.143 478.252 543.944 481.454 538.46C483.416 535.1 483.941 532.463 484.328 530.517C484.893 527.681 485.165 526.314 489.169 526.314C494.569 526.314 507.17 518.909 512.795 515.207C516.072 524.102 520.698 532.63 528.097 535.567C537.627 539.35 540.159 536.676 543.558 533.088ZM729.789 420.063C732.755 418.694 737.987 417.715 743.348 417.593C748.751 417.47 753.842 418.23 756.684 419.979C758.336 420.996 759.012 421.865 759.717 422.769C760.03 423.17 760.348 423.578 760.759 424.01C761.437 424.72 762.266 425.305 763.514 425.602C764.63 425.867 766.005 425.884 767.792 425.679C769.048 426.023 770.54 426.81 772.358 428.097C774.28 429.457 776.466 431.304 779.008 433.592C780.908 435.302 783.019 437.272 785.354 439.451L785.355 439.451L785.359 439.455L785.359 439.455L785.36 439.456C789.187 443.026 793.612 447.154 798.682 451.611C806.066 458.101 814.638 461.648 821.298 464.404C822.228 464.789 823.122 465.158 823.969 465.519C827.524 467.029 830.084 468.296 831.499 469.704C832.167 470.368 832.499 470.991 832.603 471.618C832.708 472.251 832.61 473.072 832.081 474.183C831.46 475.489 830.981 476.525 830.644 477.33C830.325 478.092 830.071 478.787 829.995 479.35C829.959 479.619 829.926 480.093 830.152 480.571C830.439 481.18 830.983 481.481 831.486 481.559C831.892 481.623 832.262 481.545 832.484 481.488C832.734 481.424 832.99 481.331 833.226 481.238C833.497 481.132 833.791 481.007 834.108 480.873C836.02 480.062 838.758 478.902 842.198 479.284C844.373 479.526 845.868 480.694 847.077 482.651C848.329 484.677 849.193 487.425 850.049 490.595L850.049 490.597C850.05 490.621 850.061 490.842 849.792 491.292C849.478 491.817 848.836 492.551 847.632 493.414C845.221 495.144 840.784 497.238 833.059 499.202C824.176 501.461 819.643 501.951 816.854 502.252L816.695 502.269C815.157 502.435 813.928 502.568 812.772 503.007C811.535 503.478 810.475 504.255 809.095 505.497C808.109 506.385 806.206 507.314 803.565 508.285C800.977 509.237 797.898 510.155 794.713 511.104L794.684 511.113L794.684 511.113C791.428 512.084 788.066 513.086 785.139 514.164C783.169 514.89 781.311 515.679 779.781 516.561C779.031 514.552 777.385 511.953 774.295 509.424C771.705 507.305 770.495 505.613 769.737 503.988C769.347 503.154 769.061 502.304 768.773 501.349C768.691 501.076 768.607 500.789 768.52 500.492L768.516 500.478L768.516 500.477C768.308 499.765 768.081 498.99 767.814 498.188C767.324 496.719 766.517 495.813 765.471 494.985C765.015 494.624 764.494 494.263 763.949 493.885L763.948 493.884L763.948 493.884L763.82 493.796C763.215 493.376 762.545 492.907 761.782 492.324C758.762 490.014 754.147 485.789 747.265 475.956C741.326 467.47 738.709 461.588 736.937 457.607L736.937 457.606C736.663 456.989 736.408 456.418 736.165 455.89C735.28 453.967 734.423 452.314 733.063 451.261C731.613 450.138 729.842 449.865 727.588 449.998C723.697 450.226 722.231 448.861 721.835 447.571C721.371 446.059 721.979 443.614 724.285 441.063C725.62 439.586 726.492 438.169 726.962 436.743C727.436 435.303 727.473 433.94 727.257 432.622C727.046 431.333 726.592 430.088 726.103 428.887C725.931 428.463 725.756 428.05 725.582 427.638L725.582 427.637C725.349 427.085 725.116 426.534 724.887 425.955C725.082 425.652 725.227 425.348 725.342 425.1C725.435 424.899 725.517 424.711 725.597 424.528L725.599 424.524L725.599 424.523C725.766 424.143 725.923 423.783 726.146 423.369C726.737 422.272 727.678 421.037 729.789 420.063ZM831.702 478.611C831.702 478.611 831.707 478.61 831.717 478.609C831.706 478.611 831.702 478.612 831.702 478.611ZM832.948 479.745C832.947 479.767 832.944 479.77 832.947 479.748L832.948 479.745ZM559.972 584.465L559.969 584.465L559.964 584.466L559.962 584.466L559.957 584.467L559.951 584.468L559.944 584.469C555.176 585.217 549.174 586.164 544.42 587.9C542.041 588.769 540.102 589.792 538.804 590.989C537.546 592.151 536.943 593.416 537.025 594.908C537.191 597.89 537.698 601.913 538.227 606.111L538.231 606.143C538.738 610.162 539.263 614.327 539.496 617.735C539.613 619.442 539.659 621.005 539.586 622.29C539.549 622.933 539.48 623.538 539.364 624.074C539.252 624.593 539.075 625.145 538.763 625.612C537.5 629 531.487 634.279 524.5 637.5C525.075 638.389 525.553 639.74 525.901 640.722L525.944 640.842L526 641C526.714 643 526.672 644.273 526 646C525.414 647.505 524.62 648.333 523.647 649.347L523.5 649.5C523.412 649.593 523.32 649.688 523.225 649.787C522.022 651.039 520.372 652.755 519.5 654.5C518.817 655.866 519.554 658.26 522 661C523.47 662.646 525.733 664.28 528.358 666.175C529.991 667.355 531.765 668.635 533.575 670.083L533.582 670.089L533.583 670.089L533.583 670.09C536.384 672.33 539.467 674.796 542.663 677.525C543.176 677.673 543.661 677.964 544.092 678.311C544.716 678.815 545.363 679.544 546.009 680.529C547.198 682.337 548.458 685.115 549.599 689.253H581.857C583.105 688.109 584.119 687.005 584.862 686.025C585.715 684.9 586.112 684.065 586.208 683.586C586.455 682.352 587.315 681.593 588.277 681.179C589.184 680.788 590.285 680.647 591.391 680.611C593.589 680.541 596.41 680.882 599.173 681.216L599.173 681.216H599.173H599.174L599.269 681.227C602.109 681.571 604.928 681.909 607.31 681.899C608.496 681.894 609.509 681.802 610.32 681.606C611.14 681.408 611.644 681.13 611.936 680.838C616.205 676.569 619.775 669.673 617.526 662.473C614.89 654.038 617.456 644.103 624.585 639.43C625.974 638.519 626.485 637.415 626.596 636.002C626.717 634.445 626.346 632.601 625.867 630.298L625.842 630.176C625.141 626.805 624.279 622.664 625.456 618.428C626.676 614.033 627.849 610.279 630.324 607.784C632.428 605.662 635.288 604.602 639.326 604.418C638.591 603.276 637.902 602.071 637.228 600.894L637.19 600.827C635.764 598.335 634.389 595.944 632.691 594.049C631.024 592.188 629.119 590.892 626.659 590.503C622.643 589.869 618.766 591.33 615.102 592.742L614.969 592.793C613.077 593.523 611.129 594.274 609.41 594.47C608.499 594.574 607.553 594.538 606.648 594.206C605.72 593.865 604.939 593.25 604.322 592.369C603.306 590.917 602.948 589.116 602.84 587.369C602.731 585.63 602.862 583.741 602.983 581.995L602.986 581.941C603.14 579.723 603.267 577.769 603.032 576.202C602.802 574.672 602.288 573.885 601.45 573.504C600.616 573.125 599.499 572.955 598.087 572.946C596.682 572.937 595.132 573.084 593.464 573.244L593.288 573.261C590.464 573.532 587.223 573.844 584.523 573.125C578.904 573.447 575.846 575.965 572.61 578.652L572.525 578.723C569.879 580.92 567 583.311 562.593 584.046C561.796 584.178 560.926 584.315 560.012 584.459L560.004 584.46L560 584.46L559.998 584.461L559.987 584.462L559.983 584.463L559.982 584.463L559.981 584.463L559.978 584.464L559.972 584.465ZM603.036 495.322C604.253 494.279 604.977 492.499 605.532 490.88C605.779 490.159 606.016 489.391 606.25 488.633L606.379 488.216C606.658 487.313 606.939 486.426 607.25 485.581C607.886 483.856 608.584 482.493 609.459 481.642C610.241 480.881 611.212 480.476 612.715 480.758C615.839 481.344 617.596 482.922 619.969 485.053L619.97 485.054C620.243 485.299 620.523 485.55 620.814 485.809C623.656 488.328 627.225 491.098 634.004 492.663C640.492 494.161 645.277 494.828 649.496 494.433C653.77 494.032 657.344 492.553 661.441 489.992C663.162 488.917 664.408 488.441 665.351 488.304C666.238 488.175 666.92 488.336 667.581 488.702C668.3 489.101 669.019 489.755 669.921 490.696C670.18 490.966 670.458 491.264 670.752 491.58L670.752 491.581C671.426 492.304 672.189 493.123 673.025 493.927C673.508 494.392 674.028 494.865 674.593 495.335C680.107 499.931 682.525 507.392 684.007 516.285C684.833 521.241 688.496 524.77 691.781 527.935L691.952 528.1C695.433 531.455 698.527 534.499 699.41 538.693C699.847 540.772 700.008 542.845 700.046 544.87C700.076 546.435 700.032 547.953 699.989 549.428L699.986 549.524V549.525V549.525V549.525V549.525V549.526V549.526V549.526C699.918 551.851 699.851 554.144 700.153 556.115C700.465 558.148 701.202 560.066 702.932 561.412C704.029 562.266 704.595 562.847 704.843 563.241C704.911 563.35 704.939 563.418 704.949 563.451C704.868 563.603 704.567 563.939 703.686 564.489C702.848 565.012 701.701 565.602 700.201 566.352C699.32 566.793 698.603 567.262 698.111 567.803C697.582 568.384 697.244 569.137 697.384 569.995C697.506 570.75 697.961 571.3 698.295 571.639C698.63 571.978 699.033 572.286 699.339 572.52L699.374 572.547C699.597 572.718 699.776 572.855 699.924 572.982C699.155 573.519 698.344 573.904 697.382 574.357L697.341 574.376C695.989 575.011 694.413 575.752 692.815 577.176C691.196 578.618 689.626 580.691 688.1 583.934C686.212 587.947 683.621 591.003 681.171 593.045C679.946 594.066 678.774 594.818 677.765 595.309C676.727 595.814 675.97 595.989 675.546 595.989C674.605 595.989 673.902 596.483 673.434 597.011C672.981 597.521 672.65 598.166 672.393 598.786C671.889 600.007 671.509 601.564 671.177 602.922L671.16 602.993C670.829 604.345 670.551 605.463 670.247 606.204C669.777 605.845 669.152 605.323 668.369 604.668L668.321 604.627C666.559 603.151 664.208 601.181 661.942 599.87C660.801 599.21 659.576 598.654 658.38 598.449C657.154 598.24 655.817 598.385 654.718 599.327C653.516 600.358 652.516 601.925 651.659 603.268L651.587 603.381C651.039 604.238 650.53 605.033 649.998 605.726C649.464 606.422 648.969 606.932 648.489 607.252C648.035 607.555 647.621 607.674 647.182 607.641C646.718 607.606 646.06 607.389 645.162 606.715C644.549 606.256 643.962 605.672 643.384 604.972C642.121 603.443 641.004 601.499 639.776 599.353L639.736 599.283C638.354 596.868 636.838 594.218 634.91 592.067C632.934 589.86 630.452 588.091 627.124 587.566C622.254 586.797 617.686 588.558 614.161 589.917L614.031 589.968C611.968 590.763 610.369 591.367 609.072 591.516C608.455 591.586 608.009 591.537 607.675 591.415C607.364 591.3 607.059 591.09 606.763 590.666C606.21 589.876 605.909 588.725 605.813 587.19C605.718 585.664 605.834 583.96 605.959 582.152L605.966 582.046C606.11 579.958 606.267 577.69 605.978 575.766C605.679 573.772 604.841 571.779 602.683 570.797C601.29 570.164 599.685 569.982 598.106 569.972C596.535 569.962 594.843 570.124 593.224 570.279L593.224 570.279L593.224 570.279L593.18 570.284C590.041 570.585 587.247 570.831 585.111 570.201C583.96 569.862 583.08 569.287 582.454 568.348C581.69 567.202 581.368 565.674 581.347 563.811C581.325 561.948 581.601 559.936 581.883 557.895L581.896 557.801L581.896 557.801C582.165 555.86 582.446 553.83 582.353 552.124C582.259 550.398 581.753 548.513 579.952 547.512C578.501 546.706 576.533 546.488 574.718 546.388C573.87 546.341 573.064 546.32 572.273 546.299H572.273L572.272 546.298H572.272H572.271H572.271H572.271H572.271C571.189 546.269 570.137 546.241 569.051 546.151C567.221 545.998 565.837 545.689 564.958 545.12C564.55 544.856 564.271 544.548 564.092 544.173C563.909 543.791 563.785 543.247 563.835 542.452C563.952 540.579 564.239 539.425 564.561 538.621C564.866 537.859 565.223 537.349 565.666 536.715L565.742 536.608C566.228 535.912 566.782 535.091 567.185 533.855C567.583 532.639 567.81 531.104 567.81 528.951C567.81 525.658 567.567 523.564 567.206 522.272C567.194 522.229 567.182 522.187 567.17 522.145L567.154 522.094C567.145 522.064 567.136 522.034 567.126 522.004C569.677 520.723 571.885 519.06 573.909 516.579C576.34 513.599 578.449 509.507 580.625 503.648C583.06 497.092 585.057 491.987 586.861 487.961C589.42 489.719 591.358 491.287 593.003 492.616L593.004 492.617C593.973 493.4 594.84 494.101 595.671 494.71C596.831 495.56 598.02 496.296 599.269 496.506C600.67 496.742 601.909 496.289 603.036 495.322ZM353.5 526C353.627 525.597 353.657 525.113 353.684 524.695C353.691 524.58 353.698 524.471 353.706 524.369C357.728 527.35 361.258 530.011 364.426 532.399L364.505 532.458C373.205 539.016 379.236 543.561 385.187 546.963C391.203 550.402 397.113 552.661 405.603 554.732C414.621 556.932 420.124 560.5 423.766 564.33C427.431 568.183 429.302 572.386 430.948 576.104L430.951 576.111L430.952 576.114L430.953 576.115C431.276 576.845 431.594 577.563 431.913 578.247C434.545 583.889 439.313 589.232 441.955 591.789C441.644 592.964 441.715 594.225 442.328 595.603C442.795 596.654 442.937 597.313 442.929 597.712C442.923 598.003 442.847 598.138 442.65 598.291C442.364 598.513 441.796 598.767 440.736 598.985C439.702 599.198 438.353 599.348 436.632 599.47C434.733 599.606 433.174 600.057 431.983 600.878C430.757 601.724 430.035 602.884 429.708 604.195C429.09 606.665 429.878 609.663 430.87 612.39C431.852 615.091 432.749 618.322 432.583 621.039C432.501 622.373 432.168 623.488 431.549 624.35C430.945 625.19 429.984 625.912 428.41 626.332C426.134 626.939 424.613 627.85 423.527 629.127C422.519 630.313 421.984 631.72 421.488 633.024L421.447 633.131C420.623 635.295 419.685 637.755 416.818 640.622C415.798 641.643 414.809 642.61 413.848 643.551L413.77 643.627L413.769 643.628C413.083 644.299 412.411 644.956 411.755 645.608C407.156 650.168 403.301 654.428 400.607 660.972C397.461 668.614 391.308 673.675 383.292 675.737C380.39 671.033 380.373 666.156 380.386 661.108L380.386 660.924C380.401 655.115 380.417 648.92 374.649 644.017C369.799 639.893 366.705 635.94 364.949 632.602C363.167 629.216 362.845 626.632 363.214 625.153C363.332 624.682 363.683 623.999 364.337 623.044C364.975 622.115 365.801 621.066 366.75 619.86L366.845 619.741C369.925 615.831 374.164 610.452 375.156 604.168C376.042 598.557 372.167 594.1 367.817 591.156C363.412 588.176 357.955 586.334 354.436 586.063C351.292 585.822 347.585 585.101 344.895 583.531C343.567 582.756 342.557 581.816 341.946 580.692C341.348 579.591 341.071 578.2 341.391 576.386C342.205 571.771 340.977 565.88 338.898 560.335C336.803 554.748 333.752 549.267 330.661 545.402C330.201 544.827 330.029 544.314 330.004 543.851C329.979 543.373 330.105 542.824 330.443 542.184C331.142 540.859 332.611 539.407 334.629 537.922C338.631 534.978 344.14 532.365 347.679 530.69L347.761 530.651L347.762 530.65C348.974 530.077 350.006 529.588 350.592 529.253C352.179 528.346 353.102 527.267 353.5 526ZM422.329 472.856L422.331 472.725C422.336 472.42 422.34 472.129 422.34 471.845C422.34 468.356 420.175 462.943 406.167 455.795C403.283 458.577 399.482 459.833 395.983 459.762C392.185 459.684 388.44 458.014 386.751 454.635C385.812 452.757 385.204 452.682 385.048 452.675C384.885 452.667 384.63 452.711 384.214 452.9C383.792 453.092 383.336 453.368 382.753 453.724L382.628 453.801C381.233 454.656 379.21 455.895 376.713 455.591C373.619 458.865 368.134 462.192 362.424 464.99C356.272 468.003 349.601 470.525 344.771 471.796C343.92 472.02 343.514 472.231 343.343 472.353C343.439 472.602 343.698 473.016 344.247 473.659C344.806 474.314 345.54 475.066 346.427 475.974L346.482 476.031C350.475 480.119 356.891 486.686 358.281 496.971C359.396 505.231 358.757 510.942 357.583 514.88C356.629 518.08 355.339 520.052 354.45 521.212C358.914 524.512 362.785 527.429 366.22 530.018C375.014 536.647 380.896 541.077 386.666 544.375C392.389 547.647 398.027 549.816 406.309 551.837C415.811 554.155 421.842 557.982 425.925 562.275C429.966 566.524 432.012 571.146 433.649 574.844L433.672 574.897C433.999 575.636 434.307 576.33 434.613 576.986C436.847 581.776 440.848 586.448 443.405 589.031C443.895 588.382 444.446 587.76 444.978 587.16L445.065 587.062C446.385 585.573 447.767 584.005 448.811 581.916C450.309 578.919 452.273 575.595 454.48 573.595C455.586 572.593 456.917 571.771 458.42 571.669C460.013 571.56 461.458 572.277 462.676 573.647C463.311 574.362 463.735 574.629 463.963 574.717C464.113 574.775 464.154 574.756 464.222 574.721C464.369 574.647 464.609 574.451 464.955 574.005C465.293 573.57 465.634 573.028 466.044 572.374L466.083 572.312C466.705 571.32 467.474 570.093 468.453 569.114C469.366 568.201 470.311 567.506 471.359 567.084C471.911 566.862 472.468 566.726 473.034 566.664C472.934 563.747 471.604 560.614 469.729 557.69C467.788 554.663 465.384 552.048 463.602 550.417C459.86 551.091 455.75 551.092 451.361 550.28C443.716 548.863 440.27 542.067 439.056 535.04C437.834 527.961 438.727 520.023 440.283 515.095C441.703 510.598 442.431 503.38 441.472 497.085C440.993 493.942 440.11 491.139 438.772 489.041C437.452 486.973 435.728 485.635 433.493 485.229C428.254 484.276 425.268 482.485 423.717 480.019C422.247 477.68 422.292 475.029 422.326 473L422.329 472.856ZM427.629 349.307C418.455 358.36 408.315 356.93 396.727 353.119C389.416 350.714 387.102 341.29 385.298 333.943C384.244 329.647 383.363 326.062 381.76 325.007C379.44 323.48 377.808 325.757 375.321 329.225C373.15 332.254 370.327 336.192 365.826 339.301C365.213 339.725 364.521 340.195 363.767 340.707C352.661 348.255 328.09 364.956 341.202 377.895C347.116 383.731 351.479 385.403 355.748 387.037C361.585 389.273 367.245 391.441 376.449 404.102C392.382 426.02 390.933 431.261 383.691 438.408C382.52 439.564 381.4 440.632 380.366 441.617C375.009 446.725 371.996 449.598 376.449 450.796C378.689 451.399 380.499 450.307 382.098 449.343C384.289 448.021 386.082 446.939 388.036 450.796C390.69 456.034 400.189 456.572 405.317 450.796C406.72 449.216 407.797 447.162 408.315 444.602C409.939 436.592 413.745 437.416 417.533 438.235C419.378 438.634 421.219 439.032 422.8 438.408C425.383 437.388 425.617 432.824 425.794 429.382C425.947 426.39 426.057 424.247 427.629 426.02C431.008 429.831 445.01 439.837 454.667 426.02C457.39 422.124 459.383 419.061 460.777 416.49C464.327 409.942 463.99 406.583 461.909 400.766C459.655 394.463 462.664 391.045 465.702 387.593C466.568 386.609 467.437 385.623 468.186 384.566C471.566 379.801 471.083 365.984 468.186 361.695C467.457 360.615 465.563 359.716 462.875 358.869C460.155 358.012 456.621 357.208 452.658 356.323L451.86 356.145L451.859 356.145L451.859 356.145C444.355 354.471 435.445 352.483 427.629 349.307Z" fill="url(#paint0_linear_324_43510)"/>
</g>
<g filter="url(#filter2_di_324_43510)">
<path fill-rule="evenodd" clip-rule="evenodd" d="M824.596 20.4614C775.027 0.817913 763.348 2.31125 761.178 2.75664C759.008 3.20203 762.119 10.6952 774.56 15.4267C787 20.1583 790.107 26.2407 785.743 26.7409C784.577 26.8747 782.746 27.4352 780.762 28.0427C775.324 29.7078 768.735 31.7255 771.516 26.2726C775.311 18.8302 768.381 18.3889 767.293 23.8638C766.815 26.2734 765.56 28.1532 764.414 29.8703C762.956 32.0548 761.674 33.9761 762.388 36.3905C763.663 40.7029 763.376 45.1102 760.889 48.1616C758.403 51.213 757.346 53.237 766.069 62.741C774.791 72.245 771.69 79.4884 766.049 80.9285C761.885 81.9916 762.907 84.0209 763.986 86.1616C764.368 86.921 764.758 87.6945 764.926 88.4437C765.566 91.3053 762.139 98.3333 757.978 89.0226C755.7 83.9269 755.071 77.698 754.517 72.2048C754.058 67.6609 753.65 63.6204 752.402 61.1411C750.659 57.679 746.891 58.1304 743.657 58.518C741.775 58.7434 740.073 58.9473 739.056 58.3458C738.67 58.1176 738.25 57.8976 737.809 57.667C735.092 56.2457 731.608 54.4226 730.743 47.798C729.737 40.0985 726.656 41.0695 722.537 43.0443C721.888 43.3555 721.322 43.6538 720.825 43.9156C718.169 45.3154 717.495 45.6709 716.71 41.3601C716.074 37.8633 717.962 36.7756 719.78 35.728C720.622 35.2426 721.45 34.7658 722.004 34.0619C723.318 32.3947 720.24 32.5817 717.656 32.7386C716.795 32.7909 715.989 32.8399 715.419 32.8157C714.013 32.7561 711.233 34.1807 708.159 35.7559C706.248 36.7354 704.223 37.7731 702.344 38.5485C698.985 39.9344 698.404 42.1824 697.864 44.2729C697.616 45.2329 697.376 46.1596 696.88 46.9545C695.304 49.4803 689.763 48.6411 688.749 44.7832C688.022 42.0157 681.339 42.2724 675.958 42.479C673.838 42.5604 671.921 42.6341 670.649 42.5119C666.152 42.0796 662.861 44.788 664.715 46.9486C665.164 47.4717 666.03 48.0612 667.025 48.7382C670.141 50.8577 674.515 53.834 671.272 58.3087C670.307 59.641 669.408 60.7497 668.636 61.7023C665.986 64.9711 664.825 66.4022 667.575 68.7239C669.417 70.2793 669.46 73.5262 669.504 76.8888C669.545 80.0081 669.587 83.2268 671.068 85.2871C672.92 87.8626 672.868 88.0288 672.515 89.1702C672.281 89.926 671.914 91.1096 671.881 93.7037C671.796 100.215 674.579 112.745 679.93 120.965C685.282 129.184 700.628 144.557 710.855 143.7C721.081 142.844 724.632 145.842 726.887 150.801C729.143 155.759 743.941 157.917 750.395 152.979C754.929 149.509 754.725 151.666 754.462 154.437C754.351 155.61 754.229 156.893 754.453 157.906C754.811 159.529 756.481 159.521 758.234 159.513C760.157 159.505 762.18 159.496 762.676 161.639C763.175 163.792 761.379 168.161 759.404 172.97C757.618 177.314 755.686 182.017 755.164 185.769C754.473 190.736 755.34 190.658 759.313 190.3C761.664 190.088 765.102 189.778 769.949 190.358C782.004 191.801 784.126 208.993 785.986 224.058C786.138 225.286 786.288 226.499 786.441 227.689C788.476 243.478 795.126 256.401 801.729 256.627C804.796 256.732 805.717 258.032 806.86 259.646C808.178 261.507 809.792 263.786 815.335 265.129C825.682 267.636 849.824 259.349 856.579 247.572C863.21 236.011 878.862 229.945 888.502 226.21L889.033 226.004C893.969 224.089 896.365 220.375 898.405 217.212C900.327 214.233 901.934 211.742 905.052 211.704C907.95 211.67 909.976 213.615 912.098 215.65C914.683 218.132 917.409 220.748 922.024 220.08C922.798 219.968 923.587 219.859 924.382 219.749C932.207 218.669 940.485 217.527 938.851 212.787C938.081 210.554 936.331 209.958 934.906 209.472C932.998 208.821 931.67 208.369 934.042 204.456C937.177 199.285 936.175 197.774 933.561 193.831C932.719 192.562 931.71 191.041 930.619 189.065C928.238 184.755 925.188 183.337 922.337 182.013C919.82 180.843 917.458 179.745 915.848 176.792C914.458 174.243 913.661 171.053 912.836 167.756C911.623 162.908 910.352 157.827 907.056 154.202C901.517 148.11 895.042 147.406 894.013 151.231C892.985 155.056 894.243 160.389 899.319 158.669C904.394 156.95 897.218 172.202 892.397 166.302C889.566 162.838 888.714 159.902 888.073 157.698C887.623 156.147 887.278 154.958 886.423 154.201C885.616 153.486 884.002 153.82 881.832 154.27C878.432 154.974 873.668 155.961 868.503 153.643C860.04 149.846 839.035 148.848 833.049 151.093C827.063 153.338 809.218 155.363 813.149 143.601C817.08 131.839 810.806 126.576 805.071 126.454C803.006 126.41 800.228 127.59 797.33 128.82C792.184 131.006 786.658 133.353 784.058 129.298C783.378 128.237 782.73 127.379 782.176 126.645C779.419 122.994 778.991 122.428 788.568 115.385C800.069 106.925 809.989 87.6661 812.267 81.0998C813.374 77.9091 815.92 77.1297 818.803 76.2473C821.853 75.3138 825.28 74.265 827.777 70.1238C832.634 62.0682 844.571 30.5362 824.596 20.4614ZM549.957 200.313C553.619 196.895 556.713 195.022 559.269 194.543C560.513 194.31 561.619 194.408 562.632 194.812C563.653 195.219 564.668 195.974 565.661 197.188C566.963 198.78 567.96 200.424 568.945 202.052L569.047 202.22C571.165 205.725 573.349 209.338 578.503 210.131C580.345 210.415 581.994 210.362 583.52 210.312L583.566 210.311C585.718 210.241 587.713 210.183 590.226 210.884C592.749 211.589 595.892 213.092 600.178 216.306C608.929 222.871 619.133 220.423 625.538 218.887L625.695 218.849C627.192 218.49 628.44 218.192 629.468 218.035C630.552 217.869 631.1 217.913 631.33 217.999C631.827 218.185 632.36 218.668 632.959 219.633C633.553 220.59 634.082 221.801 634.686 223.195L634.708 223.246L634.708 223.246C635.334 224.688 636.034 226.304 636.92 227.72C637.818 229.159 638.987 230.528 640.62 231.344C642.086 232.077 644.362 232.631 646.904 232.949C649.484 233.271 652.475 233.368 655.441 233.11C658.398 232.853 661.398 232.237 663.957 231.092C666.515 229.948 668.746 228.219 669.941 225.68C672.125 221.037 671.813 217.195 671.622 214.847L671.621 214.83C671.576 214.277 671.544 213.873 671.542 213.548L671.587 213.557C671.635 213.566 671.688 213.577 671.745 213.589C672.232 213.698 672.894 214.143 673.78 215.163C674.637 216.152 675.512 217.447 676.501 218.916L676.537 218.969C677.766 220.794 679.153 222.854 680.745 224.524C682.353 226.21 684.321 227.663 686.752 228.011C687.828 228.164 688.762 228.271 689.552 228.362L689.557 228.362C690.701 228.493 691.449 228.581 691.975 228.709C692.153 228.752 692.266 228.792 692.334 228.82C692.336 228.907 692.328 229.059 692.286 229.303C692.183 229.901 691.931 230.752 691.508 232.024C690.471 235.132 689.323 240.747 689.259 245.51C689.227 247.865 689.455 250.21 690.234 251.956C690.632 252.849 691.217 253.682 692.081 254.238C692.973 254.811 694.017 254.995 695.133 254.823C697.169 254.51 698.662 253.965 699.813 253.544L699.83 253.538C701.301 253.001 701.901 252.827 702.565 252.982C703.267 253.147 704.315 253.768 706.221 255.847C708.032 257.824 710.391 258.698 712.749 259.073C715.057 259.44 717.51 259.348 719.643 259.268H719.643L719.712 259.266C721.522 259.198 723.058 259.145 724.306 259.303C725.567 259.463 726.18 259.801 726.483 260.204C727.079 260.999 727.854 262.613 728.923 264.867L728.952 264.927C730.585 268.369 732.754 272.94 735.594 276.603C738.432 280.266 742.21 283.367 747.105 283.144C748.306 283.09 749.482 283.023 750.618 282.959L750.622 282.959C755.346 282.692 759.231 282.485 762.115 283.145C763.517 283.465 764.565 283.969 765.323 284.681C766.067 285.379 766.638 286.378 766.922 287.889C767.561 291.296 767.728 295.813 767.321 299.881C767.07 302.387 766.608 304.642 765.951 306.328C765.26 308.102 764.509 308.855 763.943 309.044C761.687 309.796 754.365 312.319 747.585 316.312C744.196 318.308 740.872 320.711 738.378 323.501C735.884 326.292 734.129 329.579 734.129 333.3C734.129 339.773 733.603 341.68 732.542 343.176C732.067 343.846 731.481 344.444 730.639 345.303L730.639 345.303L730.638 345.304C730.423 345.524 730.191 345.761 729.94 346.021C728.745 347.255 727.271 348.859 725.482 351.286C723.58 353.868 722.91 356.182 723.006 358.327C723.098 360.412 723.915 362.164 724.599 363.563L724.708 363.786C725.389 365.178 725.84 366.099 725.893 366.992C725.935 367.715 725.712 368.632 724.223 369.909C719.394 374.048 706.616 382.883 698.704 388.219C698.959 386.314 699.099 384.316 699.07 382.354C699.022 379.162 698.524 375.938 697.232 373.353C696.125 371.14 694.699 369.832 692.852 369.608C691.18 369.404 689.585 370.175 688.355 370.852C687.934 371.083 687.544 371.31 687.174 371.525L687.173 371.525C686.314 372.025 685.558 372.464 684.76 372.766C683.72 373.159 682.97 373.163 682.268 372.742C681.08 372.029 679.975 371.253 678.844 370.458L678.8 370.427C677.698 369.651 676.564 368.853 675.374 368.146C672.926 366.69 670.18 365.578 666.607 365.578C665.102 365.578 664.08 365.403 663.304 365.118C662.547 364.84 661.941 364.427 661.307 363.819C660.707 363.244 660.124 362.54 659.36 361.617L659.36 361.616L659.096 361.298C658.218 360.239 657.159 358.987 655.745 357.572C652.653 354.48 649.134 353.681 645.476 353.296C644.51 353.194 643.545 353.12 642.57 353.045L642.569 353.045H642.568C639.79 352.833 636.93 352.614 633.741 351.728C631.968 351.235 631.027 350.239 630.52 348.925C629.975 347.515 629.899 345.646 630.166 343.476C630.431 341.33 631.01 339.046 631.632 336.886C631.861 336.09 632.102 335.293 632.334 334.528L632.334 334.527C632.711 333.281 633.063 332.118 633.298 331.178C633.748 329.377 633.536 327.74 632.609 326.485C631.699 325.255 630.289 324.647 628.853 324.487C626.017 324.17 622.552 325.509 620.27 328.325C618.746 330.206 615.779 331.106 611.367 330.94C607.243 330.785 602.235 329.71 596.887 328.096C596.483 326.566 595.661 324.977 594.641 323.354C593.395 321.369 591.749 319.174 589.936 316.786C589.754 316.546 589.57 316.304 589.383 316.059L589.369 316.04C585.833 311.389 581.663 305.903 578.05 299.313C573.802 291.566 570.27 288.491 566.666 287.942C564.898 287.673 563.3 288.051 561.918 288.482C561.458 288.625 561.036 288.768 560.636 288.903L560.636 288.904C559.749 289.204 558.967 289.469 558.107 289.625C555.543 290.092 549.815 290.554 544 287.762C538.262 285.007 532.18 278.96 529.04 265.913C527.153 258.076 524.466 251.991 521.489 247.224C529.169 244.661 536.63 240.749 542.072 236.25C545.015 233.818 547.428 231.164 548.944 228.401C550.466 225.625 551.121 222.662 550.386 219.719C549.725 217.077 548.896 214.848 548.184 212.933L548.176 212.912C547.115 210.061 546.415 208.109 546.504 206.26C546.586 204.56 547.367 202.731 549.957 200.313ZM696.638 391.4L696.638 391.401L697.463 392.64L697.807 392.411L697.959 392.309C697.533 394.129 697.015 395.766 696.461 397.052C696.156 397.76 695.822 398.403 695.463 398.92C695.395 399.016 695.321 399.117 695.24 399.219C695.082 398.894 694.926 398.563 694.773 398.228L693.504 398.81C693.475 398.825 693.447 398.838 693.419 398.849L693.422 398.855C693.63 399.31 693.843 399.757 694.059 400.195C694.556 399.972 694.945 399.59 695.24 399.219C700.571 410.209 708.387 415.987 712.713 417.285C715.624 418.159 717.099 419.803 718.279 421.245L718.393 421.384L718.501 421.517C719.555 422.811 720.302 423.728 721.745 424.269C722.056 424.386 722.239 424.418 722.329 424.425C722.307 424.455 722.295 424.467 722.293 424.469C722.297 424.466 722.302 424.462 722.307 424.459C722.311 424.457 722.315 424.454 722.32 424.452C722.323 424.45 722.327 424.448 722.33 424.446C722.34 424.442 722.351 424.437 722.363 424.433C722.379 424.428 722.39 424.426 722.39 424.426L722.385 424.427L722.376 424.427C722.365 424.427 722.349 424.427 722.329 424.425C722.377 424.359 722.477 424.202 722.638 423.853C722.667 423.791 722.697 423.722 722.73 423.648C722.758 423.586 722.787 423.52 722.817 423.45C723.002 423.029 723.242 422.483 723.525 421.958C724.367 420.393 725.75 418.648 728.542 417.359C732.029 415.749 737.72 414.742 743.282 414.616C748.802 414.49 754.634 415.22 758.246 417.443C760.397 418.767 761.573 420.274 762.331 421.245C762.559 421.536 762.749 421.779 762.916 421.955C763.269 422.325 763.61 422.564 764.204 422.705C764.871 422.863 765.921 422.912 767.707 422.69C769.446 422.473 771.782 422.014 774.988 421.237C791.292 417.284 799.792 412.42 803.936 406.894C805.224 405.176 807.374 403.536 809.759 402.041C812.177 400.524 814.979 399.069 817.699 397.756C820.009 396.64 822.287 395.614 824.241 394.734L824.806 394.48L825.25 394.279C827.477 393.273 829.006 392.558 829.622 392.147C831.435 390.938 834.093 388.313 835.815 386.491C836.066 386.663 836.267 386.806 836.424 386.926C836.612 387.069 836.702 387.15 836.735 387.179L836.746 387.189C836.748 387.191 836.749 387.192 836.749 387.191L836.739 387.178L836.728 387.163L836.718 387.148C836.693 387.114 836.622 387.011 836.566 386.853C836.513 386.705 836.42 386.36 836.555 385.942C836.617 385.752 836.709 385.593 836.817 385.464C836.833 385.444 836.849 385.425 836.866 385.407L836.835 385.386L836.788 385.438C836.521 385.736 836.19 386.094 835.815 386.491C835.09 385.997 833.942 385.273 832.18 384.245C830.37 383.189 829.171 381.287 828.343 379.098C827.507 376.886 826.976 374.183 826.63 371.249C825.941 365.4 825.958 358.318 825.975 351.743L825.975 351.682C825.977 350.674 825.98 349.677 825.98 348.695C825.98 347.036 825.987 345.497 825.993 344.078H827.483L825.993 344.071V344.07V344.064V344.057C826.018 338.732 826.028 335.252 825.684 333.244C825.567 332.561 825.434 332.226 825.359 332.078C825.405 332.064 825.437 332.058 825.458 332.055C825.477 332.057 825.489 332.054 825.489 332.054C825.489 332.054 825.486 332.053 825.48 332.053C825.475 332.053 825.468 332.053 825.458 332.055C825.453 332.054 825.447 332.053 825.442 332.052C825.432 332.05 825.422 332.047 825.41 332.043C825.379 332.032 825.341 332.012 825.3 331.977L825.299 331.977C825.299 331.977 825.299 331.977 825.3 331.978L825.302 331.981L825.302 331.981C825.309 331.992 825.329 332.021 825.359 332.078C825.338 332.084 825.315 332.091 825.289 332.101C825.267 332.108 825.243 332.117 825.217 332.128C825.182 332.142 825.142 332.158 825.098 332.178C821.114 333.959 814.134 334.793 804.332 328.601C800.59 326.238 797.976 323.575 795.701 321.258L795.672 321.228C791.954 317.442 789.216 314.705 783.704 314.429C778.912 314.189 775.831 313.606 773.496 311.52C772.352 310.499 771.468 309.19 770.626 307.606C770.259 306.915 769.89 306.151 769.505 305.314L769.428 305.212C769.226 305.992 768.994 306.731 768.729 307.411C767.971 309.357 766.786 311.238 764.887 311.871C762.675 312.609 755.598 315.052 749.098 318.88C745.846 320.795 742.809 323.016 740.602 325.487C738.395 327.957 737.109 330.566 737.109 333.301C737.109 339.739 736.642 342.549 734.973 344.901C734.348 345.782 733.553 346.592 732.689 347.472L732.688 347.473C732.489 347.676 732.287 347.882 732.082 348.094C730.949 349.264 729.569 350.765 727.882 353.054C726.309 355.19 725.924 356.849 725.984 358.195C726.046 359.602 726.595 360.86 727.277 362.255C727.334 362.373 727.394 362.493 727.455 362.617C728.054 363.827 728.778 365.291 728.868 366.817C728.981 368.717 728.149 370.47 726.163 372.172C720.645 376.902 705.345 387.375 697.959 392.309C698.005 392.114 698.049 391.917 698.093 391.718L696.638 391.4ZM622.586 330.203C624.276 328.118 626.769 327.254 628.525 327.45C629.386 327.546 629.93 327.873 630.215 328.259C630.482 328.62 630.705 329.28 630.41 330.458C630.19 331.34 629.877 332.37 629.521 333.546L629.521 333.547L629.52 333.549C629.285 334.324 629.031 335.162 628.772 336.063C628.137 338.264 627.506 340.728 627.212 343.113C626.921 345.474 626.938 347.919 627.743 350.001C628.585 352.179 630.251 353.852 632.946 354.6C636.442 355.572 639.715 355.821 642.554 356.037C643.473 356.107 644.346 356.174 645.166 356.26C648.583 356.62 651.27 357.31 653.64 359.681C654.956 360.997 655.945 362.165 656.805 363.202L656.974 363.406L657.078 363.531C657.816 364.424 658.516 365.27 659.248 365.972C660.104 366.793 661.05 367.465 662.279 367.917C663.489 368.361 664.887 368.559 666.609 368.559C669.49 368.559 671.709 369.433 673.853 370.708C674.944 371.357 675.998 372.099 677.132 372.896C678.251 373.684 679.442 374.522 680.737 375.299C682.518 376.367 684.311 376.123 685.816 375.554C686.86 375.16 687.95 374.526 688.888 373.981L688.888 373.981L688.889 373.981L688.889 373.98C689.211 373.794 689.515 373.617 689.792 373.464C691.045 372.776 691.87 372.491 692.494 372.567C692.943 372.622 693.689 372.928 694.569 374.687C695.58 376.709 696.049 379.428 696.093 382.4C696.137 385.35 695.761 388.429 695.182 391.084C694.762 393.011 694.243 394.672 693.726 395.873C693.465 396.477 693.223 396.924 693.017 397.22C692.898 397.391 692.821 397.469 692.793 397.496C692.6 397.572 692.331 397.672 692 397.796L691.728 397.897C689.833 398.601 686.295 399.915 682.729 401.6C680.457 402.673 678.114 403.922 676.1 405.303C674.112 406.665 672.315 408.244 671.28 410.017C670.3 411.698 669.7 413.637 669.245 415.617C668.943 416.935 668.688 418.35 668.435 419.756L668.435 419.757L668.435 419.758L668.433 419.766C668.311 420.445 668.189 421.122 668.063 421.785C667.261 425.982 666.196 429.982 663.492 433.138C660.223 436.952 658.917 441.919 658.851 446.625C658.786 451.324 659.953 455.943 661.847 459.19C663.644 462.271 665.621 464.404 668.075 465.195C670.59 466.007 673.168 465.278 675.815 463.689C677.025 462.964 677.79 462.652 678.272 462.569C678.625 462.508 678.695 462.579 678.768 462.652L678.774 462.658C678.971 462.855 679.242 463.318 679.564 464.331C679.876 465.308 680.172 466.576 680.548 468.209C681.294 471.441 682.219 475.862 681.581 480.205C680.995 484.195 679.092 488.136 674.307 491.005C673.848 490.535 673.422 490.078 673.003 489.628L673.002 489.627C672.691 489.294 672.385 488.964 672.07 488.636C671.148 487.673 670.166 486.731 669.025 486.099C667.827 485.434 666.491 485.129 664.921 485.357C663.407 485.578 661.758 486.282 659.862 487.467C656.015 489.872 652.886 491.124 649.217 491.468C645.493 491.818 641.092 491.244 634.672 489.762C628.543 488.347 625.409 485.904 622.789 483.581C622.509 483.333 622.231 483.082 621.953 482.83C619.619 480.72 617.249 478.579 613.263 477.831C610.795 477.368 608.848 478.081 607.381 479.508C606.006 480.845 605.122 482.74 604.454 484.553C604.114 485.478 603.813 486.43 603.532 487.336L603.399 487.766C603.165 488.525 602.944 489.242 602.713 489.916C602.135 491.602 601.618 492.615 601.097 493.062C600.487 493.585 600.112 493.628 599.762 493.57C599.259 493.485 598.558 493.134 597.43 492.308C596.78 491.833 596.007 491.209 595.099 490.477L595.099 490.477C593.316 489.039 591.018 487.186 588.138 485.229C590.562 480.275 592.661 477.407 595.053 475.493C598.036 473.106 599.122 469.435 598.642 465.461C598.165 461.511 596.149 457.158 592.796 453.031C590.445 450.137 589.615 447.812 588.832 445.623C588.602 444.977 588.375 444.343 588.115 443.709C587.54 442.31 586.798 440.952 585.451 439.726C584.436 438.804 583.135 438.008 581.42 437.301C584.533 432.034 588.808 424.682 592.518 418.05C594.561 414.399 596.439 410.955 597.858 408.193C598.567 406.814 599.169 405.592 599.621 404.594C600.055 403.634 600.404 402.769 600.541 402.153C600.888 400.591 600.474 398.663 599.718 396.769C598.939 394.817 597.703 392.67 596.119 390.567C592.959 386.375 588.28 382.19 582.737 380.078C577.819 378.204 576.099 375.986 575.352 373.944C574.955 372.859 574.797 371.728 574.683 370.508C574.662 370.278 574.642 370.041 574.622 369.798C574.539 368.814 574.448 367.739 574.228 366.746L574.152 366.407L574.152 366.406C573.944 365.463 573.76 364.633 573.546 363.935C573.299 363.13 572.982 362.39 572.449 361.721C571.434 360.445 569.832 359.706 567.492 358.782C567.341 358.674 567.238 358.529 567.194 358.339C567.141 358.109 567.13 357.61 567.584 356.759C568.525 354.995 571.203 352.23 577.506 348.487C578.068 348.153 578.613 347.83 579.142 347.516L579.152 347.51L579.153 347.51C586.031 343.428 590.189 340.961 592.718 338.853C594.12 337.684 595.104 336.563 595.794 335.267C596.451 334.033 596.793 332.729 597.049 331.253C602.141 332.737 607.05 333.761 611.257 333.919C615.906 334.094 620.138 333.224 622.586 330.203ZM471.082 359.512C471.708 359.329 472.327 359.105 472.936 358.85C475.597 357.733 478.2 355.958 480.588 354.129C481.788 353.21 482.953 352.262 484.055 351.36L484.377 351.097L484.377 351.096L484.378 351.095C485.366 350.287 486.296 349.525 487.175 348.843C488.15 348.085 489.027 347.453 489.804 346.987C490.599 346.51 491.194 346.265 491.616 346.189C492.193 346.084 492.886 346.294 493.996 347.533C494.987 348.639 496.017 350.232 497.314 352.237L497.321 352.249L497.325 352.255L497.376 352.333C497.513 352.545 497.653 352.761 497.796 352.982C500.788 357.596 504.898 363.658 511.873 368.308C514.904 370.33 519.119 371.134 523.738 371.234C528.395 371.334 533.663 370.72 538.964 369.725C549.291 367.786 559.934 364.363 566.808 361.717C568.945 362.581 569.697 363.048 570.119 363.577C570.331 363.844 570.51 364.196 570.697 364.808C570.874 365.385 571.031 366.091 571.248 367.073L571.319 367.392C571.492 368.17 571.561 368.984 571.643 369.94L571.643 369.944L571.643 369.948C571.666 370.215 571.69 370.493 571.717 370.784C571.836 372.062 572.02 373.507 572.553 374.967C573.668 378.015 576.168 380.763 581.676 382.862C586.559 384.722 590.817 388.483 593.739 392.36C595.195 394.292 596.287 396.21 596.951 397.874C597.638 399.595 597.782 400.833 597.633 401.506C597.571 401.784 597.347 402.391 596.906 403.364C596.483 404.299 595.907 405.472 595.208 406.831C593.812 409.546 591.954 412.955 589.918 416.595C586.104 423.411 581.687 430.999 578.562 436.28C556.626 428.855 543.031 425.674 534.666 424.987C530.42 424.639 527.372 424.918 525.225 425.721C522.991 426.556 521.722 427.971 521.202 429.706C520.968 430.486 520.488 430.99 519.732 431.349C518.918 431.736 517.8 431.939 516.421 431.998C515.057 432.056 513.565 431.969 512.053 431.861C511.889 431.849 511.725 431.837 511.56 431.825L511.379 431.811C510.118 431.718 508.845 431.624 507.734 431.624C506.246 431.624 504.804 432.404 503.57 433.338C502.294 434.302 501.02 435.601 499.837 436.988C498.359 438.719 496.963 440.656 495.812 442.404C493.941 436.925 491.088 432.99 486.602 429.46C481.625 425.544 474.632 422.128 464.905 417.526C466.311 414.641 467.021 412.215 467.121 409.798C467.235 407.017 466.532 404.405 465.448 401.333C464.401 398.365 464.605 396.209 465.333 394.409C466.098 392.518 467.474 390.912 469.068 389.077L469.092 389.05C469.966 388.043 470.902 386.965 471.718 385.8C472.764 384.305 473.435 382.232 473.847 380.028C474.264 377.795 474.439 375.289 474.407 372.822C474.375 370.355 474.135 367.888 473.704 365.729C473.279 363.606 472.643 361.642 471.737 360.284C471.552 360.005 471.33 359.749 471.082 359.512ZM463.506 420.159C462.092 422.641 460.219 425.516 457.822 428.992C455.191 432.809 452.189 435.08 449.046 436.186C445.912 437.288 442.768 437.187 439.917 436.483C434.974 435.261 430.737 432.187 428.495 429.993C428.456 430.5 428.426 431.08 428.394 431.726L428.39 431.792C428.302 433.543 428.191 435.739 427.745 437.641C427.314 439.482 426.442 441.616 424.381 442.441C422.323 443.264 420.032 442.759 418.283 442.374L418.093 442.332C416.014 441.877 414.578 441.617 413.428 442.112C412.437 442.54 411.197 443.79 410.394 447.805C409.959 449.984 409.167 451.865 408.117 453.449C421.889 460.599 425.318 466.671 425.318 471.845V471.854L425.306 472.897L425.306 472.906C425.269 475.104 425.278 476.906 426.237 478.433C427.152 479.888 429.172 481.415 434.024 482.298C437.25 482.884 439.622 484.837 441.282 487.439C442.923 490.012 443.901 493.261 444.415 496.636C445.442 503.376 444.681 511.055 443.122 515.993C441.699 520.5 440.854 527.956 441.99 534.533C443.135 541.162 446.143 546.283 451.902 547.35C456.23 548.152 460.204 548.086 463.74 547.356C470.72 545.915 476.064 541.875 479.143 536.638C481.026 533.438 481.515 531.01 481.915 529.031C482.011 528.552 482.102 528.1 482.207 527.67C482.471 526.58 482.882 525.367 484.011 524.534C485.093 523.734 486.557 523.489 488.371 523.489C489.488 523.489 491.138 523.094 493.189 522.339C495.204 521.598 497.472 520.561 499.774 519.394C503.878 517.312 508.014 514.854 510.89 513.021C510.07 510.749 509.308 508.472 508.577 506.282L508.544 506.184C507.701 503.659 506.899 501.258 506.08 499.074C505.25 496.859 504.42 494.914 503.54 493.329C502.652 491.731 501.767 490.598 500.871 489.912C491.884 483.039 485.387 465.126 493.751 445.894C492.078 439.519 489.409 435.459 484.76 431.8C480.071 428.111 473.378 424.83 463.506 420.159ZM427.407 428.864C427.401 428.86 427.4 428.859 427.406 428.863L427.407 428.864ZM497.162 447.34C499.56 443.181 505.314 434.864 509.15 434.864C510.165 434.864 511.331 434.95 512.552 435.04C517.097 435.375 522.402 435.767 523.535 431.984C524.974 427.186 534.564 424.786 578.201 439.662C584.037 441.591 584.901 444.016 586.088 447.35C586.851 449.493 587.749 452.013 590.189 455.018C596.422 462.696 597.381 470.854 592.586 474.693C589.846 476.887 587.575 480.178 584.969 485.73C583.015 489.894 580.872 495.329 578.201 502.526C574.044 513.724 570.314 517.67 564.31 520.193C564.305 520.195 564.3 520.197 564.295 520.2C561.86 521.222 559.051 522.011 555.688 522.956C554.911 523.174 554.104 523.401 553.266 523.64C547.773 525.211 545.33 528.066 543.277 530.465C540.312 533.931 538.161 536.444 528.81 532.758C521.452 529.857 517.204 521.456 513.945 512.67C512.994 510.106 512.127 507.509 511.292 505.007C508.835 497.645 506.65 491.1 503.396 488.609C495.244 482.371 489.01 465.576 497.162 447.34ZM472.47 569.848C471.904 570.076 471.285 570.494 470.558 571.221C469.84 571.939 469.233 572.894 468.567 573.957L468.545 573.992C468.162 574.604 467.746 575.266 467.307 575.832C466.868 576.398 466.302 577.007 465.566 577.379C464.752 577.791 463.834 577.861 462.891 577.497C462.027 577.164 461.226 576.502 460.448 575.626C459.68 574.762 459.076 574.61 458.622 574.641C458.077 574.678 457.36 575.005 456.48 575.802C454.715 577.402 452.955 580.286 451.474 583.248C450.244 585.709 448.627 587.533 447.327 589L447.294 589.038C446.197 590.275 445.439 591.15 445.036 592.006C444.694 592.732 444.619 593.424 445.049 594.391C445.575 595.574 445.929 596.715 445.906 597.775C445.881 598.942 445.399 599.925 444.478 600.641C443.648 601.288 442.539 601.655 441.335 601.902C440.104 602.155 438.598 602.316 436.843 602.441C435.267 602.554 434.282 602.91 433.673 603.33C433.099 603.726 432.765 604.242 432.597 604.917C432.221 606.419 432.674 608.635 433.669 611.371C434.673 614.132 435.761 617.853 435.555 621.22C435.451 622.927 435.008 624.637 433.967 626.087C432.911 627.558 431.327 628.636 429.177 629.21C427.321 629.705 426.391 630.356 425.796 631.056C425.151 631.815 424.776 632.757 424.23 634.19L424.228 634.194C423.362 636.469 422.243 639.408 418.924 642.728C417.892 643.76 416.894 644.737 415.935 645.674L415.934 645.676L415.932 645.678L415.931 645.679L415.93 645.679C410.376 651.114 406.191 655.23 403.361 662.105C399.961 670.364 393.4 675.917 385.017 678.352C387.338 682.05 388.887 685.738 389.811 689.258C389.866 690.097 389.981 691.12 390.169 692.238C390.935 696.784 392.916 702.896 397 704.501C400.936 706.048 403.483 705.106 406.672 703.926C408.636 703.199 410.843 702.382 413.769 702.001C416.629 701.629 419.776 701.672 423.123 701.719C428.763 701.797 434.972 701.884 441.335 700.001C448.842 697.78 458.937 699.67 471.481 702.019C475.88 702.842 480.58 703.722 485.575 704.501C498.539 706.522 501.484 705.139 505.816 703.103C507.913 702.118 510.335 700.98 514.377 700.001C518.079 699.105 522.586 698.701 527.043 698.301C535.839 697.513 544.437 696.742 546.247 692.238C546.589 691.387 546.689 690.402 546.501 689.258C545.482 685.774 544.42 683.541 543.519 682.171C542.993 681.371 542.544 680.897 542.22 680.636C542.016 680.471 541.896 680.417 541.862 680.403L541.411 680.382L541.022 680.049C537.761 677.253 534.607 674.73 531.713 672.415L531.609 672.332C527.018 668.659 522.999 665.444 520.427 662.564C517.897 659.73 516.229 656.608 517.821 653.423C518.974 651.117 520.465 649.558 521.67 648.299L521.703 648.265C522.86 647.055 523.612 646.239 523.992 645.264C524.332 644.389 524.429 643.2 523.708 641.182C523.295 640.026 522.53 638.748 521.453 637.366C519.238 634.52 515.924 631.5 512.431 628.483C511.63 627.792 510.819 627.1 510.012 626.412L510.006 626.407C507.348 624.141 504.738 621.915 502.709 619.885C499.008 616.183 498.92 612.133 499.11 608.269C499.129 607.865 499.152 607.463 499.174 607.063C499.369 603.594 499.557 600.249 497.933 596.594C496.006 592.258 492.472 586.519 488.788 581.544C486.95 579.063 485.096 576.8 483.41 575.016C481.69 573.195 480.257 571.996 479.265 571.5C477.033 570.383 475.509 569.782 474.294 569.638C473.594 569.555 473.018 569.628 472.47 569.848Z" fill="url(#paint1_linear_324_43510)"/>
</g>
<g opacity="0.36" filter="url(#filter3_f_324_43510)">
<path opacity="0.8" d="M632.542 403.478L634.407 395.398C641.999 362.501 661.767 333.699 689.735 314.787V314.787" stroke="#EFFBFF" stroke-width="3.31553"/>
<path d="M632.543 403.478L630.551 401.698C603.988 377.956 564.932 374.627 534.734 393.531V393.531" stroke="#EFFBFF" stroke-width="3.31553"/>
<path d="M632.543 403.479H597.746C544.053 403.479 492.749 425.678 455.99 464.816V464.816" stroke="#EFFBFF" stroke-width="3.31553"/>
<path opacity="0.8" d="M632.543 403.479V403.479C589.798 419.213 556.403 453.348 541.611 496.428L541.365 497.142" stroke="#EFFBFF" stroke-width="3.31553"/>
<path d="M632.542 403.479L629.779 404.154C543.703 425.184 479.721 497.431 469.252 585.418V585.418" stroke="#EFFBFF" stroke-width="3.31553"/>
<path d="M632.542 403.479L642.408 397.052C682.36 371.026 731.355 362.841 777.597 374.468V374.468" stroke="#EFFBFF" stroke-width="3.31553"/>
<path d="M802.464 176.365L797.102 185.389C763.17 242.5 756.039 311.633 777.597 374.468V374.468" stroke="#EFFBFF" stroke-width="3.31553"/>
<path d="M802.464 176.365V176.365C750.664 205.469 711.316 252.537 691.855 308.675L689.736 314.789" stroke="#EFFBFF" stroke-width="3.31553"/>
<path d="M802.464 176.365L762.428 188.425C659.712 219.366 576.199 294.595 534.734 393.533V393.533" stroke="#EFFBFF" stroke-width="3.31553"/>
<path d="M802.464 176.365V176.365C674.845 232.329 580.187 344.045 545.936 479.12L541.365 497.143" stroke="#EFFBFF" stroke-width="3.31553"/>
<path d="M802.464 176.365L789.905 177.875C587.786 202.173 444.079 386.361 469.667 588.32V588.32" stroke="#EFFBFF" stroke-width="3.31553"/>
<path d="M802.464 176.365L777.994 178.482C619.154 192.226 488.203 308.671 455.99 464.817V464.817" stroke="#EFFBFF" stroke-width="3.31553"/>
<circle cx="632.543" cy="403.479" r="17.4066" fill="#EFFBFF"/>
<circle cx="802.464" cy="177.193" r="19.0643" fill="#EFFBFF"/>
<circle cx="777.597" cy="374.468" r="12.4333" fill="#EFFBFF"/>
<circle cx="689.735" cy="314.789" r="12.4333" fill="#EFFBFF"/>
<circle cx="541.365" cy="497.142" r="12.4333" fill="#EFFBFF"/>
<circle cx="455.99" cy="464.815" r="13.2621" fill="#EFFBFF"/>
<circle cx="534.734" cy="393.532" r="13.2621" fill="#EFFBFF"/>
<circle cx="473.397" cy="589.976" r="12.4333" fill="#EFFBFF"/>
</g>
<path d="M629.227 400.163L631.091 392.084C638.683 359.186 658.452 330.385 686.42 311.473V311.473" stroke="url(#paint2_linear_324_43510)" stroke-width="1.65777"/>
<path d="M629.227 400.163L627.236 398.383C600.673 374.641 561.616 371.313 531.419 390.217V390.217" stroke="url(#paint3_linear_324_43510)" stroke-width="1.65777"/>
<path opacity="0.8" d="M629.227 400.162H594.43C540.737 400.162 489.433 422.361 452.675 461.499V461.499" stroke="url(#paint4_linear_324_43510)" stroke-width="1.65777"/>
<path d="M629.227 400.162V400.162C586.482 415.896 553.088 450.032 538.295 493.112L538.05 493.826" stroke="url(#paint5_linear_324_43510)" stroke-width="1.65777"/>
<path d="M629.227 400.162V400.162C542.109 421.447 478.388 496.095 471.042 585.474L470.91 587.075" stroke="url(#paint6_linear_324_43510)" stroke-width="1.65777"/>
<path opacity="0.8" d="M629.227 400.162L639.093 393.736C679.044 367.71 728.04 359.525 774.282 371.151V371.151" stroke="url(#paint7_linear_324_43510)" stroke-width="1.65777"/>
<path opacity="0.8" d="M799.148 173.049L793.787 182.073C759.855 239.183 752.723 308.317 774.282 371.152V371.152" stroke="url(#paint8_linear_324_43510)" stroke-width="1.65777" stroke-linecap="round"/>
<path opacity="0.8" d="M799.148 173.049V173.049C747.348 202.153 708.001 249.22 688.539 305.359L686.42 311.472" stroke="url(#paint9_linear_324_43510)" stroke-width="1.65777" stroke-linecap="round"/>
<path opacity="0.8" d="M799.148 173.049L759.112 185.109C656.396 216.05 572.884 291.279 531.419 390.216V390.216" stroke="url(#paint10_linear_324_43510)" stroke-width="1.65777" stroke-linecap="round"/>
<path opacity="0.8" d="M799.148 173.049V173.049C671.53 229.013 576.871 340.729 542.62 475.804L538.05 493.827" stroke="url(#paint11_linear_324_43510)" stroke-width="1.65777" stroke-linecap="round"/>
<path opacity="0.8" d="M799.148 173.049L788.816 174.291C586.171 198.653 442.907 384.487 470.91 586.662V586.662" stroke="url(#paint12_linear_324_43510)" stroke-width="1.65777" stroke-linecap="round"/>
<path opacity="0.8" d="M799.148 173.049L774.679 175.166C615.838 188.91 484.888 305.354 452.675 461.5V461.5" stroke="url(#paint13_linear_324_43510)" stroke-width="1.65777" stroke-linecap="round"/>
<circle cx="629.227" cy="400.163" r="11.6044" fill="white"/>
<circle cx="799.148" cy="173.878" r="11.6044" fill="white"/>
<circle cx="774.282" cy="371.153" r="6.63107" fill="white"/>
<circle cx="686.42" cy="311.473" r="6.63107" fill="white"/>
<circle cx="538.05" cy="493.826" r="6.63107" fill="white"/>
<circle cx="452.675" cy="461.5" r="6.63107" fill="white"/>
<circle cx="531.419" cy="390.217" r="6.63107" fill="white"/>
<circle cx="470.91" cy="586.662" r="6.63107" fill="white"/>
</g>
<defs>
<filter id="filter0_dd_324_43510" x="0" y="-327.459" width="1343" height="1362.95" filterUnits="userSpaceOnUse" color-interpolation-filters="sRGB">
<feFlood flood-opacity="0" result="BackgroundImageFix"/>
<feColorMatrix in="SourceAlpha" type="matrix" values="0 0 0 0 0 0 0 0 0 0 0 0 0 0 0 0 0 0 127 0" result="hardAlpha"/>
<feOffset dx="-80" dy="-80"/>
<feGaussianBlur stdDeviation="125"/>
<feComposite in2="hardAlpha" operator="out"/>
<feColorMatrix type="matrix" values="0 0 0 0 0.12549 0 0 0 0 0.12549 0 0 0 0 0.937255 0 0 0 0.2 0"/>
<feBlend mode="normal" in2="BackgroundImageFix" result="effect1_dropShadow_324_43510"/>
<feColorMatrix in="SourceAlpha" type="matrix" values="0 0 0 0 0 0 0 0 0 0 0 0 0 0 0 0 0 0 127 0" result="hardAlpha"/>
<feOffset dx="80" dy="80"/>
<feGaussianBlur stdDeviation="125"/>
<feComposite in2="hardAlpha" operator="out"/>
<feColorMatrix type="matrix" values="0 0 0 0 1 0 0 0 0 1 0 0 0 0 1 0 0 0 0.3 0"/>
<feBlend mode="normal" in2="effect1_dropShadow_324_43510" result="effect2_dropShadow_324_43510"/>
<feBlend mode="normal" in="SourceGraphic" in2="effect2_dropShadow_324_43510" result="shape"/>
</filter>
<filter id="filter1_di_324_43510" x="310.001" y="222.117" width="759.683" height="531.135" filterUnits="userSpaceOnUse" color-interpolation-filters="sRGB">
<feFlood flood-opacity="0" result="BackgroundImageFix"/>
<feColorMatrix in="SourceAlpha" type="matrix" values="0 0 0 0 0 0 0 0 0 0 0 0 0 0 0 0 0 0 127 0" result="hardAlpha"/>
<feOffset dx="20" dy="24"/>
<feGaussianBlur stdDeviation="20"/>
<feComposite in2="hardAlpha" operator="out"/>
<feColorMatrix type="matrix" values="0 0 0 0 0.173437 0 0 0 0 0.253553 0 0 0 0 0.925 0 0 0 0.24 0"/>
<feBlend mode="normal" in2="BackgroundImageFix" result="effect1_dropShadow_324_43510"/>
<feBlend mode="normal" in="SourceGraphic" in2="effect1_dropShadow_324_43510" result="shape"/>
<feColorMatrix in="SourceAlpha" type="matrix" values="0 0 0 0 0 0 0 0 0 0 0 0 0 0 0 0 0 0 127 0" result="hardAlpha"/>
<feOffset dy="-16"/>
<feGaussianBlur stdDeviation="30"/>
<feComposite in2="hardAlpha" operator="arithmetic" k2="-1" k3="1"/>
<feColorMatrix type="matrix" values="0 0 0 0 0 0 0 0 0 0.0443039 0 0 0 0 1 0 0 0 0.3 0"/>
<feBlend mode="normal" in2="shape" result="effect2_innerShadow_324_43510"/>
</filter>
<filter id="filter2_di_324_43510" x="365.017" y="-13.459" width="634.042" height="782.949" filterUnits="userSpaceOnUse" color-interpolation-filters="sRGB">
<feFlood flood-opacity="0" result="BackgroundImageFix"/>
<feColorMatrix in="SourceAlpha" type="matrix" values="0 0 0 0 0 0 0 0 0 0 0 0 0 0 0 0 0 0 127 0" result="hardAlpha"/>
<feOffset dx="20" dy="24"/>
<feGaussianBlur stdDeviation="20"/>
<feComposite in2="hardAlpha" operator="out"/>
<feColorMatrix type="matrix" values="0 0 0 0 0.173437 0 0 0 0 0.253553 0 0 0 0 0.925 0 0 0 0.24 0"/>
<feBlend mode="normal" in2="BackgroundImageFix" result="effect1_dropShadow_324_43510"/>
<feBlend mode="normal" in="SourceGraphic" in2="effect1_dropShadow_324_43510" result="shape"/>
<feColorMatrix in="SourceAlpha" type="matrix" values="0 0 0 0 0 0 0 0 0 0 0 0 0 0 0 0 0 0 127 0" result="hardAlpha"/>
<feOffset dy="-16"/>
<feGaussianBlur stdDeviation="30"/>
<feComposite in2="hardAlpha" operator="arithmetic" k2="-1" k3="1"/>
<feColorMatrix type="matrix" values="0 0 0 0 0.375 0 0 0 0 0.84127 0 0 0 0 1 0 0 0 1 0"/>
<feBlend mode="normal" in2="shape" result="effect2_innerShadow_324_43510"/>
</filter>
<filter id="filter3_f_324_43510" x="426.151" y="141.551" width="411.955" height="477.437" filterUnits="userSpaceOnUse" color-interpolation-filters="sRGB">
<feFlood flood-opacity="0" result="BackgroundImageFix"/>
<feBlend mode="normal" in="SourceGraphic" in2="BackgroundImageFix" result="shape"/>
<feGaussianBlur stdDeviation="8.28883" result="effect1_foregroundBlur_324_43510"/>
</filter>
<linearGradient id="paint0_linear_324_43510" x1="1009.69" y1="689.609" x2="272.582" y2="369.736" gradientUnits="userSpaceOnUse">
<stop stop-color="#54B0FF"/>
<stop offset="1" stop-color="#2043F4"/>
</linearGradient>
<linearGradient id="paint1_linear_324_43510" x1="384.689" y1="2.54102" x2="938.689" y2="705.541" gradientUnits="userSpaceOnUse">
<stop stop-color="#40D2FF"/>
<stop offset="1" stop-color="#B9EDFF"/>
</linearGradient>
<linearGradient id="paint2_linear_324_43510" x1="686.42" y1="311.473" x2="629.227" y2="400.163" gradientUnits="userSpaceOnUse">
<stop stop-color="white"/>
<stop offset="0.546612" stop-color="white" stop-opacity="0.672033"/>
<stop offset="1" stop-color="white" stop-opacity="0.4"/>
</linearGradient>
<linearGradient id="paint3_linear_324_43510" x1="531.419" y1="390.217" x2="629.227" y2="400.163" gradientUnits="userSpaceOnUse">
<stop stop-color="white"/>
<stop offset="1" stop-color="white" stop-opacity="0.4"/>
</linearGradient>
<linearGradient id="paint4_linear_324_43510" x1="452.675" y1="461.499" x2="629.227" y2="400.162" gradientUnits="userSpaceOnUse">
<stop stop-color="white"/>
<stop offset="1" stop-color="white" stop-opacity="0.4"/>
</linearGradient>
<linearGradient id="paint5_linear_324_43510" x1="538.05" y1="493.826" x2="629.227" y2="400.162" gradientUnits="userSpaceOnUse">
<stop stop-color="white"/>
<stop offset="1" stop-color="white" stop-opacity="0.4"/>
</linearGradient>
<linearGradient id="paint6_linear_324_43510" x1="470.91" y1="604.896" x2="629.227" y2="400.162" gradientUnits="userSpaceOnUse">
<stop stop-color="white"/>
<stop offset="1" stop-color="white" stop-opacity="0.4"/>
</linearGradient>
<linearGradient id="paint7_linear_324_43510" x1="774.282" y1="371.151" x2="629.227" y2="400.162" gradientUnits="userSpaceOnUse">
<stop stop-color="white"/>
<stop offset="1" stop-color="white" stop-opacity="0.4"/>
</linearGradient>
<linearGradient id="paint8_linear_324_43510" x1="774.282" y1="371.152" x2="799.148" y2="173.049" gradientUnits="userSpaceOnUse">
<stop stop-color="white"/>
<stop offset="1" stop-color="white" stop-opacity="0.4"/>
</linearGradient>
<linearGradient id="paint9_linear_324_43510" x1="686.42" y1="311.472" x2="799.148" y2="173.049" gradientUnits="userSpaceOnUse">
<stop stop-color="white"/>
<stop offset="1" stop-color="white" stop-opacity="0.4"/>
</linearGradient>
<linearGradient id="paint10_linear_324_43510" x1="531.419" y1="390.216" x2="799.148" y2="173.049" gradientUnits="userSpaceOnUse">
<stop stop-color="white"/>
<stop offset="1" stop-color="white" stop-opacity="0.4"/>
</linearGradient>
<linearGradient id="paint11_linear_324_43510" x1="538.05" y1="493.827" x2="799.148" y2="173.049" gradientUnits="userSpaceOnUse">
<stop stop-color="white"/>
<stop offset="1" stop-color="white" stop-opacity="0.4"/>
</linearGradient>
<linearGradient id="paint12_linear_324_43510" x1="470.91" y1="604.897" x2="799.148" y2="173.049" gradientUnits="userSpaceOnUse">
<stop stop-color="white"/>
<stop offset="1" stop-color="white" stop-opacity="0.4"/>
</linearGradient>
<linearGradient id="paint13_linear_324_43510" x1="452.675" y1="461.5" x2="799.148" y2="173.049" gradientUnits="userSpaceOnUse">
<stop stop-color="white"/>
<stop offset="1" stop-color="white" stop-opacity="0.4"/>
</linearGradient>
</defs>
</svg>
