<svg width="743" height="750" viewBox="0 0 743 750" fill="none" xmlns="http://www.w3.org/2000/svg">
<g filter="url(#filter0_d_333_64961)">
<path fill-rule="evenodd" clip-rule="evenodd" d="M123.673 329.393C128.676 336.755 123.833 345.036 120.786 348.256C128.575 351.323 137.454 353.243 144.931 354.859L144.931 354.859L144.96 354.865C148.901 355.718 153.203 356.664 155.908 357.49C161.689 359.256 168.637 353.381 174.302 348.59C177.595 345.806 180.455 343.388 182.4 343.05C184.816 342.63 186.63 345.801 189.123 350.161C192.093 355.353 196.027 362.231 203.088 366.732C213.48 373.357 241.387 365.199 254.537 360.291C252.613 359.218 253.829 354.329 266.145 347.336C281.541 338.595 284.621 336.405 283.442 330.922C282.959 327.763 279.55 322.973 275.321 317.03L275.321 317.03L275.321 317.03L275.32 317.029L275.32 317.029C272.097 312.5 268.397 307.301 265.153 301.643C258.429 289.919 254.306 291.252 250.112 292.609C249.204 292.903 248.293 293.198 247.351 293.362C242.059 294.282 223.776 296.195 217.522 271.351C215.512 263.367 212.558 255.44 209.362 250.962C205.542 245.609 199.48 243.117 195.189 241.352C193.69 240.736 192.407 240.209 191.511 239.679C189.655 238.158 187.215 239.989 184.513 242.017C182.311 243.67 179.934 245.454 177.558 245.66C174.899 245.891 173.94 247.633 172.729 249.834C171.529 252.013 170.083 254.642 166.492 256.702C164.248 257.99 161.864 259.01 159.587 259.985L159.586 259.986C154.541 262.146 150.017 264.083 148.691 268.204C147.514 271.863 145.256 273.627 141.918 276.237C139.8 277.893 137.246 279.889 134.257 282.926C129.672 287.585 131.062 291.591 132.63 296.111C133.694 299.179 134.841 302.484 134.257 306.39C133.649 310.463 130.56 313.555 127.66 316.459C123.68 320.442 120.055 324.071 123.673 329.393ZM468.617 424.478C484.555 420.633 493.248 415.827 497.595 410.06C500.69 405.952 510.4 401.601 516.779 398.743C519.358 397.587 521.392 396.676 522.226 396.122C524.544 394.584 528.022 390.996 529.471 389.394C530.115 390.035 531.789 391.412 533.334 391.797C535.266 392.277 541.545 389.874 546.374 382.665C550.801 376.058 554.416 378.333 563.914 384.309C564.779 384.853 565.692 385.428 566.659 386.03C577.051 392.493 579.291 391.616 583.471 389.98L583.473 389.98L583.476 389.978L583.483 389.976C583.962 389.788 584.466 389.591 585.012 389.394C588.197 388.241 589.299 390.198 591.335 393.814C592.696 396.229 594.474 399.386 597.569 402.851C605.296 411.501 606.745 412.943 611.575 417.269C614.119 419.547 614.921 423.292 615.886 427.801C616.754 431.853 617.754 436.522 620.268 441.299C625.581 451.391 632.825 456.678 640.07 460.523C643.496 462.341 645.625 466.308 647.736 470.24C650.089 474.622 652.417 478.961 656.491 480.227C664.218 482.63 682.088 484.553 684.986 474.46C687.884 464.367 689.816 468.693 691.747 474.46C693.245 478.931 695.904 482.536 697.923 485.274L697.924 485.275C698.509 486.068 699.041 486.788 699.475 487.436C700.37 488.773 698.257 489.903 695.636 491.304C692.601 492.927 688.885 494.915 688.367 498.009C687.846 501.118 688.448 506.459 688.962 511.025C689.402 514.931 689.778 518.27 689.333 519.156C688.85 520.117 688.608 519.997 687.28 519.336C685.952 518.675 683.537 517.474 678.707 516.272C673.445 514.963 667.609 516.364 662.138 517.678C657.565 518.776 653.247 519.812 649.729 519.156C642.441 517.796 641.168 518.574 633.753 523.102C633.306 523.375 632.837 523.661 632.343 523.962C631.383 524.545 630.571 525.047 629.878 525.475C627.076 527.204 626.22 527.732 625.468 527.614C625.137 527.561 624.827 527.384 624.379 527.129L624.379 527.128C623.814 526.806 623.032 526.36 621.717 525.884C619.501 525.082 615.436 524.029 611.344 522.97L611.344 522.97C605.628 521.49 599.862 519.996 599.018 519.156C598.525 518.666 598.758 517.843 599.091 516.668C599.736 514.385 600.757 510.775 597.569 505.699C592.739 498.01 581.148 501.854 572.455 505.699C563.761 509.544 550.721 510.505 546.374 501.374C544.967 498.418 544.066 495.009 543.196 491.717C543.03 491.085 542.864 490.458 542.696 489.839C541.035 483.719 539.157 478.415 533.817 477.824C530.061 477.409 527.026 478.699 525.18 479.483C522.754 480.514 522.381 480.672 525.124 474.941C527.836 469.274 522.173 466.94 513.864 463.516C507.375 460.842 499.271 457.503 492.282 451.391C487.35 447.078 483.1 443.133 479.399 439.697C471.14 432.03 465.619 426.905 461.372 425.913C463.144 425.694 465.477 425.235 468.617 424.478ZM467.436 539.953L467.399 539.861L467.328 539.689C465.658 535.633 464.112 531.879 463.79 528.506C463.623 526.751 463.776 525.036 464.434 523.386C465.006 521.951 465.932 520.637 467.24 519.42C466.951 518.161 465.821 515.523 462.409 512.73C459.538 510.381 458.017 508.348 457.038 506.249C456.558 505.22 456.224 504.209 455.922 503.209C455.824 502.885 455.732 502.569 455.639 502.252C455.438 501.564 455.238 500.879 454.988 500.131C454.734 499.366 454.362 498.906 453.623 498.322C453.244 498.022 452.798 497.712 452.222 497.312L452.123 497.244C451.512 496.82 450.794 496.318 449.973 495.691C446.663 493.159 441.845 488.694 434.826 478.664C428.717 469.937 425.999 463.826 424.219 459.824L424.219 459.824L424.219 459.823L424.218 459.823C423.947 459.212 423.697 458.65 423.46 458.135C422.545 456.147 421.944 455.163 421.24 454.617C420.627 454.142 419.729 453.856 417.763 453.972C413.214 454.24 409.964 452.626 408.988 449.446C408.08 446.489 409.444 442.975 412.076 440.064C413.211 438.809 413.825 437.744 414.133 436.811C414.436 435.892 414.468 435.021 414.318 434.104C414.163 433.159 413.817 432.169 413.345 431.011C413.201 430.657 413.042 430.281 412.876 429.886L412.875 429.885L412.874 429.882C412.675 429.411 412.466 428.915 412.259 428.403C411.74 428.384 411.213 428.25 410.699 428.058C408.47 427.222 407.243 425.702 406.24 424.459L406.239 424.459C406.149 424.347 406.06 424.237 405.973 424.13C404.918 422.841 403.911 421.754 401.857 421.137C396.573 419.552 388.261 413.14 382.661 401.727L382.657 401.728C380.72 402.449 377.421 403.676 374.001 405.291C371.805 406.328 369.617 407.5 367.784 408.758C365.924 410.033 364.556 411.31 363.853 412.516C363.096 413.814 362.578 415.413 362.148 417.282C361.861 418.532 361.629 419.823 361.384 421.185C361.259 421.884 361.13 422.602 360.988 423.342C360.177 427.588 359.007 432.278 355.753 436.074C353.064 439.212 351.888 443.432 351.83 447.664C351.771 451.904 352.838 455.974 354.42 458.686C356.098 461.564 357.596 462.908 358.99 463.357C360.323 463.787 361.965 463.523 364.282 462.132C365.556 461.368 366.714 460.811 367.768 460.63C368.941 460.428 370.025 460.693 370.881 461.549C371.615 462.283 372.058 463.342 372.402 464.424C372.758 465.542 373.083 466.942 373.451 468.537C374.195 471.76 375.256 476.678 374.528 481.635C373.86 486.188 371.684 490.754 366.566 494.102C372.918 499.44 375.452 507.843 376.944 516.795C377.593 520.691 380.519 523.581 384.018 526.954L384.153 527.084C387.467 530.277 391.235 533.908 392.323 539.079C392.671 540.729 392.857 542.354 392.951 543.924C416.287 537.913 440.452 538.452 454.231 541.405C455.814 541.745 457.275 542.071 458.61 542.369L458.626 542.373L458.636 542.375L458.638 542.375C461.261 542.962 463.362 543.431 465.022 543.699C466.744 543.977 467.726 543.988 468.234 543.849C468.337 543.82 468.39 543.794 468.412 543.78C468.423 543.75 468.445 543.674 468.449 543.522C468.465 542.917 468.204 541.818 467.436 539.953ZM468.408 543.79C468.407 543.792 468.406 543.794 468.405 543.795L468.406 543.793L468.408 543.79ZM468.421 543.774C468.424 543.771 468.426 543.769 468.426 543.769C468.427 543.769 468.425 543.77 468.421 543.774ZM233.558 534.088C235.834 531.686 238.499 528.873 243.914 527.314C247.973 526.145 250 525.284 252.577 524.189C252.852 524.073 253.133 523.953 253.423 523.831C253.428 523.828 253.433 523.826 253.438 523.824C253.925 523.635 254.87 524.842 254.87 531.201C254.87 535.344 253.972 536.635 253.036 537.98C252.157 539.244 251.246 540.555 251.012 544.319C250.7 549.353 255.846 549.497 260.691 549.633C263.328 549.707 265.876 549.779 267.406 550.635C269.577 551.851 269.093 555.378 268.55 559.329C268.008 563.274 267.408 567.642 269.335 570.555C270.167 571.813 271.335 572.55 272.71 572.958C266.679 573.237 263.358 576.016 260.187 578.67L260.054 578.781C257.441 580.967 254.906 583.088 251.012 583.742C250.237 583.872 249.388 584.006 248.486 584.148L248.476 584.15L248.465 584.152L248.46 584.152L248.229 584.189C239.02 585.643 224.54 587.929 224.975 595.82C225.139 598.799 225.639 602.794 226.151 606.882L226.151 606.882L226.151 606.883C226.338 608.371 226.537 609.816 226.729 611.211L226.729 611.212L226.729 611.212C227.559 617.231 228.259 622.307 227.221 625.79C225.941 630.081 213.5 637 213.5 637C213.5 637 203.495 627.84 201.111 625.79C198.727 623.741 195.913 620.951 194.116 619.141C190.654 615.652 190.869 611.867 191.106 607.704C191.297 604.33 191.503 600.707 189.776 596.791C185.919 588.046 175.793 573.956 170.972 571.527C168.804 570.435 167.124 569.735 165.668 569.561C166.439 562.159 159.237 553.859 155.54 550.635C162.713 549.143 168.252 544.944 171.454 539.46C173.416 536.1 173.941 533.463 174.328 531.517C174.893 528.681 175.165 527.314 179.169 527.314C184.569 527.314 197.17 519.909 202.795 516.207C206.072 525.102 210.698 533.63 218.097 536.567C227.627 540.35 230.159 537.676 233.558 534.088ZM419.789 421.063C422.755 419.694 427.987 418.715 433.348 418.593C438.751 418.47 443.842 419.23 446.684 420.979C448.336 421.996 449.012 422.865 449.717 423.769C450.03 424.17 450.348 424.578 450.759 425.01C451.437 425.72 452.266 426.305 453.514 426.602C454.63 426.867 456.005 426.884 457.792 426.679C459.048 427.023 460.54 427.81 462.358 429.097C464.28 430.457 466.466 432.304 469.008 434.592C470.908 436.302 473.019 438.272 475.354 440.451L475.355 440.451L475.359 440.455L475.359 440.455L475.36 440.456C479.187 444.026 483.612 448.154 488.682 452.611C496.066 459.101 504.638 462.648 511.298 465.404C512.228 465.789 513.122 466.158 513.969 466.519C517.524 468.029 520.084 469.296 521.499 470.704C522.167 471.368 522.499 471.991 522.603 472.618C522.708 473.251 522.61 474.072 522.081 475.183C521.46 476.489 520.981 477.525 520.644 478.33C520.325 479.092 520.071 479.787 519.995 480.35C519.959 480.619 519.926 481.093 520.152 481.571C520.439 482.18 520.983 482.481 521.486 482.559C521.892 482.623 522.262 482.545 522.484 482.488C522.734 482.424 522.99 482.331 523.226 482.238C523.497 482.132 523.791 482.007 524.108 481.873C526.02 481.062 528.758 479.902 532.198 480.284C534.373 480.526 535.868 481.694 537.077 483.651C538.329 485.677 539.193 488.425 540.049 491.595L540.049 491.597C540.05 491.621 540.061 491.842 539.792 492.292C539.478 492.817 538.836 493.551 537.632 494.414C535.221 496.144 530.784 498.238 523.059 500.202C514.176 502.461 509.643 502.951 506.854 503.252L506.695 503.269C505.157 503.435 503.928 503.568 502.772 504.007C501.535 504.478 500.475 505.255 499.095 506.497C498.109 507.385 496.206 508.314 493.565 509.285C490.977 510.237 487.898 511.155 484.713 512.104L484.684 512.113L484.684 512.113C481.428 513.084 478.066 514.086 475.139 515.164C473.169 515.89 471.311 516.679 469.781 517.561C469.031 515.552 467.385 512.953 464.295 510.424C461.705 508.305 460.495 506.613 459.737 504.988C459.347 504.154 459.061 503.304 458.773 502.349C458.691 502.076 458.607 501.789 458.52 501.492L458.516 501.478L458.516 501.477C458.308 500.765 458.081 499.99 457.814 499.188C457.324 497.719 456.517 496.813 455.471 495.985C455.015 495.624 454.494 495.263 453.949 494.885L453.948 494.884L453.948 494.884L453.82 494.796C453.215 494.376 452.545 493.907 451.782 493.324C448.762 491.014 444.147 486.789 437.265 476.956C431.326 468.47 428.709 462.588 426.937 458.607L426.937 458.606C426.663 457.989 426.408 457.418 426.165 456.89C425.28 454.967 424.423 453.314 423.063 452.261C421.613 451.138 419.842 450.865 417.588 450.998C413.697 451.226 412.231 449.861 411.835 448.571C411.371 447.059 411.979 444.614 414.285 442.063C415.62 440.586 416.492 439.169 416.962 437.743C417.436 436.303 417.473 434.94 417.257 433.622C417.046 432.333 416.592 431.088 416.103 429.887C415.931 429.463 415.756 429.05 415.582 428.638L415.582 428.637C415.349 428.085 415.116 427.534 414.887 426.955C415.082 426.652 415.227 426.348 415.342 426.1C415.435 425.899 415.517 425.711 415.597 425.528L415.599 425.524L415.599 425.523C415.766 425.143 415.923 424.783 416.146 424.369C416.737 423.272 417.678 422.037 419.789 421.063ZM521.702 479.611C521.702 479.611 521.707 479.61 521.717 479.609C521.706 479.611 521.702 479.612 521.702 479.611ZM522.948 480.745C522.947 480.767 522.944 480.77 522.947 480.748L522.948 480.745ZM249.972 585.465L249.969 585.465L249.964 585.466L249.962 585.466L249.957 585.467L249.951 585.468L249.944 585.469C245.176 586.217 239.174 587.164 234.42 588.9C232.041 589.769 230.102 590.792 228.804 591.989C227.546 593.151 226.943 594.416 227.025 595.908C227.191 598.89 227.698 602.913 228.227 607.111L228.231 607.143C228.738 611.162 229.263 615.327 229.496 618.735C229.613 620.442 229.659 622.005 229.586 623.29C229.549 623.933 229.48 624.538 229.364 625.074C229.252 625.593 229.075 626.145 228.763 626.612C227.5 630 221.487 635.279 214.5 638.5C215.075 639.389 215.553 640.74 215.901 641.722L215.944 641.842L216 642C216.714 644 216.672 645.273 216 647C215.414 648.505 214.62 649.333 213.647 650.347L213.5 650.5C213.412 650.593 213.32 650.688 213.225 650.787C212.022 652.039 210.372 653.755 209.5 655.5C208.817 656.866 209.554 659.26 212 662C213.47 663.646 215.733 665.28 218.358 667.175C219.991 668.355 221.765 669.635 223.575 671.083L223.582 671.089L223.583 671.089L223.583 671.09C226.384 673.33 229.467 675.796 232.663 678.525C233.176 678.673 233.661 678.964 234.092 679.311C234.716 679.815 235.363 680.544 236.009 681.529C237.198 683.337 238.458 686.115 239.599 690.253H271.857C273.105 689.109 274.119 688.005 274.862 687.025C275.715 685.9 276.112 685.065 276.208 684.586C276.455 683.352 277.315 682.593 278.277 682.179C279.184 681.788 280.285 681.647 281.391 681.611C283.589 681.541 286.41 681.882 289.173 682.216L289.173 682.216H289.173H289.174L289.269 682.227C292.109 682.571 294.928 682.909 297.31 682.899C298.496 682.894 299.509 682.802 300.32 682.606C301.14 682.408 301.644 682.13 301.936 681.838C306.205 677.569 309.775 670.673 307.526 663.473C304.89 655.038 307.456 645.103 314.585 640.43C315.974 639.519 316.485 638.415 316.596 637.002C316.717 635.445 316.346 633.601 315.867 631.298L315.842 631.176C315.141 627.805 314.279 623.664 315.456 619.428C316.676 615.033 317.849 611.279 320.324 608.784C322.428 606.662 325.288 605.602 329.326 605.418C328.591 604.276 327.902 603.071 327.228 601.894L327.19 601.827C325.764 599.335 324.389 596.944 322.691 595.049C321.024 593.188 319.119 591.892 316.659 591.503C312.643 590.869 308.766 592.33 305.102 593.742L304.969 593.793C303.077 594.523 301.129 595.274 299.41 595.47C298.499 595.574 297.553 595.538 296.648 595.206C295.72 594.865 294.939 594.25 294.322 593.369C293.306 591.917 292.948 590.116 292.84 588.369C292.731 586.63 292.862 584.741 292.983 582.995L292.986 582.941C293.14 580.723 293.267 578.769 293.032 577.202C292.802 575.672 292.288 574.885 291.45 574.504C290.616 574.125 289.499 573.955 288.087 573.946C286.682 573.937 285.132 574.084 283.464 574.244L283.288 574.261C280.464 574.532 277.223 574.844 274.523 574.125C268.904 574.447 265.846 576.965 262.61 579.652L262.525 579.723C259.879 581.92 257 584.311 252.593 585.046C251.796 585.178 250.926 585.315 250.012 585.459L250.004 585.46L250 585.46L249.998 585.461L249.987 585.462L249.983 585.463L249.982 585.463L249.981 585.463L249.978 585.464L249.972 585.465ZM293.036 496.322C294.253 495.279 294.977 493.499 295.532 491.88C295.779 491.159 296.016 490.391 296.25 489.633L296.379 489.216C296.658 488.313 296.939 487.426 297.25 486.581C297.886 484.856 298.584 483.493 299.459 482.642C300.241 481.881 301.212 481.476 302.715 481.758C305.839 482.344 307.596 483.922 309.969 486.053L309.97 486.054C310.243 486.299 310.523 486.55 310.814 486.809C313.656 489.328 317.225 492.098 324.004 493.663C330.492 495.161 335.277 495.828 339.496 495.433C343.77 495.032 347.344 493.553 351.441 490.992C353.162 489.917 354.408 489.441 355.351 489.304C356.238 489.175 356.92 489.336 357.581 489.702C358.3 490.101 359.019 490.755 359.921 491.696C360.18 491.966 360.458 492.264 360.752 492.58L360.752 492.581C361.426 493.304 362.189 494.123 363.025 494.927C363.508 495.392 364.028 495.865 364.593 496.335C370.107 500.931 372.525 508.392 374.007 517.285C374.833 522.241 378.496 525.77 381.781 528.935L381.952 529.1C385.433 532.455 388.527 535.499 389.41 539.693C389.847 541.772 390.008 543.845 390.046 545.87C390.076 547.435 390.032 548.953 389.989 550.428L389.986 550.524V550.525V550.525V550.525V550.525V550.526V550.526V550.526C389.918 552.851 389.851 555.144 390.153 557.115C390.465 559.148 391.202 561.066 392.932 562.412C394.029 563.266 394.595 563.847 394.843 564.241C394.911 564.35 394.939 564.418 394.949 564.451C394.868 564.603 394.567 564.939 393.686 565.489C392.848 566.012 391.701 566.602 390.201 567.352C389.32 567.793 388.603 568.262 388.111 568.803C387.582 569.384 387.244 570.137 387.384 570.995C387.506 571.75 387.961 572.3 388.295 572.639C388.63 572.978 389.033 573.286 389.339 573.52L389.374 573.547C389.597 573.718 389.776 573.855 389.924 573.982C389.155 574.519 388.344 574.904 387.382 575.357L387.341 575.376C385.989 576.011 384.413 576.752 382.815 578.176C381.196 579.618 379.626 581.691 378.1 584.934C376.212 588.947 373.621 592.003 371.171 594.045C369.946 595.066 368.774 595.818 367.765 596.309C366.727 596.814 365.97 596.989 365.546 596.989C364.605 596.989 363.902 597.483 363.434 598.011C362.981 598.521 362.65 599.166 362.393 599.786C361.889 601.007 361.509 602.564 361.177 603.922L361.16 603.993C360.829 605.345 360.551 606.463 360.247 607.204C359.777 606.845 359.152 606.323 358.369 605.668L358.321 605.627C356.559 604.151 354.208 602.181 351.942 600.87C350.801 600.21 349.576 599.654 348.38 599.449C347.154 599.24 345.817 599.385 344.718 600.327C343.516 601.358 342.516 602.925 341.659 604.268L341.587 604.381C341.039 605.238 340.53 606.033 339.998 606.726C339.464 607.422 338.969 607.932 338.489 608.252C338.035 608.555 337.621 608.674 337.182 608.641C336.718 608.606 336.06 608.389 335.162 607.715C334.549 607.256 333.962 606.672 333.384 605.972C332.121 604.443 331.004 602.499 329.776 600.353L329.736 600.283C328.354 597.868 326.838 595.218 324.91 593.067C322.934 590.86 320.452 589.091 317.124 588.566C312.254 587.797 307.686 589.558 304.161 590.917L304.031 590.968C301.968 591.763 300.369 592.367 299.072 592.516C298.455 592.586 298.009 592.537 297.675 592.415C297.364 592.3 297.059 592.09 296.763 591.666C296.21 590.876 295.909 589.725 295.813 588.19C295.718 586.664 295.834 584.96 295.959 583.152L295.966 583.046C296.11 580.958 296.267 578.69 295.978 576.766C295.679 574.772 294.841 572.779 292.683 571.797C291.29 571.164 289.685 570.982 288.106 570.972C286.535 570.962 284.843 571.124 283.224 571.279L283.224 571.279L283.224 571.279L283.18 571.284C280.041 571.585 277.247 571.831 275.111 571.201C273.96 570.862 273.08 570.287 272.454 569.348C271.69 568.202 271.368 566.674 271.347 564.811C271.325 562.948 271.601 560.936 271.883 558.895L271.896 558.801L271.896 558.801C272.165 556.86 272.446 554.83 272.353 553.124C272.259 551.398 271.753 549.513 269.952 548.512C268.501 547.706 266.533 547.488 264.718 547.388C263.87 547.341 263.064 547.32 262.273 547.299H262.273L262.272 547.298H262.272H262.271H262.271H262.271H262.271C261.189 547.269 260.137 547.241 259.051 547.151C257.221 546.998 255.837 546.689 254.958 546.12C254.55 545.856 254.271 545.548 254.092 545.173C253.909 544.791 253.785 544.247 253.835 543.452C253.952 541.579 254.239 540.425 254.561 539.621C254.866 538.859 255.223 538.349 255.666 537.715L255.742 537.608C256.228 536.912 256.782 536.091 257.185 534.855C257.583 533.639 257.81 532.104 257.81 529.951C257.81 526.658 257.567 524.564 257.206 523.272C257.194 523.229 257.182 523.187 257.17 523.145L257.154 523.094C257.145 523.064 257.136 523.034 257.126 523.004C259.677 521.723 261.885 520.06 263.909 517.579C266.34 514.599 268.449 510.507 270.625 504.648C273.06 498.092 275.057 492.987 276.861 488.961C279.42 490.719 281.358 492.287 283.003 493.616L283.004 493.617C283.973 494.4 284.84 495.101 285.671 495.71C286.831 496.56 288.02 497.296 289.269 497.506C290.67 497.742 291.909 497.289 293.036 496.322ZM43.5 527C43.6265 526.597 43.6571 526.113 43.6835 525.695C43.6908 525.58 43.6977 525.471 43.7062 525.369C47.7284 528.35 51.2583 531.011 54.4265 533.399L54.5049 533.458C63.2054 540.016 69.2357 544.561 75.1873 547.963C81.2029 551.402 87.1131 553.661 95.6031 555.732C104.621 557.932 110.124 561.5 113.766 565.33C117.431 569.183 119.302 573.386 120.948 577.104L120.951 577.111L120.952 577.114L120.953 577.115C121.276 577.845 121.594 578.563 121.913 579.247C124.545 584.889 129.313 590.232 131.955 592.789C131.644 593.964 131.715 595.225 132.328 596.603C132.795 597.654 132.937 598.313 132.929 598.712C132.923 599.003 132.847 599.138 132.65 599.291C132.364 599.513 131.796 599.767 130.736 599.985C129.702 600.198 128.353 600.348 126.632 600.47C124.733 600.606 123.174 601.057 121.983 601.878C120.757 602.724 120.035 603.884 119.708 605.195C119.09 607.665 119.878 610.663 120.87 613.39C121.852 616.091 122.749 619.322 122.583 622.039C122.501 623.373 122.168 624.488 121.549 625.35C120.945 626.19 119.984 626.912 118.41 627.332C116.134 627.939 114.613 628.85 113.527 630.127C112.519 631.313 111.984 632.72 111.488 634.024L111.447 634.131C110.623 636.295 109.685 638.755 106.818 641.622C105.798 642.643 104.809 643.61 103.848 644.551L103.77 644.627L103.769 644.628C103.083 645.299 102.411 645.956 101.755 646.608C97.1555 651.168 93.3008 655.428 90.607 661.972C87.4607 669.614 81.3083 674.675 73.2922 676.737C70.3902 672.033 70.3733 667.156 70.3857 662.108L70.3862 661.924C70.4011 656.115 70.4169 649.92 64.6494 645.017C59.7988 640.893 56.7053 636.94 54.949 633.602C53.167 630.216 52.8445 627.632 53.2141 626.153C53.3321 625.682 53.6832 624.999 54.3374 624.044C54.9748 623.115 55.8005 622.066 56.7504 620.86L56.8447 620.741C59.9253 616.831 64.1639 611.452 65.1559 605.168C66.0418 599.557 62.1668 595.1 57.8168 592.156C53.4121 589.176 47.9547 587.334 44.4362 587.063C41.2916 586.822 37.5853 586.101 34.8945 584.531C33.5669 583.756 32.5567 582.816 31.9463 581.692C31.3478 580.591 31.0707 579.2 31.3907 577.386C32.2051 572.771 30.9772 566.88 28.8982 561.335C26.8034 555.748 23.7518 550.267 20.6608 546.402C20.2007 545.827 20.0287 545.314 20.0041 544.851C19.9788 544.373 20.1047 543.824 20.4427 543.184C21.142 541.859 22.6114 540.407 24.6294 538.922C28.6309 535.978 34.1398 533.365 37.6786 531.69L37.7608 531.651L37.7618 531.65C38.974 531.077 40.0063 530.588 40.5925 530.253C42.1791 529.346 43.1022 528.267 43.5 527ZM112.329 473.856L112.331 473.725C112.336 473.42 112.34 473.129 112.34 472.845C112.34 469.356 110.175 463.943 96.1671 456.795C93.2832 459.577 89.4821 460.833 85.9828 460.762C82.1854 460.684 78.4398 459.014 76.7507 455.635C75.8119 453.757 75.2041 453.682 75.0484 453.675C74.8855 453.667 74.6304 453.711 74.2141 453.9C73.7922 454.092 73.3359 454.368 72.753 454.724L72.628 454.801C71.2332 455.656 69.2095 456.895 66.7132 456.591C63.6194 459.865 58.1344 463.192 52.4245 465.99C46.2725 469.003 39.6012 471.525 34.7715 472.796C33.9197 473.02 33.5143 473.231 33.3429 473.353C33.4387 473.602 33.6984 474.016 34.2468 474.659C34.8063 475.314 35.5403 476.066 36.427 476.974L36.482 477.031C40.4754 481.119 46.8909 487.686 48.2805 497.971C49.3965 506.231 48.7566 511.942 47.5827 515.88C46.6289 519.08 45.3386 521.052 44.4499 522.212C48.9145 525.512 52.7846 528.429 56.2195 531.018C65.0143 537.647 70.896 542.077 76.6657 545.375C82.3891 548.647 88.0268 550.816 96.3093 552.837C105.811 555.155 111.842 558.982 115.925 563.275C119.966 567.524 122.012 572.146 123.649 575.844L123.672 575.897C123.999 576.636 124.307 577.33 124.613 577.986C126.847 582.776 130.848 587.448 133.405 590.031C133.895 589.382 134.446 588.76 134.978 588.16L135.065 588.062C136.385 586.573 137.767 585.005 138.811 582.916C140.309 579.919 142.273 576.595 144.48 574.595C145.586 573.593 146.917 572.771 148.42 572.669C150.013 572.56 151.458 573.277 152.676 574.647C153.311 575.362 153.735 575.629 153.963 575.717C154.113 575.775 154.154 575.756 154.222 575.721C154.369 575.647 154.609 575.451 154.955 575.005C155.293 574.57 155.634 574.028 156.044 573.374L156.083 573.312C156.705 572.32 157.474 571.093 158.453 570.114C159.366 569.201 160.311 568.506 161.359 568.084C161.911 567.862 162.468 567.726 163.034 567.664C162.934 564.747 161.604 561.614 159.729 558.69C157.788 555.663 155.384 553.048 153.602 551.417C149.86 552.091 145.75 552.092 141.361 551.28C133.716 549.863 130.27 543.067 129.056 536.04C127.834 528.961 128.727 521.023 130.283 516.095C131.703 511.598 132.431 504.38 131.472 498.085C130.993 494.942 130.11 492.139 128.772 490.041C127.452 487.973 125.728 486.635 123.493 486.229C118.254 485.276 115.268 483.485 113.717 481.019C112.247 478.68 112.292 476.029 112.326 474L112.329 473.856ZM117.629 350.307C108.455 359.36 98.3153 357.93 86.7274 354.119C79.4157 351.714 77.102 342.29 75.2984 334.943C74.2436 330.647 73.3633 327.062 71.7597 326.007C69.4397 324.48 67.8079 326.757 65.3212 330.225C63.1501 333.254 60.3274 337.192 55.8263 340.301C55.2126 340.725 54.521 341.195 53.7673 341.707C42.6612 349.255 18.0897 365.956 31.202 378.895C37.1158 384.731 41.4793 386.403 45.7476 388.037C51.5852 390.273 57.2447 392.441 66.4485 405.102C82.3819 427.02 80.9334 432.261 73.691 439.408C72.52 440.564 71.3996 441.632 70.3663 442.617C65.0088 447.725 61.9961 450.598 66.4485 451.796C68.6885 452.399 70.4991 451.307 72.0976 450.343C74.2892 449.021 76.0821 447.939 78.0364 451.796C80.69 457.034 90.1886 457.572 95.3167 451.796C96.7203 450.216 97.7965 448.162 98.3153 445.602C99.9387 437.592 103.745 438.416 107.533 439.235C109.378 439.634 111.219 440.032 112.8 439.408C115.383 438.388 115.617 433.824 115.794 430.382C115.947 427.39 116.057 425.247 117.629 427.02C121.008 430.831 135.01 440.837 144.667 427.02C147.39 423.124 149.383 420.061 150.777 417.49C154.327 410.942 153.99 407.583 151.909 401.766C149.655 395.463 152.664 392.045 155.702 388.593C156.568 387.609 157.437 386.623 158.186 385.566C161.566 380.801 161.083 366.984 158.186 362.695C157.457 361.615 155.563 360.716 152.875 359.869C150.155 359.012 146.621 358.208 142.658 357.323L141.86 357.145L141.859 357.145L141.859 357.145C134.355 355.471 125.445 353.483 117.629 350.307Z" fill="url(#paint0_linear_333_64961)"/>
</g>
<g filter="url(#filter1_di_333_64961)">
<path fill-rule="evenodd" clip-rule="evenodd" d="M514.596 21.4614C465.027 1.81791 453.348 3.31125 451.178 3.75664C449.008 4.20203 452.119 11.6952 464.56 16.4267C477 21.1583 480.107 27.2407 475.743 27.7409C474.577 27.8747 472.746 28.4352 470.762 29.0427C465.324 30.7078 458.735 32.7255 461.516 27.2726C465.311 19.8302 458.381 19.3889 457.293 24.8638C456.815 27.2734 455.56 29.1532 454.414 30.8703C452.956 33.0548 451.674 34.9761 452.388 37.3905C453.663 41.7029 453.376 46.1102 450.889 49.1616C448.403 52.213 447.346 54.237 456.069 63.741C464.791 73.245 461.69 80.4884 456.049 81.9285C451.885 82.9916 452.907 85.0209 453.986 87.1616C454.368 87.921 454.758 88.6945 454.926 89.4437C455.566 92.3053 452.139 99.3333 447.978 90.0226C445.7 84.9269 445.071 78.698 444.517 73.2048C444.058 68.6609 443.65 64.6204 442.402 62.1411C440.659 58.679 436.891 59.1304 433.657 59.518C431.775 59.7434 430.073 59.9473 429.056 59.3458C428.67 59.1176 428.25 58.8976 427.809 58.667C425.092 57.2457 421.608 55.4226 420.743 48.798C419.737 41.0985 416.656 42.0695 412.537 44.0443C411.888 44.3555 411.322 44.6538 410.825 44.9156C408.169 46.3154 407.495 46.6709 406.71 42.3601C406.074 38.8633 407.962 37.7756 409.78 36.728C410.622 36.2426 411.45 35.7658 412.004 35.0619C413.318 33.3947 410.24 33.5817 407.656 33.7386C406.795 33.7909 405.989 33.8399 405.419 33.8157C404.013 33.7561 401.233 35.1807 398.159 36.7559C396.248 37.7354 394.223 38.7731 392.344 39.5485C388.985 40.9344 388.404 43.1824 387.864 45.2729C387.616 46.2329 387.376 47.1596 386.88 47.9545C385.304 50.4803 379.763 49.6411 378.749 45.7832C378.022 43.0157 371.339 43.2724 365.958 43.479C363.838 43.5604 361.921 43.6341 360.649 43.5119C356.152 43.0796 352.861 45.788 354.715 47.9486C355.164 48.4717 356.03 49.0612 357.025 49.7382C360.141 51.8577 364.515 54.834 361.272 59.3087C360.307 60.641 359.408 61.7497 358.636 62.7023C355.986 65.9711 354.825 67.4022 357.575 69.7239C359.417 71.2793 359.46 74.5262 359.504 77.8888C359.545 81.0081 359.587 84.2268 361.068 86.2871C362.92 88.8626 362.868 89.0288 362.515 90.1702C362.281 90.926 361.914 92.1096 361.881 94.7037C361.796 101.215 364.579 113.745 369.93 121.965C375.282 130.184 390.628 145.557 400.855 144.7C411.081 143.844 414.632 146.842 416.887 151.801C419.143 156.759 433.941 158.917 440.395 153.979C444.929 150.509 444.725 152.666 444.462 155.437C444.351 156.61 444.229 157.893 444.453 158.906C444.811 160.529 446.481 160.521 448.234 160.513C450.157 160.505 452.18 160.496 452.676 162.639C453.175 164.792 451.379 169.161 449.404 173.97C447.618 178.314 445.686 183.017 445.164 186.769C444.473 191.736 445.34 191.658 449.313 191.3C451.664 191.088 455.102 190.778 459.949 191.358C472.004 192.801 474.126 209.993 475.986 225.058C476.138 226.286 476.288 227.499 476.441 228.689C478.476 244.478 485.126 257.401 491.729 257.627C494.796 257.732 495.717 259.032 496.86 260.646C498.178 262.507 499.792 264.786 505.335 266.129C515.682 268.636 539.824 260.349 546.579 248.572C553.21 237.011 568.862 230.945 578.502 227.21L579.033 227.004C583.969 225.089 586.365 221.375 588.405 218.212C590.327 215.233 591.934 212.742 595.052 212.704C597.95 212.67 599.976 214.615 602.098 216.65C604.683 219.132 607.409 221.748 612.024 221.08C612.798 220.968 613.587 220.859 614.382 220.749C622.207 219.669 630.485 218.527 628.851 213.787C628.081 211.554 626.331 210.958 624.906 210.472C622.998 209.821 621.67 209.369 624.042 205.456C627.177 200.285 626.175 198.774 623.561 194.831C622.719 193.562 621.71 192.041 620.619 190.065C618.238 185.755 615.188 184.337 612.337 183.013C609.82 181.843 607.458 180.745 605.848 177.792C604.458 175.243 603.661 172.053 602.836 168.756C601.623 163.908 600.352 158.827 597.056 155.202C591.517 149.11 585.042 148.406 584.013 152.231C582.985 156.056 584.243 161.389 589.319 159.669C594.394 157.95 587.218 173.202 582.397 167.302C579.566 163.838 578.714 160.902 578.073 158.698C577.623 157.147 577.278 155.958 576.423 155.201C575.616 154.486 574.002 154.82 571.832 155.27C568.432 155.974 563.668 156.961 558.503 154.643C550.04 150.846 529.035 149.848 523.049 152.093C517.063 154.338 499.218 156.363 503.149 144.601C507.08 132.839 500.806 127.576 495.071 127.454C493.006 127.41 490.228 128.59 487.33 129.82C482.184 132.006 476.658 134.353 474.058 130.298C473.378 129.237 472.73 128.379 472.176 127.645C469.419 123.994 468.991 123.428 478.568 116.385C490.069 107.925 499.989 88.6661 502.267 82.0998C503.374 78.9091 505.92 78.1297 508.803 77.2473C511.853 76.3138 515.28 75.265 517.777 71.1238C522.634 63.0682 534.571 31.5362 514.596 21.4614ZM239.957 201.313C243.619 197.895 246.713 196.022 249.269 195.543C250.513 195.31 251.619 195.408 252.632 195.812C253.653 196.219 254.668 196.974 255.661 198.188C256.963 199.78 257.96 201.424 258.945 203.052L259.047 203.22C261.165 206.725 263.349 210.338 268.503 211.131C270.345 211.415 271.994 211.362 273.52 211.312L273.566 211.311C275.718 211.241 277.713 211.183 280.226 211.884C282.749 212.589 285.892 214.092 290.178 217.306C298.929 223.871 309.133 221.423 315.538 219.887L315.695 219.849C317.192 219.49 318.44 219.192 319.468 219.035C320.552 218.869 321.1 218.913 321.33 218.999C321.827 219.185 322.36 219.668 322.959 220.633C323.553 221.59 324.082 222.801 324.686 224.195L324.708 224.246C325.334 225.688 326.034 227.304 326.92 228.72C327.818 230.159 328.987 231.528 330.62 232.344C332.086 233.077 334.362 233.631 336.904 233.949C339.484 234.271 342.475 234.368 345.441 234.11C348.398 233.853 351.398 233.237 353.957 232.092C356.515 230.948 358.746 229.219 359.941 226.68C362.125 222.037 361.813 218.195 361.622 215.847L361.621 215.83C361.576 215.277 361.544 214.873 361.542 214.548L361.587 214.557C361.635 214.566 361.688 214.577 361.745 214.589C362.232 214.698 362.894 215.143 363.78 216.163C364.637 217.152 365.512 218.447 366.501 219.916L366.537 219.969C367.766 221.794 369.153 223.854 370.745 225.524C372.353 227.21 374.321 228.663 376.752 229.011C377.828 229.164 378.762 229.271 379.552 229.362L379.557 229.362C380.701 229.493 381.449 229.581 381.975 229.709C382.153 229.752 382.266 229.792 382.334 229.82C382.336 229.907 382.328 230.059 382.286 230.303C382.183 230.901 381.931 231.752 381.508 233.024C380.471 236.132 379.323 241.747 379.259 246.51C379.227 248.865 379.455 251.21 380.234 252.956C380.632 253.849 381.217 254.682 382.081 255.238C382.973 255.811 384.017 255.995 385.133 255.823C387.169 255.51 388.662 254.965 389.813 254.544L389.83 254.538C391.301 254.001 391.901 253.827 392.565 253.982C393.267 254.147 394.315 254.768 396.221 256.847C398.032 258.824 400.391 259.698 402.749 260.073C405.057 260.44 407.51 260.348 409.643 260.268L409.712 260.266C411.522 260.198 413.058 260.145 414.306 260.303C415.567 260.463 416.18 260.801 416.483 261.204C417.079 261.999 417.854 263.613 418.923 265.867L418.952 265.927C420.585 269.369 422.754 273.94 425.594 277.603C428.432 281.266 432.21 284.367 437.105 284.144C438.306 284.09 439.482 284.023 440.618 283.959L440.622 283.959C445.346 283.692 449.231 283.485 452.115 284.145C453.517 284.465 454.565 284.969 455.323 285.681C456.067 286.379 456.638 287.378 456.922 288.889C457.561 292.296 457.728 296.813 457.321 300.881C457.07 303.387 456.608 305.642 455.951 307.328C455.26 309.102 454.509 309.855 453.943 310.044C451.687 310.796 444.365 313.319 437.585 317.312C434.196 319.308 430.872 321.711 428.378 324.501C425.884 327.292 424.129 330.579 424.129 334.3C424.129 340.773 423.603 342.68 422.542 344.176C422.067 344.846 421.481 345.444 420.639 346.303L420.638 346.304C420.423 346.524 420.191 346.761 419.94 347.021C418.745 348.255 417.271 349.859 415.482 352.286C413.58 354.868 412.91 357.182 413.006 359.327C413.098 361.412 413.915 363.164 414.599 364.563L414.708 364.786C415.389 366.178 415.84 367.099 415.893 367.992C415.935 368.715 415.712 369.632 414.223 370.909C409.394 375.048 396.616 383.883 388.704 389.219C388.959 387.314 389.099 385.316 389.07 383.354C389.022 380.162 388.524 376.938 387.232 374.353C386.125 372.14 384.699 370.832 382.852 370.608C381.18 370.404 379.585 371.175 378.355 371.852C377.934 372.083 377.544 372.31 377.174 372.525C376.315 373.024 375.558 373.464 374.76 373.766C373.72 374.159 372.97 374.163 372.268 373.742C371.08 373.029 369.975 372.253 368.844 371.458L368.8 371.427C367.698 370.651 366.564 369.853 365.374 369.146C362.926 367.69 360.18 366.578 356.607 366.578C355.102 366.578 354.08 366.403 353.304 366.118C352.547 365.84 351.941 365.427 351.307 364.819C350.707 364.244 350.124 363.54 349.36 362.617L349.096 362.298C348.218 361.239 347.159 359.987 345.745 358.572C342.653 355.48 339.134 354.681 335.476 354.296C334.51 354.194 333.545 354.12 332.57 354.045L332.569 354.045C329.791 353.833 326.93 353.614 323.741 352.728C321.968 352.235 321.027 351.239 320.52 349.925C319.975 348.515 319.899 346.646 320.166 344.476C320.431 342.33 321.01 340.046 321.632 337.886C321.861 337.09 322.102 336.293 322.334 335.528C322.711 334.281 323.063 333.118 323.298 332.178C323.748 330.377 323.536 328.74 322.609 327.485C321.699 326.255 320.289 325.647 318.853 325.487C316.017 325.17 312.552 326.509 310.27 329.325C308.746 331.206 305.779 332.106 301.367 331.94C297.243 331.785 292.235 330.71 286.887 329.096C286.483 327.566 285.661 325.977 284.641 324.354C283.395 322.369 281.749 320.174 279.936 317.786C279.754 317.546 279.57 317.304 279.383 317.059L279.369 317.04C275.833 312.389 271.663 306.903 268.05 300.313C263.802 292.566 260.27 289.491 256.666 288.942C254.898 288.673 253.3 289.051 251.918 289.482C251.458 289.625 251.036 289.768 250.636 289.903C249.749 290.204 248.967 290.469 248.107 290.625C245.543 291.092 239.815 291.554 234 288.762C228.262 286.007 222.18 279.96 219.04 266.913C217.153 259.076 214.466 252.991 211.489 248.224C219.169 245.661 226.63 241.749 232.072 237.25C235.015 234.818 237.428 232.164 238.944 229.401C240.466 226.625 241.121 223.662 240.386 220.719C239.725 218.077 238.896 215.848 238.184 213.933L238.176 213.912C237.115 211.061 236.415 209.109 236.504 207.26C236.586 205.56 237.367 203.731 239.957 201.313ZM386.638 392.401L387.463 393.64L387.807 393.411L387.959 393.309C387.533 395.129 387.015 396.766 386.461 398.052C386.156 398.76 385.822 399.403 385.463 399.92C385.395 400.016 385.321 400.117 385.24 400.219C385.082 399.894 384.926 399.563 384.773 399.228L383.504 399.81C383.475 399.825 383.447 399.838 383.419 399.849L383.422 399.855C383.63 400.31 383.843 400.757 384.059 401.195C384.556 400.972 384.945 400.59 385.24 400.219C390.571 411.209 398.387 416.987 402.713 418.285C405.624 419.159 407.099 420.803 408.279 422.245L408.393 422.384L408.501 422.517C409.555 423.811 410.302 424.728 411.745 425.269C412.056 425.386 412.239 425.418 412.329 425.425C412.307 425.455 412.295 425.467 412.293 425.469C412.297 425.466 412.302 425.462 412.307 425.459C412.311 425.457 412.315 425.454 412.32 425.452C412.323 425.45 412.327 425.448 412.33 425.446C412.34 425.442 412.351 425.437 412.363 425.433C412.379 425.428 412.39 425.426 412.39 425.426L412.385 425.427L412.376 425.427C412.365 425.427 412.349 425.427 412.329 425.425C412.377 425.359 412.477 425.202 412.638 424.853C412.667 424.791 412.697 424.722 412.73 424.648C412.758 424.586 412.787 424.52 412.817 424.45C413.002 424.029 413.242 423.483 413.525 422.958C414.367 421.393 415.75 419.648 418.542 418.359C422.029 416.749 427.72 415.742 433.282 415.616C438.802 415.49 444.634 416.22 448.246 418.443C450.397 419.767 451.573 421.274 452.331 422.245C452.559 422.536 452.749 422.779 452.916 422.955C453.269 423.325 453.61 423.564 454.204 423.705C454.871 423.863 455.921 423.912 457.707 423.69C459.446 423.473 461.782 423.014 464.988 422.237C481.292 418.284 489.792 413.42 493.936 407.894C495.224 406.176 497.374 404.536 499.759 403.041C502.177 401.524 504.979 400.069 507.699 398.756C510.009 397.64 512.287 396.614 514.241 395.734L514.806 395.48L515.25 395.279C517.477 394.273 519.006 393.558 519.622 393.147C521.435 391.938 524.093 389.313 525.815 387.491C526.066 387.663 526.267 387.806 526.424 387.926C526.612 388.069 526.702 388.15 526.735 388.179L526.746 388.189C526.748 388.191 526.749 388.192 526.749 388.191L526.739 388.178L526.728 388.163L526.718 388.148C526.693 388.114 526.622 388.011 526.566 387.853C526.513 387.705 526.42 387.36 526.555 386.942C526.617 386.752 526.709 386.593 526.817 386.464C526.833 386.444 526.849 386.425 526.866 386.407L526.835 386.386L526.788 386.438C526.521 386.736 526.19 387.094 525.815 387.491C525.09 386.997 523.942 386.273 522.18 385.245C520.37 384.189 519.171 382.287 518.343 380.098C517.507 377.886 516.976 375.183 516.63 372.249C515.941 366.4 515.958 359.318 515.975 352.743L515.975 352.682C515.977 351.674 515.98 350.677 515.98 349.695C515.98 348.036 515.987 346.497 515.993 345.078H517.483L515.993 345.071V345.064V345.057C516.018 339.732 516.028 336.252 515.684 334.244C515.567 333.561 515.434 333.226 515.359 333.078C515.405 333.064 515.437 333.058 515.458 333.055C515.477 333.057 515.489 333.054 515.489 333.054C515.489 333.054 515.486 333.053 515.48 333.053C515.475 333.053 515.468 333.053 515.458 333.055C515.453 333.054 515.447 333.053 515.442 333.052C515.432 333.05 515.422 333.047 515.41 333.043C515.379 333.032 515.341 333.012 515.3 332.977L515.299 332.977C515.299 332.977 515.299 332.977 515.3 332.977L515.302 332.981C515.309 332.991 515.329 333.021 515.359 333.078C515.338 333.084 515.315 333.091 515.289 333.101C515.267 333.108 515.243 333.117 515.217 333.128C515.182 333.142 515.142 333.158 515.098 333.178C511.114 334.959 504.134 335.793 494.332 329.601C490.59 327.238 487.976 324.575 485.701 322.258L485.672 322.228C481.954 318.442 479.216 315.705 473.704 315.429C468.912 315.189 465.831 314.606 463.496 312.52C462.352 311.499 461.468 310.19 460.626 308.606C460.259 307.915 459.89 307.151 459.505 306.314L459.428 306.212C459.226 306.992 458.994 307.731 458.729 308.411C457.971 310.357 456.786 312.238 454.887 312.871C452.675 313.609 445.598 316.052 439.098 319.88C435.846 321.795 432.809 324.016 430.602 326.487C428.395 328.957 427.109 331.566 427.109 334.301C427.109 340.739 426.642 343.549 424.973 345.901C424.348 346.782 423.553 347.592 422.689 348.472L422.688 348.473C422.489 348.676 422.287 348.882 422.082 349.094C420.949 350.264 419.569 351.765 417.882 354.054C416.309 356.19 415.924 357.849 415.984 359.195C416.046 360.602 416.595 361.86 417.277 363.255C417.334 363.373 417.394 363.493 417.455 363.617C418.054 364.827 418.778 366.291 418.868 367.817C418.981 369.717 418.149 371.47 416.163 373.172C410.645 377.902 395.345 388.375 387.959 393.309C388.005 393.114 388.049 392.917 388.093 392.718L386.638 392.401ZM312.586 331.203C314.276 329.118 316.769 328.254 318.525 328.45C319.386 328.546 319.93 328.873 320.215 329.259C320.482 329.62 320.705 330.28 320.41 331.458C320.19 332.34 319.877 333.37 319.521 334.546L319.52 334.549C319.285 335.324 319.031 336.162 318.772 337.063C318.137 339.264 317.506 341.728 317.212 344.113C316.921 346.474 316.938 348.919 317.743 351.001C318.585 353.179 320.251 354.852 322.946 355.6C326.442 356.572 329.715 356.821 332.554 357.037C333.473 357.107 334.346 357.174 335.166 357.26C338.583 357.62 341.27 358.31 343.64 360.681C344.956 361.997 345.945 363.165 346.805 364.202L346.974 364.406L347.078 364.531C347.816 365.424 348.516 366.27 349.248 366.972C350.104 367.793 351.05 368.465 352.279 368.917C353.489 369.361 354.887 369.559 356.609 369.559C359.49 369.559 361.709 370.433 363.853 371.708C364.944 372.357 365.998 373.099 367.132 373.896C368.251 374.684 369.442 375.522 370.737 376.299C372.518 377.367 374.311 377.123 375.816 376.554C376.86 376.16 377.95 375.526 378.888 374.981L378.889 374.981C379.211 374.794 379.515 374.617 379.792 374.464C381.045 373.776 381.87 373.491 382.494 373.567C382.943 373.622 383.689 373.928 384.569 375.687C385.58 377.709 386.049 380.428 386.093 383.4C386.137 386.35 385.761 389.429 385.182 392.084C384.762 394.011 384.243 395.672 383.726 396.873C383.465 397.477 383.223 397.924 383.017 398.22C382.898 398.391 382.821 398.469 382.793 398.496C382.6 398.572 382.331 398.672 382 398.796L381.728 398.897C379.833 399.601 376.295 400.915 372.729 402.6C370.457 403.673 368.114 404.922 366.1 406.303C364.112 407.665 362.315 409.244 361.28 411.017C360.3 412.698 359.7 414.637 359.245 416.617C358.943 417.935 358.688 419.35 358.435 420.756L358.435 420.758L358.433 420.766C358.311 421.445 358.189 422.122 358.063 422.785C357.261 426.982 356.196 430.982 353.492 434.138C350.223 437.952 348.917 442.919 348.851 447.625C348.786 452.324 349.953 456.943 351.847 460.19C353.644 463.271 355.621 465.404 358.075 466.195C360.59 467.007 363.168 466.278 365.815 464.689C367.025 463.964 367.79 463.652 368.272 463.569C368.625 463.508 368.695 463.579 368.768 463.652L368.774 463.658C368.971 463.855 369.242 464.318 369.564 465.331C369.876 466.308 370.172 467.576 370.548 469.209C371.294 472.441 372.219 476.862 371.581 481.205C370.995 485.195 369.092 489.136 364.307 492.005C363.848 491.535 363.422 491.078 363.003 490.628L363.002 490.627C362.691 490.294 362.385 489.964 362.07 489.636C361.148 488.673 360.166 487.731 359.025 487.099C357.827 486.434 356.491 486.129 354.921 486.357C353.407 486.578 351.758 487.282 349.862 488.467C346.015 490.872 342.886 492.124 339.217 492.468C335.493 492.818 331.092 492.244 324.672 490.762C318.543 489.347 315.409 486.904 312.789 484.581C312.509 484.333 312.231 484.082 311.953 483.83C309.619 481.72 307.249 479.579 303.263 478.831C300.795 478.368 298.848 479.081 297.381 480.508C296.006 481.845 295.122 483.74 294.454 485.553C294.114 486.478 293.813 487.43 293.532 488.336L293.399 488.766C293.165 489.525 292.944 490.242 292.713 490.916C292.135 492.602 291.618 493.615 291.097 494.062C290.487 494.585 290.112 494.628 289.762 494.57C289.259 494.485 288.558 494.134 287.43 493.308C286.78 492.833 286.007 492.209 285.099 491.477C283.317 490.039 281.018 488.186 278.138 486.229C280.562 481.275 282.661 478.407 285.053 476.493C288.036 474.106 289.122 470.435 288.642 466.461C288.165 462.511 286.149 458.158 282.796 454.031C280.445 451.137 279.615 448.812 278.832 446.623C278.602 445.977 278.375 445.343 278.115 444.709C277.54 443.31 276.798 441.952 275.451 440.726C274.436 439.804 273.135 439.008 271.42 438.301C274.533 433.034 278.808 425.682 282.518 419.05C284.561 415.399 286.439 411.955 287.858 409.193C288.567 407.814 289.169 406.592 289.621 405.594C290.055 404.634 290.404 403.769 290.541 403.153C290.888 401.591 290.474 399.663 289.718 397.769C288.939 395.817 287.703 393.67 286.119 391.567C282.959 387.375 278.28 383.19 272.737 381.078C267.819 379.204 266.099 376.986 265.352 374.944C264.955 373.859 264.797 372.728 264.683 371.508C264.662 371.278 264.642 371.041 264.622 370.798C264.539 369.814 264.448 368.739 264.228 367.746L264.152 367.407C263.944 366.464 263.76 365.633 263.546 364.935C263.299 364.13 262.982 363.39 262.449 362.721C261.434 361.445 259.832 360.706 257.492 359.782C257.341 359.674 257.238 359.529 257.194 359.339C257.141 359.109 257.13 358.61 257.584 357.759C258.525 355.995 261.203 353.23 267.506 349.487C268.068 349.153 268.613 348.83 269.142 348.516L269.152 348.51C276.031 344.428 280.189 341.961 282.718 339.853C284.12 338.684 285.104 337.563 285.794 336.267C286.451 335.033 286.793 333.729 287.049 332.253C292.141 333.737 297.05 334.761 301.257 334.919C305.906 335.094 310.138 334.224 312.586 331.203ZM161.082 360.512C161.708 360.329 162.327 360.105 162.936 359.85C165.597 358.733 168.2 356.958 170.588 355.129C171.788 354.21 172.953 353.262 174.055 352.36L174.377 352.097L174.378 352.095C175.366 351.287 176.296 350.525 177.175 349.843C178.15 349.085 179.027 348.453 179.804 347.987C180.599 347.51 181.194 347.265 181.616 347.189C182.193 347.084 182.886 347.294 183.996 348.533C184.987 349.639 186.017 351.232 187.314 353.237L187.321 353.249L187.325 353.255L187.376 353.333C187.513 353.545 187.653 353.761 187.796 353.982C190.788 358.596 194.898 364.658 201.873 369.308C204.904 371.33 209.119 372.134 213.738 372.234C218.395 372.334 223.663 371.72 228.964 370.725C239.291 368.786 249.934 365.363 256.808 362.717C258.945 363.581 259.697 364.048 260.119 364.577C260.331 364.844 260.51 365.196 260.697 365.808C260.874 366.385 261.031 367.091 261.248 368.073L261.319 368.392C261.492 369.17 261.561 369.984 261.643 370.94L261.643 370.944L261.643 370.948C261.666 371.215 261.69 371.493 261.717 371.784C261.836 373.062 262.02 374.507 262.553 375.967C263.668 379.015 266.168 381.763 271.676 383.862C276.559 385.722 280.817 389.483 283.739 393.36C285.195 395.292 286.287 397.21 286.951 398.874C287.638 400.595 287.782 401.833 287.633 402.506C287.571 402.784 287.347 403.391 286.906 404.364C286.483 405.299 285.907 406.472 285.208 407.831C283.812 410.546 281.954 413.955 279.918 417.595C276.104 424.411 271.687 431.999 268.562 437.28C246.626 429.855 233.031 426.674 224.666 425.987C220.42 425.639 217.372 425.918 215.225 426.721C212.991 427.556 211.722 428.971 211.202 430.706C210.968 431.486 210.488 431.99 209.732 432.349C208.918 432.736 207.8 432.939 206.421 432.998C205.057 433.056 203.565 432.969 202.053 432.861C201.889 432.849 201.725 432.837 201.56 432.825L201.379 432.811C200.118 432.718 198.845 432.624 197.734 432.624C196.246 432.624 194.804 433.404 193.57 434.338C192.294 435.302 191.02 436.601 189.837 437.988C188.359 439.719 186.963 441.656 185.812 443.404C183.941 437.925 181.088 433.99 176.602 430.46C171.625 426.544 164.632 423.128 154.905 418.526C156.311 415.641 157.021 413.215 157.121 410.798C157.235 408.017 156.532 405.405 155.448 402.333C154.401 399.365 154.605 397.209 155.333 395.409C156.098 393.518 157.474 391.912 159.068 390.077L159.092 390.05C159.966 389.043 160.902 387.965 161.718 386.8C162.764 385.305 163.435 383.232 163.847 381.028C164.264 378.795 164.439 376.289 164.407 373.822C164.375 371.355 164.135 368.888 163.704 366.729C163.279 364.606 162.643 362.642 161.737 361.284C161.552 361.005 161.33 360.749 161.082 360.512ZM153.506 421.159C152.092 423.641 150.219 426.516 147.822 429.992C145.191 433.809 142.189 436.08 139.046 437.186C135.912 438.288 132.768 438.187 129.917 437.483C124.974 436.261 120.737 433.187 118.495 430.993C118.456 431.5 118.426 432.08 118.394 432.726L118.39 432.792C118.302 434.543 118.191 436.739 117.745 438.641C117.314 440.482 116.442 442.616 114.381 443.441C112.323 444.264 110.032 443.759 108.283 443.374L108.093 443.332C106.014 442.877 104.578 442.617 103.428 443.112C102.437 443.54 101.197 444.79 100.394 448.805C99.9586 450.984 99.1668 452.865 98.1171 454.449C111.889 461.599 115.318 467.671 115.318 472.845V472.854L115.306 473.897L115.306 473.906C115.269 476.104 115.278 477.906 116.237 479.433C117.152 480.888 119.172 482.415 124.024 483.298C127.25 483.884 129.622 485.837 131.282 488.439C132.923 491.012 133.901 494.261 134.415 497.636C135.442 504.376 134.681 512.055 133.122 516.993C131.699 521.5 130.854 528.956 131.99 535.533C133.135 542.162 136.143 547.283 141.902 548.35C146.23 549.152 150.204 549.086 153.74 548.356C160.72 546.915 166.064 542.875 169.143 537.638C171.026 534.438 171.515 532.01 171.915 530.031C172.011 529.552 172.102 529.1 172.207 528.67C172.471 527.58 172.882 526.367 174.011 525.534C175.093 524.734 176.557 524.489 178.371 524.489C179.488 524.489 181.138 524.094 183.189 523.339C185.204 522.598 187.472 521.561 189.774 520.394C193.878 518.312 198.014 515.854 200.89 514.021C200.07 511.749 199.308 509.472 198.577 507.282L198.544 507.184C197.701 504.659 196.899 502.258 196.08 500.074C195.25 497.859 194.42 495.914 193.54 494.329C192.652 492.731 191.767 491.598 190.871 490.912C181.884 484.039 175.387 466.126 183.751 446.894C182.078 440.519 179.409 436.459 174.76 432.8C170.071 429.111 163.378 425.83 153.506 421.159ZM117.407 429.864C117.401 429.86 117.4 429.859 117.406 429.863L117.407 429.864ZM187.162 448.34C189.56 444.181 195.314 435.864 199.15 435.864C200.165 435.864 201.331 435.95 202.552 436.04C207.097 436.375 212.402 436.767 213.535 432.984C214.974 428.186 224.564 425.786 268.201 440.662C274.037 442.591 274.901 445.016 276.088 448.35C276.851 450.493 277.749 453.013 280.189 456.018C286.422 463.696 287.381 471.854 282.586 475.693C279.846 477.887 277.575 481.178 274.969 486.73C273.015 490.894 270.872 496.329 268.201 503.526C264.044 514.724 260.314 518.67 254.31 521.193C254.305 521.195 254.3 521.197 254.295 521.2C251.86 522.222 249.051 523.011 245.688 523.956C244.911 524.174 244.104 524.401 243.266 524.64C237.773 526.211 235.33 529.066 233.277 531.465C230.312 534.931 228.161 537.444 218.81 533.758C211.452 530.857 207.204 522.456 203.945 513.67C202.994 511.106 202.127 508.509 201.292 506.007C198.835 498.645 196.65 492.1 193.396 489.609C185.244 483.371 179.01 466.576 187.162 448.34ZM162.47 570.848C161.904 571.076 161.285 571.494 160.558 572.221C159.84 572.939 159.233 573.894 158.567 574.957L158.545 574.992C158.162 575.604 157.746 576.266 157.307 576.832C156.868 577.398 156.302 578.007 155.566 578.379C154.752 578.791 153.834 578.861 152.891 578.497C152.027 578.164 151.226 577.502 150.448 576.626C149.68 575.762 149.076 575.61 148.622 575.641C148.077 575.678 147.36 576.005 146.48 576.802C144.715 578.402 142.955 581.286 141.474 584.248C140.244 586.709 138.627 588.533 137.327 590L137.294 590.038C136.197 591.275 135.439 592.15 135.036 593.006C134.694 593.732 134.619 594.424 135.049 595.391C135.575 596.574 135.929 597.715 135.906 598.775C135.881 599.942 135.399 600.925 134.478 601.641C133.648 602.288 132.539 602.655 131.335 602.902C130.104 603.155 128.598 603.316 126.843 603.441C125.267 603.554 124.282 603.91 123.673 604.33C123.099 604.726 122.765 605.242 122.597 605.917C122.221 607.419 122.674 609.635 123.669 612.371C124.673 615.132 125.761 618.853 125.555 622.22C125.451 623.927 125.008 625.637 123.967 627.087C122.911 628.558 121.327 629.636 119.177 630.21C117.321 630.705 116.391 631.356 115.796 632.056C115.151 632.815 114.776 633.757 114.23 635.19L114.228 635.194C113.362 637.469 112.243 640.408 108.924 643.728C107.892 644.76 106.894 645.737 105.935 646.674L105.934 646.676L105.932 646.678L105.93 646.679C100.376 652.114 96.1911 656.23 93.3607 663.105C89.9605 671.364 83.4 676.917 75.0168 679.352C77.338 683.05 78.8868 686.738 79.8114 690.258C79.8659 691.097 79.9807 692.12 80.1689 693.238C80.9345 697.784 82.9157 703.896 87 705.501C90.9365 707.048 93.4831 706.106 96.6721 704.926C98.636 704.199 100.843 703.382 103.769 703.001C106.629 702.629 109.776 702.672 113.123 702.719C118.763 702.797 124.972 702.884 131.335 701.001C138.842 698.78 148.937 700.67 161.481 703.019C165.88 703.842 170.58 704.722 175.575 705.501C188.539 707.522 191.484 706.139 195.816 704.103C197.913 703.118 200.335 701.98 204.377 701.001C208.079 700.105 212.586 699.701 217.043 699.301C225.839 698.513 234.437 697.742 236.247 693.238C236.589 692.387 236.689 691.402 236.501 690.258C235.482 686.774 234.42 684.541 233.519 683.171C232.993 682.371 232.544 681.897 232.22 681.636C232.016 681.471 231.896 681.417 231.862 681.403L231.411 681.382L231.022 681.049C227.761 678.253 224.607 675.73 221.713 673.415L221.609 673.332C217.018 669.659 212.999 666.444 210.427 663.564C207.897 660.73 206.229 657.608 207.821 654.423C208.974 652.117 210.465 650.558 211.67 649.299L211.703 649.265C212.86 648.055 213.612 647.239 213.992 646.264C214.332 645.389 214.429 644.2 213.708 642.182C213.295 641.026 212.53 639.748 211.453 638.366C209.238 635.52 205.924 632.5 202.431 629.483C201.63 628.792 200.819 628.1 200.012 627.412L200.006 627.407C197.348 625.141 194.738 622.915 192.709 620.885C189.008 617.183 188.92 613.133 189.11 609.269C189.129 608.865 189.152 608.463 189.174 608.063C189.369 604.594 189.557 601.249 187.933 597.594C186.006 593.258 182.472 587.519 178.788 582.544C176.95 580.063 175.096 577.8 173.41 576.016C171.69 574.195 170.257 572.996 169.265 572.5C167.033 571.383 165.509 570.782 164.294 570.638C163.594 570.555 163.018 570.628 162.47 570.848Z" fill="url(#paint1_linear_333_64961)"/>
</g>
<g opacity="0.4" filter="url(#filter2_f_333_64961)">
<path opacity="0.8" d="M322.543 404.478L324.407 396.398C331.999 363.501 351.767 334.699 379.736 315.787V315.787" stroke="#EFFBFF" stroke-width="3.31553"/>
<path d="M322.543 404.478L320.551 402.698C293.989 378.956 254.932 375.627 224.734 394.531V394.531" stroke="#EFFBFF" stroke-width="3.31553"/>
<path d="M322.543 404.479H287.746C234.053 404.479 182.749 426.678 145.991 465.816V465.816" stroke="#EFFBFF" stroke-width="3.31553"/>
<path opacity="0.8" d="M322.543 404.479V404.479C279.798 420.213 246.403 454.348 231.611 497.428L231.366 498.142" stroke="#EFFBFF" stroke-width="3.31553"/>
<path d="M322.543 404.479L319.779 405.154C233.704 426.184 169.721 498.431 159.253 586.418V586.418" stroke="#EFFBFF" stroke-width="3.31553"/>
<path d="M322.543 404.479L332.408 398.052C372.36 372.026 421.356 363.841 467.597 375.468V375.468" stroke="#EFFBFF" stroke-width="3.31553"/>
<path d="M492.464 177.365L487.102 186.389C453.17 243.5 446.039 312.633 467.597 375.468V375.468" stroke="#EFFBFF" stroke-width="3.31553"/>
<path d="M492.464 177.365V177.365C440.664 206.469 401.316 253.537 381.855 309.675L379.736 315.789" stroke="#EFFBFF" stroke-width="3.31553"/>
<path d="M492.464 177.365L452.428 189.425C349.712 220.366 266.199 295.595 224.734 394.533V394.533" stroke="#EFFBFF" stroke-width="3.31553"/>
<path d="M492.464 177.365V177.365C364.845 233.329 270.187 345.045 235.936 480.12L231.366 498.143" stroke="#EFFBFF" stroke-width="3.31553"/>
<path d="M492.464 177.365L479.905 178.875C277.786 203.173 134.08 387.361 159.667 589.32V589.32" stroke="#EFFBFF" stroke-width="3.31553"/>
<path d="M492.464 177.365L467.994 179.482C309.154 193.226 178.203 309.671 145.991 465.817V465.817" stroke="#EFFBFF" stroke-width="3.31553"/>
<circle cx="322.543" cy="404.479" r="17.4066" fill="#EFFBFF"/>
<circle cx="492.464" cy="178.193" r="19.0643" fill="#EFFBFF"/>
<circle cx="467.597" cy="375.468" r="12.4333" fill="#EFFBFF"/>
<circle cx="379.736" cy="315.789" r="12.4333" fill="#EFFBFF"/>
<circle cx="231.366" cy="498.142" r="12.4333" fill="#EFFBFF"/>
<circle cx="145.991" cy="465.815" r="13.2621" fill="#EFFBFF"/>
<circle cx="224.734" cy="394.532" r="13.2621" fill="#EFFBFF"/>
<circle cx="163.397" cy="590.976" r="12.4333" fill="#EFFBFF"/>
</g>
<path d="M319.227 401.163L321.092 393.084C328.683 360.186 348.452 331.385 376.42 312.473V312.473" stroke="url(#paint2_linear_333_64961)" stroke-width="1.65777"/>
<path d="M319.227 401.163L317.236 399.383C290.673 375.641 251.616 372.313 221.419 391.217V391.217" stroke="url(#paint3_linear_333_64961)" stroke-width="1.65777"/>
<path opacity="0.8" d="M319.227 401.162H284.43C230.737 401.162 179.433 423.361 142.675 462.499V462.499" stroke="url(#paint4_linear_333_64961)" stroke-width="1.65777"/>
<path d="M319.227 401.162V401.162C276.482 416.896 243.088 451.032 228.295 494.112L228.05 494.826" stroke="url(#paint5_linear_333_64961)" stroke-width="1.65777"/>
<path d="M319.227 401.162V401.162C232.109 422.447 168.388 497.095 161.042 586.474L160.91 588.075" stroke="url(#paint6_linear_333_64961)" stroke-width="1.65777"/>
<path opacity="0.8" d="M319.227 401.162L329.093 394.736C369.044 368.71 418.04 360.525 464.282 372.151V372.151" stroke="url(#paint7_linear_333_64961)" stroke-width="1.65777"/>
<path opacity="0.8" d="M489.148 174.049L483.787 183.073C449.855 240.183 442.723 309.317 464.282 372.152V372.152" stroke="url(#paint8_linear_333_64961)" stroke-width="1.65777" stroke-linecap="round"/>
<path opacity="0.8" d="M489.148 174.049V174.049C437.348 203.153 398.001 250.22 378.539 306.359L376.42 312.472" stroke="url(#paint9_linear_333_64961)" stroke-width="1.65777" stroke-linecap="round"/>
<path opacity="0.8" d="M489.148 174.049L449.112 186.109C346.396 217.05 262.883 292.279 221.419 391.216V391.216" stroke="url(#paint10_linear_333_64961)" stroke-width="1.65777" stroke-linecap="round"/>
<path opacity="0.8" d="M489.148 174.049V174.049C361.53 230.013 266.871 341.729 232.62 476.804L228.05 494.827" stroke="url(#paint11_linear_333_64961)" stroke-width="1.65777" stroke-linecap="round"/>
<path opacity="0.8" d="M489.148 174.049L478.816 175.291C276.171 199.653 132.906 385.487 160.91 587.662V587.662" stroke="url(#paint12_linear_333_64961)" stroke-width="1.65777" stroke-linecap="round"/>
<path opacity="0.8" d="M489.148 174.049L464.679 176.166C305.838 189.91 174.888 306.354 142.675 462.5V462.5" stroke="url(#paint13_linear_333_64961)" stroke-width="1.65777" stroke-linecap="round"/>
<circle cx="319.227" cy="401.163" r="11.6044" fill="white"/>
<circle cx="489.148" cy="174.878" r="11.6044" fill="white"/>
<circle cx="464.282" cy="372.153" r="6.63107" fill="white"/>
<circle cx="376.42" cy="312.473" r="6.63107" fill="white"/>
<circle cx="228.05" cy="494.826" r="6.63107" fill="white"/>
<circle cx="142.675" cy="462.5" r="6.63107" fill="white"/>
<circle cx="221.419" cy="391.217" r="6.63107" fill="white"/>
<circle cx="160.91" cy="587.662" r="6.63107" fill="white"/>
<defs>
<filter id="filter0_d_333_64961" x="0.000976562" y="223.117" width="759.683" height="531.135" filterUnits="userSpaceOnUse" color-interpolation-filters="sRGB">
<feFlood flood-opacity="0" result="BackgroundImageFix"/>
<feColorMatrix in="SourceAlpha" type="matrix" values="0 0 0 0 0 0 0 0 0 0 0 0 0 0 0 0 0 0 127 0" result="hardAlpha"/>
<feOffset dx="20" dy="24"/>
<feGaussianBlur stdDeviation="20"/>
<feComposite in2="hardAlpha" operator="out"/>
<feColorMatrix type="matrix" values="0 0 0 0 0.2125 0 0 0 0 0.5275 0 0 0 0 1 0 0 0 0.24 0"/>
<feBlend mode="normal" in2="BackgroundImageFix" result="effect1_dropShadow_333_64961"/>
<feBlend mode="normal" in="SourceGraphic" in2="effect1_dropShadow_333_64961" result="shape"/>
</filter>
<filter id="filter1_di_333_64961" x="35.0168" y="-32.459" width="674.042" height="822.949" filterUnits="userSpaceOnUse" color-interpolation-filters="sRGB">
<feFlood flood-opacity="0" result="BackgroundImageFix"/>
<feColorMatrix in="SourceAlpha" type="matrix" values="0 0 0 0 0 0 0 0 0 0 0 0 0 0 0 0 0 0 127 0" result="hardAlpha"/>
<feOffset dx="20" dy="24"/>
<feGaussianBlur stdDeviation="30"/>
<feComposite in2="hardAlpha" operator="out"/>
<feColorMatrix type="matrix" values="0 0 0 0 0 0 0 0 0 0.106599 0 0 0 0 1 0 0 0 0.24 0"/>
<feBlend mode="normal" in2="BackgroundImageFix" result="effect1_dropShadow_333_64961"/>
<feBlend mode="normal" in="SourceGraphic" in2="effect1_dropShadow_333_64961" result="shape"/>
<feColorMatrix in="SourceAlpha" type="matrix" values="0 0 0 0 0 0 0 0 0 0 0 0 0 0 0 0 0 0 127 0" result="hardAlpha"/>
<feOffset dy="-16"/>
<feGaussianBlur stdDeviation="40"/>
<feComposite in2="hardAlpha" operator="arithmetic" k2="-1" k3="1"/>
<feColorMatrix type="matrix" values="0 0 0 0 0.202667 0 0 0 0 0.133333 0 0 0 0 1 0 0 0 0.23 0"/>
<feBlend mode="normal" in2="shape" result="effect2_innerShadow_333_64961"/>
</filter>
<filter id="filter2_f_333_64961" x="52.7284" y="79.1289" width="538.8" height="604.281" filterUnits="userSpaceOnUse" color-interpolation-filters="sRGB">
<feFlood flood-opacity="0" result="BackgroundImageFix"/>
<feBlend mode="normal" in="SourceGraphic" in2="BackgroundImageFix" result="shape"/>
<feGaussianBlur stdDeviation="40" result="effect1_foregroundBlur_333_64961"/>
</filter>
<linearGradient id="paint0_linear_333_64961" x1="19.599" y1="239.117" x2="277.309" y2="864.228" gradientUnits="userSpaceOnUse">
<stop stop-color="#4EB6FF"/>
<stop offset="1" stop-color="#86DAFF"/>
</linearGradient>
<linearGradient id="paint1_linear_333_64961" x1="629.063" y1="707.046" x2="-49.5938" y2="553.037" gradientUnits="userSpaceOnUse">
<stop stop-color="#48A0FF"/>
<stop offset="1" stop-color="#000FFD"/>
</linearGradient>
<linearGradient id="paint2_linear_333_64961" x1="376.42" y1="312.473" x2="319.227" y2="401.163" gradientUnits="userSpaceOnUse">
<stop stop-color="white"/>
<stop offset="0.546612" stop-color="white" stop-opacity="0.672033"/>
<stop offset="1" stop-color="white" stop-opacity="0.4"/>
</linearGradient>
<linearGradient id="paint3_linear_333_64961" x1="221.419" y1="391.217" x2="319.227" y2="401.163" gradientUnits="userSpaceOnUse">
<stop stop-color="white"/>
<stop offset="1" stop-color="white" stop-opacity="0.4"/>
</linearGradient>
<linearGradient id="paint4_linear_333_64961" x1="142.675" y1="462.499" x2="319.227" y2="401.162" gradientUnits="userSpaceOnUse">
<stop stop-color="white"/>
<stop offset="1" stop-color="white" stop-opacity="0.4"/>
</linearGradient>
<linearGradient id="paint5_linear_333_64961" x1="228.05" y1="494.826" x2="319.227" y2="401.162" gradientUnits="userSpaceOnUse">
<stop stop-color="white"/>
<stop offset="1" stop-color="white" stop-opacity="0.4"/>
</linearGradient>
<linearGradient id="paint6_linear_333_64961" x1="160.91" y1="605.896" x2="319.227" y2="401.162" gradientUnits="userSpaceOnUse">
<stop stop-color="white"/>
<stop offset="1" stop-color="white" stop-opacity="0.4"/>
</linearGradient>
<linearGradient id="paint7_linear_333_64961" x1="464.282" y1="372.151" x2="319.227" y2="401.162" gradientUnits="userSpaceOnUse">
<stop stop-color="white"/>
<stop offset="1" stop-color="white" stop-opacity="0.4"/>
</linearGradient>
<linearGradient id="paint8_linear_333_64961" x1="464.282" y1="372.152" x2="489.148" y2="174.049" gradientUnits="userSpaceOnUse">
<stop stop-color="white"/>
<stop offset="1" stop-color="white" stop-opacity="0.4"/>
</linearGradient>
<linearGradient id="paint9_linear_333_64961" x1="376.42" y1="312.472" x2="489.148" y2="174.049" gradientUnits="userSpaceOnUse">
<stop stop-color="white"/>
<stop offset="1" stop-color="white" stop-opacity="0.4"/>
</linearGradient>
<linearGradient id="paint10_linear_333_64961" x1="221.419" y1="391.216" x2="489.148" y2="174.049" gradientUnits="userSpaceOnUse">
<stop stop-color="white"/>
<stop offset="1" stop-color="white" stop-opacity="0.4"/>
</linearGradient>
<linearGradient id="paint11_linear_333_64961" x1="228.05" y1="494.827" x2="489.148" y2="174.049" gradientUnits="userSpaceOnUse">
<stop stop-color="white"/>
<stop offset="1" stop-color="white" stop-opacity="0.4"/>
</linearGradient>
<linearGradient id="paint12_linear_333_64961" x1="160.91" y1="605.897" x2="489.148" y2="174.049" gradientUnits="userSpaceOnUse">
<stop stop-color="white"/>
<stop offset="1" stop-color="white" stop-opacity="0.4"/>
</linearGradient>
<linearGradient id="paint13_linear_333_64961" x1="142.675" y1="462.5" x2="489.148" y2="174.049" gradientUnits="userSpaceOnUse">
<stop stop-color="white"/>
<stop offset="1" stop-color="white" stop-opacity="0.4"/>
</linearGradient>
</defs>
</svg>
