<svg width="743" height="750" viewBox="0 0 743 750" fill="none" xmlns="http://www.w3.org/2000/svg">
<g filter="url(#filter0_d_333_64961)">
<path fill-rule="evenodd" clip-rule="evenodd" d="M123.673 328.393C128.676 335.755 123.833 344.036 120.786 347.256C128.575 350.323 137.454 352.243 144.931 353.859L144.931 353.859L144.96 353.865C148.901 354.718 153.203 355.664 155.908 356.49C161.689 358.256 168.637 352.381 174.302 347.59C177.595 344.806 180.455 342.388 182.4 342.05C184.816 341.63 186.63 344.801 189.123 349.161C192.093 354.353 196.027 361.231 203.088 365.732C213.48 372.357 241.387 364.199 254.537 359.291C252.613 358.218 253.829 353.329 266.145 346.336C281.541 337.595 284.621 335.405 283.442 329.922C282.959 326.763 279.55 321.973 275.321 316.03L275.321 316.03L275.321 316.03L275.32 316.029L275.32 316.029C272.097 311.5 268.397 306.301 265.153 300.643C258.429 288.919 254.306 290.252 250.112 291.609C249.204 291.903 248.293 292.198 247.351 292.362C242.059 293.282 223.776 295.195 217.522 270.351C215.512 262.367 212.558 254.44 209.362 249.962C205.542 244.609 199.48 242.117 195.189 240.352C193.69 239.736 192.407 239.209 191.511 238.679C189.655 237.158 187.215 238.989 184.513 241.017C182.311 242.67 179.934 244.454 177.558 244.66C174.899 244.891 173.94 246.633 172.729 248.834C171.529 251.013 170.083 253.642 166.492 255.702C164.248 256.99 161.864 258.01 159.587 258.985L159.586 258.986C154.541 261.146 150.017 263.083 148.691 267.204C147.514 270.863 145.256 272.627 141.918 275.237C139.8 276.893 137.246 278.889 134.257 281.926C129.672 286.585 131.062 290.591 132.63 295.111C133.694 298.179 134.841 301.484 134.257 305.39C133.649 309.463 130.56 312.555 127.66 315.459C123.68 319.442 120.055 323.071 123.673 328.393ZM468.617 423.478C484.555 419.633 493.248 414.827 497.595 409.06C500.69 404.952 510.4 400.601 516.779 397.743C519.358 396.587 521.392 395.676 522.226 395.122C524.544 393.584 528.022 389.996 529.471 388.394C530.115 389.035 531.789 390.412 533.334 390.797C535.266 391.277 541.545 388.874 546.374 381.665C550.801 375.058 554.416 377.333 563.914 383.309C564.779 383.853 565.692 384.428 566.659 385.03C577.051 391.493 579.291 390.616 583.471 388.98L583.473 388.98L583.476 388.978L583.483 388.976C583.962 388.788 584.466 388.591 585.012 388.394C588.197 387.241 589.299 389.198 591.335 392.814C592.696 395.229 594.474 398.386 597.569 401.851C605.296 410.501 606.745 411.943 611.575 416.269C614.119 418.547 614.921 422.292 615.886 426.801C616.754 430.853 617.754 435.522 620.268 440.299C625.581 450.391 632.825 455.678 640.07 459.523C643.496 461.341 645.625 465.308 647.736 469.24C650.089 473.622 652.417 477.961 656.491 479.227C664.218 481.63 682.088 483.553 684.986 473.46C687.884 463.367 689.816 467.693 691.747 473.46C693.245 477.931 695.904 481.536 697.923 484.274L697.924 484.275C698.509 485.068 699.041 485.788 699.475 486.436C700.37 487.773 698.257 488.903 695.636 490.304C692.601 491.927 688.885 493.915 688.367 497.009C687.846 500.118 688.448 505.459 688.962 510.025C689.402 513.931 689.778 517.27 689.333 518.156C688.85 519.117 688.608 518.997 687.28 518.336C685.952 517.675 683.537 516.474 678.707 515.272C673.445 513.963 667.609 515.364 662.138 516.678C657.565 517.776 653.247 518.812 649.729 518.156C642.441 516.796 641.168 517.574 633.753 522.102C633.306 522.375 632.837 522.661 632.343 522.962C631.383 523.545 630.571 524.047 629.878 524.475C627.076 526.204 626.22 526.732 625.468 526.614C625.137 526.561 624.827 526.384 624.379 526.129L624.379 526.128C623.814 525.806 623.032 525.36 621.717 524.884C619.501 524.082 615.436 523.029 611.344 521.97L611.344 521.97C605.628 520.49 599.862 518.996 599.018 518.156C598.525 517.666 598.758 516.843 599.091 515.668C599.736 513.385 600.757 509.775 597.569 504.699C592.739 497.01 581.148 500.854 572.455 504.699C563.761 508.544 550.721 509.505 546.374 500.374C544.967 497.418 544.066 494.009 543.196 490.717C543.03 490.085 542.864 489.458 542.696 488.839C541.035 482.719 539.157 477.415 533.817 476.824C530.061 476.409 527.026 477.699 525.18 478.483C522.754 479.514 522.381 479.672 525.124 473.941C527.836 468.274 522.173 465.94 513.864 462.516C507.375 459.842 499.271 456.503 492.282 450.391C487.35 446.078 483.1 442.133 479.399 438.697C471.14 431.03 465.619 425.905 461.372 424.913C463.144 424.694 465.477 424.235 468.617 423.478ZM467.436 538.953L467.399 538.861L467.328 538.689C465.658 534.633 464.112 530.879 463.79 527.506C463.623 525.751 463.776 524.036 464.434 522.386C465.006 520.951 465.932 519.637 467.24 518.42C466.951 517.161 465.821 514.523 462.409 511.73C459.538 509.381 458.017 507.348 457.038 505.249C456.558 504.22 456.224 503.209 455.922 502.209C455.824 501.885 455.732 501.569 455.639 501.252C455.438 500.564 455.238 499.879 454.988 499.131C454.734 498.366 454.362 497.906 453.623 497.322C453.244 497.022 452.798 496.712 452.222 496.312L452.123 496.244C451.512 495.82 450.794 495.318 449.973 494.691C446.663 492.159 441.845 487.694 434.826 477.664C428.717 468.937 425.999 462.826 424.219 458.824L424.219 458.824L424.219 458.823L424.218 458.823C423.947 458.212 423.697 457.65 423.46 457.135C422.545 455.147 421.944 454.163 421.24 453.617C420.627 453.142 419.729 452.856 417.763 452.972C413.214 453.24 409.964 451.626 408.988 448.446C408.08 445.489 409.444 441.975 412.076 439.064C413.211 437.809 413.825 436.744 414.133 435.811C414.436 434.892 414.468 434.021 414.318 433.104C414.163 432.159 413.817 431.169 413.345 430.011C413.201 429.657 413.042 429.281 412.876 428.886L412.875 428.885L412.874 428.882C412.675 428.411 412.466 427.915 412.259 427.403C411.74 427.384 411.213 427.25 410.699 427.058C408.47 426.222 407.243 424.702 406.24 423.459L406.239 423.459C406.149 423.347 406.06 423.237 405.973 423.13C404.918 421.841 403.911 420.754 401.857 420.137C396.573 418.552 388.261 412.14 382.661 400.727L382.657 400.728C380.72 401.449 377.421 402.676 374.001 404.291C371.805 405.328 369.617 406.5 367.784 407.758C365.924 409.033 364.556 410.31 363.853 411.516C363.096 412.814 362.578 414.413 362.148 416.282C361.861 417.532 361.629 418.823 361.384 420.185C361.259 420.884 361.13 421.602 360.988 422.342C360.177 426.588 359.007 431.278 355.753 435.074C353.064 438.212 351.888 442.432 351.83 446.664C351.771 450.904 352.838 454.974 354.42 457.686C356.098 460.564 357.596 461.908 358.99 462.357C360.323 462.787 361.965 462.523 364.282 461.132C365.556 460.368 366.714 459.811 367.768 459.63C368.941 459.428 370.025 459.693 370.881 460.549C371.615 461.283 372.058 462.342 372.402 463.424C372.758 464.542 373.083 465.942 373.451 467.537C374.195 470.76 375.256 475.678 374.528 480.635C373.86 485.188 371.684 489.754 366.566 493.102C372.918 498.44 375.452 506.843 376.944 515.795C377.593 519.691 380.519 522.581 384.018 525.954L384.153 526.084C387.467 529.277 391.235 532.908 392.323 538.079C392.671 539.729 392.857 541.354 392.951 542.924C416.287 536.913 440.452 537.452 454.231 540.405C455.814 540.745 457.275 541.071 458.61 541.369L458.626 541.373L458.636 541.375L458.638 541.375C461.261 541.962 463.362 542.431 465.022 542.699C466.744 542.977 467.726 542.988 468.234 542.849C468.337 542.82 468.39 542.794 468.412 542.78C468.423 542.75 468.445 542.674 468.449 542.522C468.465 541.917 468.204 540.818 467.436 538.953ZM468.408 542.79C468.407 542.792 468.406 542.794 468.405 542.795L468.406 542.793L468.408 542.79ZM468.421 542.774C468.424 542.771 468.426 542.769 468.426 542.769C468.427 542.769 468.425 542.77 468.421 542.774ZM233.558 533.088C235.834 530.686 238.499 527.873 243.914 526.314C247.973 525.145 250 524.284 252.577 523.189C252.852 523.073 253.133 522.953 253.423 522.831C253.428 522.828 253.433 522.826 253.438 522.824C253.925 522.635 254.87 523.842 254.87 530.201C254.87 534.344 253.972 535.635 253.036 536.98C252.157 538.244 251.246 539.555 251.012 543.319C250.7 548.353 255.846 548.497 260.691 548.633C263.328 548.707 265.876 548.779 267.406 549.635C269.577 550.851 269.093 554.378 268.55 558.329C268.008 562.274 267.408 566.642 269.335 569.555C270.167 570.813 271.335 571.55 272.71 571.958C266.679 572.237 263.358 575.016 260.187 577.67L260.054 577.781C257.441 579.967 254.906 582.088 251.012 582.742C250.237 582.872 249.388 583.006 248.486 583.148L248.476 583.15L248.465 583.152L248.46 583.152L248.229 583.189C239.02 584.643 224.54 586.929 224.975 594.82C225.139 597.799 225.639 601.794 226.151 605.882L226.151 605.882L226.151 605.883C226.338 607.371 226.537 608.816 226.729 610.211L226.729 610.212L226.729 610.212C227.559 616.231 228.259 621.307 227.221 624.79C225.941 629.081 213.5 636 213.5 636C213.5 636 203.495 626.84 201.111 624.79C198.727 622.741 195.913 619.951 194.116 618.141C190.654 614.652 190.869 610.867 191.106 606.704C191.297 603.33 191.503 599.707 189.776 595.791C185.919 587.046 175.793 572.956 170.972 570.527C168.804 569.435 167.124 568.735 165.668 568.561C166.439 561.159 159.237 552.859 155.54 549.635C162.713 548.143 168.252 543.944 171.454 538.46C173.416 535.1 173.941 532.463 174.328 530.517C174.893 527.681 175.165 526.314 179.169 526.314C184.569 526.314 197.17 518.909 202.795 515.207C206.072 524.102 210.698 532.63 218.097 535.567C227.627 539.35 230.159 536.676 233.558 533.088ZM419.789 420.063C422.755 418.694 427.987 417.715 433.348 417.593C438.751 417.47 443.842 418.23 446.684 419.979C448.336 420.996 449.012 421.865 449.717 422.769C450.03 423.17 450.348 423.578 450.759 424.01C451.437 424.72 452.266 425.305 453.514 425.602C454.63 425.867 456.005 425.884 457.792 425.679C459.048 426.023 460.54 426.81 462.358 428.097C464.28 429.457 466.466 431.304 469.008 433.592C470.908 435.302 473.019 437.272 475.354 439.451L475.355 439.451L475.359 439.455L475.359 439.455L475.36 439.456C479.187 443.026 483.612 447.154 488.682 451.611C496.066 458.101 504.638 461.648 511.298 464.404C512.228 464.789 513.122 465.158 513.969 465.519C517.524 467.029 520.084 468.296 521.499 469.704C522.167 470.368 522.499 470.991 522.603 471.618C522.708 472.251 522.61 473.072 522.081 474.183C521.46 475.489 520.981 476.525 520.644 477.33C520.325 478.092 520.071 478.787 519.995 479.35C519.959 479.619 519.926 480.093 520.152 480.571C520.439 481.18 520.983 481.481 521.486 481.559C521.892 481.623 522.262 481.545 522.484 481.488C522.734 481.424 522.99 481.331 523.226 481.238C523.497 481.132 523.791 481.007 524.108 480.873C526.02 480.062 528.758 478.902 532.198 479.284C534.373 479.526 535.868 480.694 537.077 482.651C538.329 484.677 539.193 487.425 540.049 490.595L540.049 490.597C540.05 490.621 540.061 490.842 539.792 491.292C539.478 491.817 538.836 492.551 537.632 493.414C535.221 495.144 530.784 497.238 523.059 499.202C514.176 501.461 509.643 501.951 506.854 502.252L506.695 502.269C505.157 502.435 503.928 502.568 502.772 503.007C501.535 503.478 500.475 504.255 499.095 505.497C498.109 506.385 496.206 507.314 493.565 508.285C490.977 509.237 487.898 510.155 484.713 511.104L484.684 511.113L484.684 511.113C481.428 512.084 478.066 513.086 475.139 514.164C473.169 514.89 471.311 515.679 469.781 516.561C469.031 514.552 467.385 511.953 464.295 509.424C461.705 507.305 460.495 505.613 459.737 503.988C459.347 503.154 459.061 502.304 458.773 501.349C458.691 501.076 458.607 500.789 458.52 500.492L458.516 500.478L458.516 500.477C458.308 499.765 458.081 498.99 457.814 498.188C457.324 496.719 456.517 495.813 455.471 494.985C455.015 494.624 454.494 494.263 453.949 493.885L453.948 493.884L453.948 493.884L453.82 493.796C453.215 493.376 452.545 492.907 451.782 492.324C448.762 490.014 444.147 485.789 437.265 475.956C431.326 467.47 428.709 461.588 426.937 457.607L426.937 457.606C426.663 456.989 426.408 456.418 426.165 455.89C425.28 453.967 424.423 452.314 423.063 451.261C421.613 450.138 419.842 449.865 417.588 449.998C413.697 450.226 412.231 448.861 411.835 447.571C411.371 446.059 411.979 443.614 414.285 441.063C415.62 439.586 416.492 438.169 416.962 436.743C417.436 435.303 417.473 433.94 417.257 432.622C417.046 431.333 416.592 430.088 416.103 428.887C415.931 428.463 415.756 428.05 415.582 427.638L415.582 427.637C415.349 427.085 415.116 426.534 414.887 425.955C415.082 425.652 415.227 425.348 415.342 425.1C415.435 424.899 415.517 424.711 415.597 424.528L415.599 424.524L415.599 424.523C415.766 424.143 415.923 423.783 416.146 423.369C416.737 422.272 417.678 421.037 419.789 420.063ZM521.702 478.611C521.702 478.611 521.707 478.61 521.717 478.609C521.706 478.611 521.702 478.612 521.702 478.611ZM522.948 479.745C522.947 479.767 522.944 479.77 522.947 479.748L522.948 479.745ZM249.972 584.465L249.969 584.465L249.964 584.466L249.962 584.466L249.957 584.467L249.951 584.468L249.944 584.469C245.176 585.217 239.174 586.164 234.42 587.9C232.041 588.769 230.102 589.792 228.804 590.989C227.546 592.151 226.943 593.416 227.025 594.908C227.191 597.89 227.698 601.913 228.227 606.111L228.231 606.143C228.738 610.162 229.263 614.327 229.496 617.735C229.613 619.442 229.659 621.005 229.586 622.29C229.549 622.933 229.48 623.538 229.364 624.074C229.252 624.593 229.075 625.145 228.763 625.612C227.5 629 221.487 634.279 214.5 637.5C215.075 638.389 215.553 639.74 215.901 640.722L215.944 640.842L216 641C216.714 643 216.672 644.273 216 646C215.414 647.505 214.62 648.333 213.647 649.347L213.5 649.5C213.412 649.593 213.32 649.688 213.225 649.787C212.022 651.039 210.372 652.755 209.5 654.5C208.817 655.866 209.554 658.26 212 661C213.47 662.646 215.733 664.28 218.358 666.175C219.991 667.355 221.765 668.635 223.575 670.083L223.582 670.089L223.583 670.089L223.583 670.09C226.384 672.33 229.467 674.796 232.663 677.525C233.176 677.673 233.661 677.964 234.092 678.311C234.716 678.815 235.363 679.544 236.009 680.529C237.198 682.337 238.458 685.115 239.599 689.253H271.857C273.105 688.109 274.119 687.005 274.862 686.025C275.715 684.9 276.112 684.065 276.208 683.586C276.455 682.352 277.315 681.593 278.277 681.179C279.184 680.788 280.285 680.647 281.391 680.611C283.589 680.541 286.41 680.882 289.173 681.216L289.173 681.216H289.173H289.174L289.269 681.227C292.109 681.571 294.928 681.909 297.31 681.899C298.496 681.894 299.509 681.802 300.32 681.606C301.14 681.408 301.644 681.13 301.936 680.838C306.205 676.569 309.775 669.673 307.526 662.473C304.89 654.038 307.456 644.103 314.585 639.43C315.974 638.519 316.485 637.415 316.596 636.002C316.717 634.445 316.346 632.601 315.867 630.298L315.842 630.176C315.141 626.805 314.279 622.664 315.456 618.428C316.676 614.033 317.849 610.279 320.324 607.784C322.428 605.662 325.288 604.602 329.326 604.418C328.591 603.276 327.902 602.071 327.228 600.894L327.19 600.827C325.764 598.335 324.389 595.944 322.691 594.049C321.024 592.188 319.119 590.892 316.659 590.503C312.643 589.869 308.766 591.33 305.102 592.742L304.969 592.793C303.077 593.523 301.129 594.274 299.41 594.47C298.499 594.574 297.553 594.538 296.648 594.206C295.72 593.865 294.939 593.25 294.322 592.369C293.306 590.917 292.948 589.116 292.84 587.369C292.731 585.63 292.862 583.741 292.983 581.995L292.986 581.941C293.14 579.723 293.267 577.769 293.032 576.202C292.802 574.672 292.288 573.885 291.45 573.504C290.616 573.125 289.499 572.955 288.087 572.946C286.682 572.937 285.132 573.084 283.464 573.244L283.288 573.261C280.464 573.532 277.223 573.844 274.523 573.125C268.904 573.447 265.846 575.965 262.61 578.652L262.525 578.723C259.879 580.92 257 583.311 252.593 584.046C251.796 584.178 250.926 584.315 250.012 584.459L250.004 584.46L250 584.46L249.998 584.461L249.987 584.462L249.983 584.463L249.982 584.463L249.981 584.463L249.978 584.464L249.972 584.465ZM293.036 495.322C294.253 494.279 294.977 492.499 295.532 490.88C295.779 490.159 296.016 489.391 296.25 488.633L296.379 488.216C296.658 487.313 296.939 486.426 297.25 485.581C297.886 483.856 298.584 482.493 299.459 481.642C300.241 480.881 301.212 480.476 302.715 480.758C305.839 481.344 307.596 482.922 309.969 485.053L309.97 485.054C310.243 485.299 310.523 485.55 310.814 485.809C313.656 488.328 317.225 491.098 324.004 492.663C330.492 494.161 335.277 494.828 339.496 494.433C343.77 494.032 347.344 492.553 351.441 489.992C353.162 488.917 354.408 488.441 355.351 488.304C356.238 488.175 356.92 488.336 357.581 488.702C358.3 489.101 359.019 489.755 359.921 490.696C360.18 490.966 360.458 491.264 360.752 491.58L360.752 491.581C361.426 492.304 362.189 493.123 363.025 493.927C363.508 494.392 364.028 494.865 364.593 495.335C370.107 499.931 372.525 507.392 374.007 516.285C374.833 521.241 378.496 524.77 381.781 527.935L381.952 528.1C385.433 531.455 388.527 534.499 389.41 538.693C389.847 540.772 390.008 542.845 390.046 544.87C390.076 546.435 390.032 547.953 389.989 549.428L389.986 549.524V549.525V549.525V549.525V549.525V549.526V549.526V549.526C389.918 551.851 389.851 554.144 390.153 556.115C390.465 558.148 391.202 560.066 392.932 561.412C394.029 562.266 394.595 562.847 394.843 563.241C394.911 563.35 394.939 563.418 394.949 563.451C394.868 563.603 394.567 563.939 393.686 564.489C392.848 565.012 391.701 565.602 390.201 566.352C389.32 566.793 388.603 567.262 388.111 567.803C387.582 568.384 387.244 569.137 387.384 569.995C387.506 570.75 387.961 571.3 388.295 571.639C388.63 571.978 389.033 572.286 389.339 572.52L389.374 572.547C389.597 572.718 389.776 572.855 389.924 572.982C389.155 573.519 388.344 573.904 387.382 574.357L387.341 574.376C385.989 575.011 384.413 575.752 382.815 577.176C381.196 578.618 379.626 580.691 378.1 583.934C376.212 587.947 373.621 591.003 371.171 593.045C369.946 594.066 368.774 594.818 367.765 595.309C366.727 595.814 365.97 595.989 365.546 595.989C364.605 595.989 363.902 596.483 363.434 597.011C362.981 597.521 362.65 598.166 362.393 598.786C361.889 600.007 361.509 601.564 361.177 602.922L361.16 602.993C360.829 604.345 360.551 605.463 360.247 606.204C359.777 605.845 359.152 605.323 358.369 604.668L358.321 604.627C356.559 603.151 354.208 601.181 351.942 599.87C350.801 599.21 349.576 598.654 348.38 598.449C347.154 598.24 345.817 598.385 344.718 599.327C343.516 600.358 342.516 601.925 341.659 603.268L341.587 603.381C341.039 604.238 340.53 605.033 339.998 605.726C339.464 606.422 338.969 606.932 338.489 607.252C338.035 607.555 337.621 607.674 337.182 607.641C336.718 607.606 336.06 607.389 335.162 606.715C334.549 606.256 333.962 605.672 333.384 604.972C332.121 603.443 331.004 601.499 329.776 599.353L329.736 599.283C328.354 596.868 326.838 594.218 324.91 592.067C322.934 589.86 320.452 588.091 317.124 587.566C312.254 586.797 307.686 588.558 304.161 589.917L304.031 589.968C301.968 590.763 300.369 591.367 299.072 591.516C298.455 591.586 298.009 591.537 297.675 591.415C297.364 591.3 297.059 591.09 296.763 590.666C296.21 589.876 295.909 588.725 295.813 587.19C295.718 585.664 295.834 583.96 295.959 582.152L295.966 582.046C296.11 579.958 296.267 577.69 295.978 575.766C295.679 573.772 294.841 571.779 292.683 570.797C291.29 570.164 289.685 569.982 288.106 569.972C286.535 569.962 284.843 570.124 283.224 570.279L283.224 570.279L283.224 570.279L283.18 570.284C280.041 570.585 277.247 570.831 275.111 570.201C273.96 569.862 273.08 569.287 272.454 568.348C271.69 567.202 271.368 565.674 271.347 563.811C271.325 561.948 271.601 559.936 271.883 557.895L271.896 557.801L271.896 557.801C272.165 555.86 272.446 553.83 272.353 552.124C272.259 550.398 271.753 548.513 269.952 547.512C268.501 546.706 266.533 546.488 264.718 546.388C263.87 546.341 263.064 546.32 262.273 546.299H262.273L262.272 546.298H262.272H262.271H262.271H262.271H262.271C261.189 546.269 260.137 546.241 259.051 546.151C257.221 545.998 255.837 545.689 254.958 545.12C254.55 544.856 254.271 544.548 254.092 544.173C253.909 543.791 253.785 543.247 253.835 542.452C253.952 540.579 254.239 539.425 254.561 538.621C254.866 537.859 255.223 537.349 255.666 536.715L255.742 536.608C256.228 535.912 256.782 535.091 257.185 533.855C257.583 532.639 257.81 531.104 257.81 528.951C257.81 525.658 257.567 523.564 257.206 522.272C257.194 522.229 257.182 522.187 257.17 522.145L257.154 522.094C257.145 522.064 257.136 522.034 257.126 522.004C259.677 520.723 261.885 519.06 263.909 516.579C266.34 513.599 268.449 509.507 270.625 503.648C273.06 497.092 275.057 491.987 276.861 487.961C279.42 489.719 281.358 491.287 283.003 492.616L283.004 492.617C283.973 493.4 284.84 494.101 285.671 494.71C286.831 495.56 288.02 496.296 289.269 496.506C290.67 496.742 291.909 496.289 293.036 495.322ZM43.5 526C43.6265 525.597 43.6571 525.113 43.6835 524.695C43.6908 524.58 43.6977 524.471 43.7062 524.369C47.7284 527.35 51.2583 530.011 54.4265 532.399L54.5049 532.458C63.2054 539.016 69.2357 543.561 75.1873 546.963C81.2029 550.402 87.1131 552.661 95.6031 554.732C104.621 556.932 110.124 560.5 113.766 564.33C117.431 568.183 119.302 572.386 120.948 576.104L120.951 576.111L120.952 576.114L120.953 576.115C121.276 576.845 121.594 577.563 121.913 578.247C124.545 583.889 129.313 589.232 131.955 591.789C131.644 592.964 131.715 594.225 132.328 595.603C132.795 596.654 132.937 597.313 132.929 597.712C132.923 598.003 132.847 598.138 132.65 598.291C132.364 598.513 131.796 598.767 130.736 598.985C129.702 599.198 128.353 599.348 126.632 599.47C124.733 599.606 123.174 600.057 121.983 600.878C120.757 601.724 120.035 602.884 119.708 604.195C119.09 606.665 119.878 609.663 120.87 612.39C121.852 615.091 122.749 618.322 122.583 621.039C122.501 622.373 122.168 623.488 121.549 624.35C120.945 625.19 119.984 625.912 118.41 626.332C116.134 626.939 114.613 627.85 113.527 629.127C112.519 630.313 111.984 631.72 111.488 633.024L111.447 633.131C110.623 635.295 109.685 637.755 106.818 640.622C105.798 641.643 104.809 642.61 103.848 643.551L103.77 643.627L103.769 643.628C103.083 644.299 102.411 644.956 101.755 645.608C97.1555 650.168 93.3008 654.428 90.607 660.972C87.4607 668.614 81.3083 673.675 73.2922 675.737C70.3902 671.033 70.3733 666.156 70.3857 661.108L70.3862 660.924C70.4011 655.115 70.4169 648.92 64.6494 644.017C59.7988 639.893 56.7053 635.94 54.949 632.602C53.167 629.216 52.8445 626.632 53.2141 625.153C53.3321 624.682 53.6832 623.999 54.3374 623.044C54.9748 622.115 55.8005 621.066 56.7504 619.86L56.8447 619.741C59.9253 615.831 64.1639 610.452 65.1559 604.168C66.0418 598.557 62.1668 594.1 57.8168 591.156C53.4121 588.176 47.9547 586.334 44.4362 586.063C41.2916 585.822 37.5853 585.101 34.8945 583.531C33.5669 582.756 32.5567 581.816 31.9463 580.692C31.3478 579.591 31.0707 578.2 31.3907 576.386C32.2051 571.771 30.9772 565.88 28.8982 560.335C26.8034 554.748 23.7518 549.267 20.6608 545.402C20.2007 544.827 20.0287 544.314 20.0041 543.851C19.9788 543.373 20.1047 542.824 20.4427 542.184C21.142 540.859 22.6114 539.407 24.6294 537.922C28.6309 534.978 34.1398 532.365 37.6786 530.69L37.7608 530.651L37.7618 530.65C38.974 530.077 40.0063 529.588 40.5925 529.253C42.1791 528.346 43.1022 527.267 43.5 526ZM112.329 472.856L112.331 472.725C112.336 472.42 112.34 472.129 112.34 471.845C112.34 468.356 110.175 462.943 96.1671 455.795C93.2832 458.577 89.4821 459.833 85.9828 459.762C82.1854 459.684 78.4398 458.014 76.7507 454.635C75.8119 452.757 75.2041 452.682 75.0484 452.675C74.8855 452.667 74.6304 452.711 74.2141 452.9C73.7922 453.092 73.3359 453.368 72.753 453.724L72.628 453.801C71.2332 454.656 69.2095 455.895 66.7132 455.591C63.6194 458.865 58.1344 462.192 52.4245 464.99C46.2725 468.003 39.6012 470.525 34.7715 471.796C33.9197 472.02 33.5143 472.231 33.3429 472.353C33.4387 472.602 33.6984 473.016 34.2468 473.659C34.8063 474.314 35.5403 475.066 36.427 475.974L36.482 476.031C40.4754 480.119 46.8909 486.686 48.2805 496.971C49.3965 505.231 48.7566 510.942 47.5827 514.88C46.6289 518.08 45.3386 520.052 44.4499 521.212C48.9145 524.512 52.7846 527.429 56.2195 530.018C65.0143 536.647 70.896 541.077 76.6657 544.375C82.3891 547.647 88.0268 549.816 96.3093 551.837C105.811 554.155 111.842 557.982 115.925 562.275C119.966 566.524 122.012 571.146 123.649 574.844L123.672 574.897C123.999 575.636 124.307 576.33 124.613 576.986C126.847 581.776 130.848 586.448 133.405 589.031C133.895 588.382 134.446 587.76 134.978 587.16L135.065 587.062C136.385 585.573 137.767 584.005 138.811 581.916C140.309 578.919 142.273 575.595 144.48 573.595C145.586 572.593 146.917 571.771 148.42 571.669C150.013 571.56 151.458 572.277 152.676 573.647C153.311 574.362 153.735 574.629 153.963 574.717C154.113 574.775 154.154 574.756 154.222 574.721C154.369 574.647 154.609 574.451 154.955 574.005C155.293 573.57 155.634 573.028 156.044 572.374L156.083 572.312C156.705 571.32 157.474 570.093 158.453 569.114C159.366 568.201 160.311 567.506 161.359 567.084C161.911 566.862 162.468 566.726 163.034 566.664C162.934 563.747 161.604 560.614 159.729 557.69C157.788 554.663 155.384 552.048 153.602 550.417C149.86 551.091 145.75 551.092 141.361 550.28C133.716 548.863 130.27 542.067 129.056 535.04C127.834 527.961 128.727 520.023 130.283 515.095C131.703 510.598 132.431 503.38 131.472 497.085C130.993 493.942 130.11 491.139 128.772 489.041C127.452 486.973 125.728 485.635 123.493 485.229C118.254 484.276 115.268 482.485 113.717 480.019C112.247 477.68 112.292 475.029 112.326 473L112.329 472.856ZM117.629 349.307C108.455 358.36 98.3153 356.93 86.7274 353.119C79.4157 350.714 77.102 341.29 75.2984 333.943C74.2436 329.647 73.3633 326.062 71.7597 325.007C69.4397 323.48 67.8079 325.757 65.3212 329.225C63.1501 332.254 60.3274 336.192 55.8263 339.301C55.2126 339.725 54.521 340.195 53.7673 340.707C42.6612 348.255 18.0897 364.956 31.202 377.895C37.1158 383.731 41.4793 385.403 45.7476 387.037C51.5852 389.273 57.2447 391.441 66.4485 404.102C82.3819 426.02 80.9334 431.261 73.691 438.408C72.52 439.564 71.3996 440.632 70.3663 441.617C65.0088 446.725 61.9961 449.598 66.4485 450.796C68.6885 451.399 70.4991 450.307 72.0976 449.343C74.2892 448.021 76.0821 446.939 78.0364 450.796C80.69 456.034 90.1886 456.572 95.3167 450.796C96.7203 449.216 97.7965 447.162 98.3153 444.602C99.9387 436.592 103.745 437.416 107.533 438.235C109.378 438.634 111.219 439.032 112.8 438.408C115.383 437.388 115.617 432.824 115.794 429.382C115.947 426.39 116.057 424.247 117.629 426.02C121.008 429.831 135.01 439.837 144.667 426.02C147.39 422.124 149.383 419.061 150.777 416.49C154.327 409.942 153.99 406.583 151.909 400.766C149.655 394.463 152.664 391.045 155.702 387.593C156.568 386.609 157.437 385.623 158.186 384.566C161.566 379.801 161.083 365.984 158.186 361.695C157.457 360.615 155.563 359.716 152.875 358.869C150.155 358.012 146.621 357.208 142.658 356.323L141.86 356.145L141.859 356.145L141.859 356.145C134.355 354.471 125.445 352.483 117.629 349.307Z" fill="url(#paint0_linear_333_64961)"/>
</g>
<g filter="url(#filter1_di_333_64961)">
<path fill-rule="evenodd" clip-rule="evenodd" d="M514.596 20.4614C465.027 0.817913 453.348 2.31125 451.178 2.75664C449.008 3.20203 452.119 10.6952 464.56 15.4267C477 20.1583 480.107 26.2407 475.743 26.7409C474.577 26.8747 472.746 27.4352 470.762 28.0427C465.324 29.7078 458.735 31.7255 461.516 26.2726C465.311 18.8302 458.381 18.3889 457.293 23.8638C456.815 26.2734 455.56 28.1532 454.414 29.8703C452.956 32.0548 451.674 33.9761 452.388 36.3905C453.663 40.7029 453.376 45.1102 450.889 48.1616C448.403 51.213 447.346 53.237 456.069 62.741C464.791 72.245 461.69 79.4884 456.049 80.9285C451.885 81.9916 452.907 84.0209 453.986 86.1616C454.368 86.921 454.758 87.6945 454.926 88.4437C455.566 91.3053 452.139 98.3333 447.978 89.0226C445.7 83.9269 445.071 77.698 444.517 72.2048C444.058 67.6609 443.65 63.6204 442.402 61.1411C440.659 57.679 436.891 58.1304 433.657 58.518C431.775 58.7434 430.073 58.9473 429.056 58.3458C428.67 58.1176 428.25 57.8976 427.809 57.667C425.092 56.2457 421.608 54.4226 420.743 47.798C419.737 40.0985 416.656 41.0695 412.537 43.0443C411.888 43.3555 411.322 43.6538 410.825 43.9156C408.169 45.3154 407.495 45.6709 406.71 41.3601C406.074 37.8633 407.962 36.7756 409.78 35.728C410.622 35.2426 411.45 34.7658 412.004 34.0619C413.318 32.3947 410.24 32.5817 407.656 32.7386C406.795 32.7909 405.989 32.8399 405.419 32.8157C404.013 32.7561 401.233 34.1807 398.159 35.7559C396.248 36.7354 394.223 37.7731 392.344 38.5485C388.985 39.9344 388.404 42.1824 387.864 44.2729C387.616 45.2329 387.376 46.1596 386.88 46.9545C385.304 49.4803 379.763 48.6411 378.749 44.7832C378.022 42.0157 371.339 42.2724 365.958 42.479C363.838 42.5604 361.921 42.6341 360.649 42.5119C356.152 42.0796 352.861 44.788 354.715 46.9486C355.164 47.4717 356.03 48.0612 357.025 48.7382C360.141 50.8577 364.515 53.834 361.272 58.3087C360.307 59.641 359.408 60.7497 358.636 61.7023C355.986 64.9711 354.825 66.4022 357.575 68.7239C359.417 70.2793 359.46 73.5262 359.504 76.8888C359.545 80.0081 359.587 83.2268 361.068 85.2871C362.92 87.8626 362.868 88.0288 362.515 89.1702C362.281 89.926 361.914 91.1096 361.881 93.7037C361.796 100.215 364.579 112.745 369.93 120.965C375.282 129.184 390.628 144.557 400.855 143.7C411.081 142.844 414.632 145.842 416.887 150.801C419.143 155.759 433.941 157.917 440.395 152.979C444.929 149.509 444.725 151.666 444.462 154.437C444.351 155.61 444.229 156.893 444.453 157.906C444.811 159.529 446.481 159.521 448.234 159.513C450.157 159.505 452.18 159.496 452.676 161.639C453.175 163.792 451.379 168.161 449.404 172.97C447.618 177.314 445.686 182.017 445.164 185.769C444.473 190.736 445.34 190.658 449.313 190.3C451.664 190.088 455.102 189.778 459.949 190.358C472.004 191.801 474.126 208.993 475.986 224.058C476.138 225.286 476.288 226.499 476.441 227.689C478.476 243.478 485.126 256.401 491.729 256.627C494.796 256.732 495.717 258.032 496.86 259.646C498.178 261.507 499.792 263.786 505.335 265.129C515.682 267.636 539.824 259.349 546.579 247.572C553.21 236.011 568.862 229.945 578.502 226.21L579.033 226.004C583.969 224.089 586.365 220.375 588.405 217.212C590.327 214.233 591.934 211.742 595.052 211.704C597.95 211.67 599.976 213.615 602.098 215.65C604.683 218.132 607.409 220.748 612.024 220.08C612.798 219.968 613.587 219.859 614.382 219.749C622.207 218.669 630.485 217.527 628.851 212.787C628.081 210.554 626.331 209.958 624.906 209.472C622.998 208.821 621.67 208.369 624.042 204.456C627.177 199.285 626.175 197.774 623.561 193.831C622.719 192.562 621.71 191.041 620.619 189.065C618.238 184.755 615.188 183.337 612.337 182.013C609.82 180.843 607.458 179.745 605.848 176.792C604.458 174.243 603.661 171.053 602.836 167.756C601.623 162.908 600.352 157.827 597.056 154.202C591.517 148.11 585.042 147.406 584.013 151.231C582.985 155.056 584.243 160.389 589.319 158.669C594.394 156.95 587.218 172.202 582.397 166.302C579.566 162.838 578.714 159.902 578.073 157.698C577.623 156.147 577.278 154.958 576.423 154.201C575.616 153.486 574.002 153.82 571.832 154.27C568.432 154.974 563.668 155.961 558.503 153.643C550.04 149.846 529.035 148.848 523.049 151.093C517.063 153.338 499.218 155.363 503.149 143.601C507.08 131.839 500.806 126.576 495.071 126.454C493.006 126.41 490.228 127.59 487.33 128.82C482.184 131.006 476.658 133.353 474.058 129.298C473.378 128.237 472.73 127.379 472.176 126.645C469.419 122.994 468.991 122.428 478.568 115.385C490.069 106.925 499.989 87.6661 502.267 81.0998C503.374 77.9091 505.92 77.1297 508.803 76.2473C511.853 75.3138 515.28 74.265 517.777 70.1238C522.634 62.0682 534.571 30.5362 514.596 20.4614ZM239.957 200.313C243.619 196.895 246.713 195.022 249.269 194.543C250.513 194.31 251.619 194.408 252.632 194.812C253.653 195.219 254.668 195.974 255.661 197.188C256.963 198.78 257.96 200.424 258.945 202.052L259.047 202.22C261.165 205.725 263.349 209.338 268.503 210.131C270.345 210.415 271.994 210.362 273.52 210.312L273.566 210.311C275.718 210.241 277.713 210.183 280.226 210.884C282.749 211.589 285.892 213.092 290.178 216.306C298.929 222.871 309.133 220.423 315.538 218.887L315.695 218.849C317.192 218.49 318.44 218.192 319.468 218.035C320.552 217.869 321.1 217.913 321.33 217.999C321.827 218.185 322.36 218.668 322.959 219.633C323.553 220.59 324.082 221.801 324.686 223.195L324.708 223.246L324.708 223.246C325.334 224.688 326.034 226.304 326.92 227.72C327.818 229.159 328.987 230.528 330.62 231.344C332.086 232.077 334.362 232.631 336.904 232.949C339.484 233.271 342.475 233.368 345.441 233.11C348.398 232.853 351.398 232.237 353.957 231.092C356.515 229.948 358.746 228.219 359.941 225.68C362.125 221.037 361.813 217.195 361.622 214.847L361.621 214.83C361.576 214.277 361.544 213.873 361.542 213.548L361.587 213.557C361.635 213.566 361.688 213.577 361.745 213.589C362.232 213.698 362.894 214.143 363.78 215.163C364.637 216.152 365.512 217.447 366.501 218.916L366.537 218.969C367.766 220.794 369.153 222.854 370.745 224.524C372.353 226.21 374.321 227.663 376.752 228.011C377.828 228.164 378.762 228.271 379.552 228.362L379.557 228.362C380.701 228.493 381.449 228.581 381.975 228.709C382.153 228.752 382.266 228.792 382.334 228.82C382.336 228.907 382.328 229.059 382.286 229.303C382.183 229.901 381.931 230.752 381.508 232.024C380.471 235.132 379.323 240.747 379.259 245.51C379.227 247.865 379.455 250.21 380.234 251.956C380.632 252.849 381.217 253.682 382.081 254.238C382.973 254.811 384.017 254.995 385.133 254.823C387.169 254.51 388.662 253.965 389.813 253.544L389.83 253.538C391.301 253.001 391.901 252.827 392.565 252.982C393.267 253.147 394.315 253.768 396.221 255.847C398.032 257.824 400.391 258.698 402.749 259.073C405.057 259.44 407.51 259.348 409.643 259.268H409.643L409.712 259.266C411.522 259.198 413.058 259.145 414.306 259.303C415.567 259.463 416.18 259.801 416.483 260.204C417.079 260.999 417.854 262.613 418.923 264.867L418.952 264.927C420.585 268.369 422.754 272.94 425.594 276.603C428.432 280.266 432.21 283.367 437.105 283.144C438.306 283.09 439.482 283.023 440.618 282.959L440.622 282.959C445.346 282.692 449.231 282.485 452.115 283.145C453.517 283.465 454.565 283.969 455.323 284.681C456.067 285.379 456.638 286.378 456.922 287.889C457.561 291.296 457.728 295.813 457.321 299.881C457.07 302.387 456.608 304.642 455.951 306.328C455.26 308.102 454.509 308.855 453.943 309.044C451.687 309.796 444.365 312.319 437.585 316.312C434.196 318.308 430.872 320.711 428.378 323.501C425.884 326.292 424.129 329.579 424.129 333.3C424.129 339.773 423.603 341.68 422.542 343.176C422.067 343.846 421.481 344.444 420.639 345.303L420.639 345.303L420.638 345.304C420.423 345.524 420.191 345.761 419.94 346.021C418.745 347.255 417.271 348.859 415.482 351.286C413.58 353.868 412.91 356.182 413.006 358.327C413.098 360.412 413.915 362.164 414.599 363.563L414.708 363.786C415.389 365.178 415.84 366.099 415.893 366.992C415.935 367.715 415.712 368.632 414.223 369.909C409.394 374.048 396.616 382.883 388.704 388.219C388.959 386.314 389.099 384.316 389.07 382.354C389.022 379.162 388.524 375.938 387.232 373.353C386.125 371.14 384.699 369.832 382.852 369.608C381.18 369.404 379.585 370.175 378.355 370.852C377.934 371.083 377.544 371.31 377.174 371.525L377.173 371.525C376.314 372.025 375.558 372.464 374.76 372.766C373.72 373.159 372.97 373.163 372.268 372.742C371.08 372.029 369.975 371.253 368.844 370.458L368.8 370.427C367.698 369.651 366.564 368.853 365.374 368.146C362.926 366.69 360.18 365.578 356.607 365.578C355.102 365.578 354.08 365.403 353.304 365.118C352.547 364.84 351.941 364.427 351.307 363.819C350.707 363.244 350.124 362.54 349.36 361.617L349.36 361.616L349.096 361.298C348.218 360.239 347.159 358.987 345.745 357.572C342.653 354.48 339.134 353.681 335.476 353.296C334.51 353.194 333.545 353.12 332.57 353.045L332.569 353.045H332.568C329.79 352.833 326.93 352.614 323.741 351.728C321.968 351.235 321.027 350.239 320.52 348.925C319.975 347.515 319.899 345.646 320.166 343.476C320.431 341.33 321.01 339.046 321.632 336.886C321.861 336.09 322.102 335.293 322.334 334.528L322.334 334.527C322.711 333.281 323.063 332.118 323.298 331.178C323.748 329.377 323.536 327.74 322.609 326.485C321.699 325.255 320.289 324.647 318.853 324.487C316.017 324.17 312.552 325.509 310.27 328.325C308.746 330.206 305.779 331.106 301.367 330.94C297.243 330.785 292.235 329.71 286.887 328.096C286.483 326.566 285.661 324.977 284.641 323.354C283.395 321.369 281.749 319.174 279.936 316.786C279.754 316.546 279.57 316.304 279.383 316.059L279.369 316.04C275.833 311.389 271.663 305.903 268.05 299.313C263.802 291.566 260.27 288.491 256.666 287.942C254.898 287.673 253.3 288.051 251.918 288.482C251.458 288.625 251.036 288.768 250.636 288.903L250.636 288.904C249.749 289.204 248.967 289.469 248.107 289.625C245.543 290.092 239.815 290.554 234 287.762C228.262 285.007 222.18 278.96 219.04 265.913C217.153 258.076 214.466 251.991 211.489 247.224C219.169 244.661 226.63 240.749 232.072 236.25C235.015 233.818 237.428 231.164 238.944 228.401C240.466 225.625 241.121 222.662 240.386 219.719C239.725 217.077 238.896 214.848 238.184 212.933L238.176 212.912C237.115 210.061 236.415 208.109 236.504 206.26C236.586 204.56 237.367 202.731 239.957 200.313ZM386.638 391.4L386.638 391.401L387.463 392.64L387.807 392.411L387.959 392.309C387.533 394.129 387.015 395.766 386.461 397.052C386.156 397.76 385.822 398.403 385.463 398.92C385.395 399.016 385.321 399.117 385.24 399.219C385.082 398.894 384.926 398.563 384.773 398.228L383.504 398.81C383.475 398.825 383.447 398.838 383.419 398.849L383.422 398.855C383.63 399.31 383.843 399.757 384.059 400.195C384.556 399.972 384.945 399.59 385.24 399.219C390.571 410.209 398.387 415.987 402.713 417.285C405.624 418.159 407.099 419.803 408.279 421.245L408.393 421.384L408.501 421.517C409.555 422.811 410.302 423.728 411.745 424.269C412.056 424.386 412.239 424.418 412.329 424.425C412.307 424.455 412.295 424.467 412.293 424.469C412.297 424.466 412.302 424.462 412.307 424.459C412.311 424.457 412.315 424.454 412.32 424.452C412.323 424.45 412.327 424.448 412.33 424.446C412.34 424.442 412.351 424.437 412.363 424.433C412.379 424.428 412.39 424.426 412.39 424.426L412.385 424.427L412.376 424.427C412.365 424.427 412.349 424.427 412.329 424.425C412.377 424.359 412.477 424.202 412.638 423.853C412.667 423.791 412.697 423.722 412.73 423.648C412.758 423.586 412.787 423.52 412.817 423.45C413.002 423.029 413.242 422.483 413.525 421.958C414.367 420.393 415.75 418.648 418.542 417.359C422.029 415.749 427.72 414.742 433.282 414.616C438.802 414.49 444.634 415.22 448.246 417.443C450.397 418.767 451.573 420.274 452.331 421.245C452.559 421.536 452.749 421.779 452.916 421.955C453.269 422.325 453.61 422.564 454.204 422.705C454.871 422.863 455.921 422.912 457.707 422.69C459.446 422.473 461.782 422.014 464.988 421.237C481.292 417.284 489.792 412.42 493.936 406.894C495.224 405.176 497.374 403.536 499.759 402.041C502.177 400.524 504.979 399.069 507.699 397.756C510.009 396.64 512.287 395.614 514.241 394.734L514.806 394.48L515.25 394.279C517.477 393.273 519.006 392.558 519.622 392.147C521.435 390.938 524.093 388.313 525.815 386.491C526.066 386.663 526.267 386.806 526.424 386.926C526.612 387.069 526.702 387.15 526.735 387.179L526.746 387.189C526.748 387.191 526.749 387.192 526.749 387.191L526.739 387.178L526.728 387.163L526.718 387.148C526.693 387.114 526.622 387.011 526.566 386.853C526.513 386.705 526.42 386.36 526.555 385.942C526.617 385.752 526.709 385.593 526.817 385.464C526.833 385.444 526.849 385.425 526.866 385.407L526.835 385.386L526.788 385.438C526.521 385.736 526.19 386.094 525.815 386.491C525.09 385.997 523.942 385.273 522.18 384.245C520.37 383.189 519.171 381.287 518.343 379.098C517.507 376.886 516.976 374.183 516.63 371.249C515.941 365.4 515.958 358.318 515.975 351.743L515.975 351.682C515.977 350.674 515.98 349.677 515.98 348.695C515.98 347.036 515.987 345.497 515.993 344.078H517.483L515.993 344.071V344.07V344.064V344.057C516.018 338.732 516.028 335.252 515.684 333.244C515.567 332.561 515.434 332.226 515.359 332.078C515.405 332.064 515.437 332.058 515.458 332.055C515.477 332.057 515.489 332.054 515.489 332.054C515.489 332.054 515.486 332.053 515.48 332.053C515.475 332.053 515.468 332.053 515.458 332.055C515.453 332.054 515.447 332.053 515.442 332.052C515.432 332.05 515.422 332.047 515.41 332.043C515.379 332.032 515.341 332.012 515.3 331.977L515.299 331.977C515.299 331.977 515.299 331.977 515.3 331.978L515.302 331.981L515.302 331.981C515.309 331.992 515.329 332.021 515.359 332.078C515.338 332.084 515.315 332.091 515.289 332.101C515.267 332.108 515.243 332.117 515.217 332.128C515.182 332.142 515.142 332.158 515.098 332.178C511.114 333.959 504.134 334.793 494.332 328.601C490.59 326.238 487.976 323.575 485.701 321.258L485.672 321.228C481.954 317.442 479.216 314.705 473.704 314.429C468.912 314.189 465.831 313.606 463.496 311.52C462.352 310.499 461.468 309.19 460.626 307.606C460.259 306.915 459.89 306.151 459.505 305.314L459.428 305.212C459.226 305.992 458.994 306.731 458.729 307.411C457.971 309.357 456.786 311.238 454.887 311.871C452.675 312.609 445.598 315.052 439.098 318.88C435.846 320.795 432.809 323.016 430.602 325.487C428.395 327.957 427.109 330.566 427.109 333.301C427.109 339.739 426.642 342.549 424.973 344.901C424.348 345.782 423.553 346.592 422.689 347.472L422.688 347.473C422.489 347.676 422.287 347.882 422.082 348.094C420.949 349.264 419.569 350.765 417.882 353.054C416.309 355.19 415.924 356.849 415.984 358.195C416.046 359.602 416.595 360.86 417.277 362.255C417.334 362.373 417.394 362.493 417.455 362.617C418.054 363.827 418.778 365.291 418.868 366.817C418.981 368.717 418.149 370.47 416.163 372.172C410.645 376.902 395.345 387.375 387.959 392.309C388.005 392.114 388.049 391.917 388.093 391.718L386.638 391.4ZM312.586 330.203C314.276 328.118 316.769 327.254 318.525 327.45C319.386 327.546 319.93 327.873 320.215 328.259C320.482 328.62 320.705 329.28 320.41 330.458C320.19 331.34 319.877 332.37 319.521 333.546L319.521 333.547L319.52 333.549C319.285 334.324 319.031 335.162 318.772 336.063C318.137 338.264 317.506 340.728 317.212 343.113C316.921 345.474 316.938 347.919 317.743 350.001C318.585 352.179 320.251 353.852 322.946 354.6C326.442 355.572 329.715 355.821 332.554 356.037C333.473 356.107 334.346 356.174 335.166 356.26C338.583 356.62 341.27 357.31 343.64 359.681C344.956 360.997 345.945 362.165 346.805 363.202L346.974 363.406L347.078 363.531C347.816 364.424 348.516 365.27 349.248 365.972C350.104 366.793 351.05 367.465 352.279 367.917C353.489 368.361 354.887 368.559 356.609 368.559C359.49 368.559 361.709 369.433 363.853 370.708C364.944 371.357 365.998 372.099 367.132 372.896C368.251 373.684 369.442 374.522 370.737 375.299C372.518 376.367 374.311 376.123 375.816 375.554C376.86 375.16 377.95 374.526 378.888 373.981L378.888 373.981L378.889 373.981L378.889 373.98C379.211 373.794 379.515 373.617 379.792 373.464C381.045 372.776 381.87 372.491 382.494 372.567C382.943 372.622 383.689 372.928 384.569 374.687C385.58 376.709 386.049 379.428 386.093 382.4C386.137 385.35 385.761 388.429 385.182 391.084C384.762 393.011 384.243 394.672 383.726 395.873C383.465 396.477 383.223 396.924 383.017 397.22C382.898 397.391 382.821 397.469 382.793 397.496C382.6 397.572 382.331 397.672 382 397.796L381.728 397.897C379.833 398.601 376.295 399.915 372.729 401.6C370.457 402.673 368.114 403.922 366.1 405.303C364.112 406.665 362.315 408.244 361.28 410.017C360.3 411.698 359.7 413.637 359.245 415.617C358.943 416.935 358.688 418.35 358.435 419.756L358.435 419.757L358.435 419.758L358.433 419.766C358.311 420.445 358.189 421.122 358.063 421.785C357.261 425.982 356.196 429.982 353.492 433.138C350.223 436.952 348.917 441.919 348.851 446.625C348.786 451.324 349.953 455.943 351.847 459.19C353.644 462.271 355.621 464.404 358.075 465.195C360.59 466.007 363.168 465.278 365.815 463.689C367.025 462.964 367.79 462.652 368.272 462.569C368.625 462.508 368.695 462.579 368.768 462.652L368.774 462.658C368.971 462.855 369.242 463.318 369.564 464.331C369.876 465.308 370.172 466.576 370.548 468.209C371.294 471.441 372.219 475.862 371.581 480.205C370.995 484.195 369.092 488.136 364.307 491.005C363.848 490.535 363.422 490.078 363.003 489.628L363.002 489.627C362.691 489.294 362.385 488.964 362.07 488.636C361.148 487.673 360.166 486.731 359.025 486.099C357.827 485.434 356.491 485.129 354.921 485.357C353.407 485.578 351.758 486.282 349.862 487.467C346.015 489.872 342.886 491.124 339.217 491.468C335.493 491.818 331.092 491.244 324.672 489.762C318.543 488.347 315.409 485.904 312.789 483.581C312.509 483.333 312.231 483.082 311.953 482.83C309.619 480.72 307.249 478.579 303.263 477.831C300.795 477.368 298.848 478.081 297.381 479.508C296.006 480.845 295.122 482.74 294.454 484.553C294.114 485.478 293.813 486.43 293.532 487.336L293.399 487.766C293.165 488.525 292.944 489.242 292.713 489.916C292.135 491.602 291.618 492.615 291.097 493.062C290.487 493.585 290.112 493.628 289.762 493.57C289.259 493.485 288.558 493.134 287.43 492.308C286.78 491.833 286.007 491.209 285.099 490.477L285.099 490.477C283.316 489.039 281.018 487.186 278.138 485.229C280.562 480.275 282.661 477.407 285.053 475.493C288.036 473.106 289.122 469.435 288.642 465.461C288.165 461.511 286.149 457.158 282.796 453.031C280.445 450.137 279.615 447.812 278.832 445.623C278.602 444.977 278.375 444.343 278.115 443.709C277.54 442.31 276.798 440.952 275.451 439.726C274.436 438.804 273.135 438.008 271.42 437.301C274.533 432.034 278.808 424.682 282.518 418.05C284.561 414.399 286.439 410.955 287.858 408.193C288.567 406.814 289.169 405.592 289.621 404.594C290.055 403.634 290.404 402.769 290.541 402.153C290.888 400.591 290.474 398.663 289.718 396.769C288.939 394.817 287.703 392.67 286.119 390.567C282.959 386.375 278.28 382.19 272.737 380.078C267.819 378.204 266.099 375.986 265.352 373.944C264.955 372.859 264.797 371.728 264.683 370.508C264.662 370.278 264.642 370.041 264.622 369.798C264.539 368.814 264.448 367.739 264.228 366.746L264.152 366.407L264.152 366.406C263.944 365.463 263.76 364.633 263.546 363.935C263.299 363.13 262.982 362.39 262.449 361.721C261.434 360.445 259.832 359.706 257.492 358.782C257.341 358.674 257.238 358.529 257.194 358.339C257.141 358.109 257.13 357.61 257.584 356.759C258.525 354.995 261.203 352.23 267.506 348.487C268.068 348.153 268.613 347.83 269.142 347.516L269.152 347.51L269.153 347.51C276.031 343.428 280.189 340.961 282.718 338.853C284.12 337.684 285.104 336.563 285.794 335.267C286.451 334.033 286.793 332.729 287.049 331.253C292.141 332.737 297.05 333.761 301.257 333.919C305.906 334.094 310.138 333.224 312.586 330.203ZM161.082 359.512C161.708 359.329 162.327 359.105 162.936 358.85C165.597 357.733 168.2 355.958 170.588 354.129C171.788 353.21 172.953 352.262 174.055 351.36L174.377 351.097L174.377 351.096L174.378 351.095C175.366 350.287 176.296 349.525 177.175 348.843C178.15 348.085 179.027 347.453 179.804 346.987C180.599 346.51 181.194 346.265 181.616 346.189C182.193 346.084 182.886 346.294 183.996 347.533C184.987 348.639 186.017 350.232 187.314 352.237L187.321 352.249L187.325 352.255L187.376 352.333C187.513 352.545 187.653 352.761 187.796 352.982C190.788 357.596 194.898 363.658 201.873 368.308C204.904 370.33 209.119 371.134 213.738 371.234C218.395 371.334 223.663 370.72 228.964 369.725C239.291 367.786 249.934 364.363 256.808 361.717C258.945 362.581 259.697 363.048 260.119 363.577C260.331 363.844 260.51 364.196 260.697 364.808C260.874 365.385 261.031 366.091 261.248 367.073L261.319 367.392C261.492 368.17 261.561 368.984 261.643 369.94L261.643 369.944L261.643 369.948C261.666 370.215 261.69 370.493 261.717 370.784C261.836 372.062 262.02 373.507 262.553 374.967C263.668 378.015 266.168 380.763 271.676 382.862C276.559 384.722 280.817 388.483 283.739 392.36C285.195 394.292 286.287 396.21 286.951 397.874C287.638 399.595 287.782 400.833 287.633 401.506C287.571 401.784 287.347 402.391 286.906 403.364C286.483 404.299 285.907 405.472 285.208 406.831C283.812 409.546 281.954 412.955 279.918 416.595C276.104 423.411 271.687 430.999 268.562 436.28C246.626 428.855 233.031 425.674 224.666 424.987C220.42 424.639 217.372 424.918 215.225 425.721C212.991 426.556 211.722 427.971 211.202 429.706C210.968 430.486 210.488 430.99 209.732 431.349C208.918 431.736 207.8 431.939 206.421 431.998C205.057 432.056 203.565 431.969 202.053 431.861C201.889 431.849 201.725 431.837 201.56 431.825L201.379 431.811C200.118 431.718 198.845 431.624 197.734 431.624C196.246 431.624 194.804 432.404 193.57 433.338C192.294 434.302 191.02 435.601 189.837 436.988C188.359 438.719 186.963 440.656 185.812 442.404C183.941 436.925 181.088 432.99 176.602 429.46C171.625 425.544 164.632 422.128 154.905 417.526C156.311 414.641 157.021 412.215 157.121 409.798C157.235 407.017 156.532 404.405 155.448 401.333C154.401 398.365 154.605 396.209 155.333 394.409C156.098 392.518 157.474 390.912 159.068 389.077L159.092 389.05C159.966 388.043 160.902 386.965 161.718 385.8C162.764 384.305 163.435 382.232 163.847 380.028C164.264 377.795 164.439 375.289 164.407 372.822C164.375 370.355 164.135 367.888 163.704 365.729C163.279 363.606 162.643 361.642 161.737 360.284C161.552 360.005 161.33 359.749 161.082 359.512ZM153.506 420.159C152.092 422.641 150.219 425.516 147.822 428.992C145.191 432.809 142.189 435.08 139.046 436.186C135.912 437.288 132.768 437.187 129.917 436.483C124.974 435.261 120.737 432.187 118.495 429.993C118.456 430.5 118.426 431.08 118.394 431.726L118.39 431.792C118.302 433.543 118.191 435.739 117.745 437.641C117.314 439.482 116.442 441.616 114.381 442.441C112.323 443.264 110.032 442.759 108.283 442.374L108.093 442.332C106.014 441.877 104.578 441.617 103.428 442.112C102.437 442.54 101.197 443.79 100.394 447.805C99.9586 449.984 99.1668 451.865 98.1171 453.449C111.889 460.599 115.318 466.671 115.318 471.845V471.854L115.306 472.897L115.306 472.906C115.269 475.104 115.278 476.906 116.237 478.433C117.152 479.888 119.172 481.415 124.024 482.298C127.25 482.884 129.622 484.837 131.282 487.439C132.923 490.012 133.901 493.261 134.415 496.636C135.442 503.376 134.681 511.055 133.122 515.993C131.699 520.5 130.854 527.956 131.99 534.533C133.135 541.162 136.143 546.283 141.902 547.35C146.23 548.152 150.204 548.086 153.74 547.356C160.72 545.915 166.064 541.875 169.143 536.638C171.026 533.438 171.515 531.01 171.915 529.031C172.011 528.552 172.102 528.1 172.207 527.67C172.471 526.58 172.882 525.367 174.011 524.534C175.093 523.734 176.557 523.489 178.371 523.489C179.488 523.489 181.138 523.094 183.189 522.339C185.204 521.598 187.472 520.561 189.774 519.394C193.878 517.312 198.014 514.854 200.89 513.021C200.07 510.749 199.308 508.472 198.577 506.282L198.544 506.184C197.701 503.659 196.899 501.258 196.08 499.074C195.25 496.859 194.42 494.914 193.54 493.329C192.652 491.731 191.767 490.598 190.871 489.912C181.884 483.039 175.387 465.126 183.751 445.894C182.078 439.519 179.409 435.459 174.76 431.8C170.071 428.111 163.378 424.83 153.506 420.159ZM117.407 428.864C117.401 428.86 117.4 428.859 117.406 428.863L117.407 428.864ZM187.162 447.34C189.56 443.181 195.314 434.864 199.15 434.864C200.165 434.864 201.331 434.95 202.552 435.04C207.097 435.375 212.402 435.767 213.535 431.984C214.974 427.186 224.564 424.786 268.201 439.662C274.037 441.591 274.901 444.016 276.088 447.35C276.851 449.493 277.749 452.013 280.189 455.018C286.422 462.696 287.381 470.854 282.586 474.693C279.846 476.887 277.575 480.178 274.969 485.73C273.015 489.894 270.872 495.329 268.201 502.526C264.044 513.724 260.314 517.67 254.31 520.193C254.305 520.195 254.3 520.197 254.295 520.2C251.86 521.222 249.051 522.011 245.688 522.956C244.911 523.174 244.104 523.401 243.266 523.64C237.773 525.211 235.33 528.066 233.277 530.465C230.312 533.931 228.161 536.444 218.81 532.758C211.452 529.857 207.204 521.456 203.945 512.67C202.994 510.106 202.127 507.509 201.292 505.007C198.835 497.645 196.65 491.1 193.396 488.609C185.244 482.371 179.01 465.576 187.162 447.34ZM162.47 569.848C161.904 570.076 161.285 570.494 160.558 571.221C159.84 571.939 159.233 572.894 158.567 573.957L158.545 573.992C158.162 574.604 157.746 575.266 157.307 575.832C156.868 576.398 156.302 577.007 155.566 577.379C154.752 577.791 153.834 577.861 152.891 577.497C152.027 577.164 151.226 576.502 150.448 575.626C149.68 574.762 149.076 574.61 148.622 574.641C148.077 574.678 147.36 575.005 146.48 575.802C144.715 577.402 142.955 580.286 141.474 583.248C140.244 585.709 138.627 587.533 137.327 589L137.294 589.038C136.197 590.275 135.439 591.15 135.036 592.006C134.694 592.732 134.619 593.424 135.049 594.391C135.575 595.574 135.929 596.715 135.906 597.775C135.881 598.942 135.399 599.925 134.478 600.641C133.648 601.288 132.539 601.655 131.335 601.902C130.104 602.155 128.598 602.316 126.843 602.441C125.267 602.554 124.282 602.91 123.673 603.33C123.099 603.726 122.765 604.242 122.597 604.917C122.221 606.419 122.674 608.635 123.669 611.371C124.673 614.132 125.761 617.853 125.555 621.22C125.451 622.927 125.008 624.637 123.967 626.087C122.911 627.558 121.327 628.636 119.177 629.21C117.321 629.705 116.391 630.356 115.796 631.056C115.151 631.815 114.776 632.757 114.23 634.19L114.228 634.194C113.362 636.469 112.243 639.408 108.924 642.728C107.892 643.76 106.894 644.737 105.935 645.674L105.934 645.676L105.932 645.678L105.931 645.679L105.93 645.679C100.376 651.114 96.1911 655.23 93.3607 662.105C89.9605 670.364 83.4 675.917 75.0168 678.352C77.338 682.05 78.8868 685.738 79.8114 689.258C79.8659 690.097 79.9807 691.12 80.1689 692.238C80.9345 696.784 82.9157 702.896 87 704.501C90.9365 706.048 93.4831 705.106 96.6721 703.926C98.636 703.199 100.843 702.382 103.769 702.001C106.629 701.629 109.776 701.672 113.123 701.719C118.763 701.797 124.972 701.884 131.335 700.001C138.842 697.78 148.937 699.67 161.481 702.019C165.88 702.842 170.58 703.722 175.575 704.501C188.539 706.522 191.484 705.139 195.816 703.103C197.913 702.118 200.335 700.98 204.377 700.001C208.079 699.105 212.586 698.701 217.043 698.301C225.839 697.513 234.437 696.742 236.247 692.238C236.589 691.387 236.689 690.402 236.501 689.258C235.482 685.774 234.42 683.541 233.519 682.171C232.993 681.371 232.544 680.897 232.22 680.636C232.016 680.471 231.896 680.417 231.862 680.403L231.411 680.382L231.022 680.049C227.761 677.253 224.607 674.73 221.713 672.415L221.609 672.332C217.018 668.659 212.999 665.444 210.427 662.564C207.897 659.73 206.229 656.608 207.821 653.423C208.974 651.117 210.465 649.558 211.67 648.299L211.703 648.265C212.86 647.055 213.612 646.239 213.992 645.264C214.332 644.389 214.429 643.2 213.708 641.182C213.295 640.026 212.53 638.748 211.453 637.366C209.238 634.52 205.924 631.5 202.431 628.483C201.63 627.792 200.819 627.1 200.012 626.412L200.006 626.407C197.348 624.141 194.738 621.915 192.709 619.885C189.008 616.183 188.92 612.133 189.11 608.269C189.129 607.865 189.152 607.463 189.174 607.063C189.369 603.594 189.557 600.249 187.933 596.594C186.006 592.258 182.472 586.519 178.788 581.544C176.95 579.063 175.096 576.8 173.41 575.016C171.69 573.195 170.257 571.996 169.265 571.5C167.033 570.383 165.509 569.782 164.294 569.638C163.594 569.555 163.018 569.628 162.47 569.848Z" fill="url(#paint1_linear_333_64961)"/>
</g>
<g opacity="0.4" filter="url(#filter2_f_333_64961)">
<path opacity="0.8" d="M322.543 403.478L324.407 395.398C331.999 362.501 351.767 333.699 379.736 314.787V314.787" stroke="#EFFBFF" stroke-width="3.31553"/>
<path d="M322.543 403.478L320.551 401.698C293.989 377.956 254.932 374.627 224.734 393.531V393.531" stroke="#EFFBFF" stroke-width="3.31553"/>
<path d="M322.543 403.479H287.746C234.053 403.479 182.749 425.678 145.991 464.816V464.816" stroke="#EFFBFF" stroke-width="3.31553"/>
<path opacity="0.8" d="M322.543 403.479V403.479C279.798 419.213 246.403 453.348 231.611 496.428L231.366 497.142" stroke="#EFFBFF" stroke-width="3.31553"/>
<path d="M322.543 403.479L319.779 404.154C233.704 425.184 169.721 497.431 159.253 585.418V585.418" stroke="#EFFBFF" stroke-width="3.31553"/>
<path d="M322.543 403.479L332.408 397.052C372.36 371.026 421.356 362.841 467.597 374.468V374.468" stroke="#EFFBFF" stroke-width="3.31553"/>
<path d="M492.464 176.365L487.102 185.389C453.17 242.5 446.039 311.633 467.597 374.468V374.468" stroke="#EFFBFF" stroke-width="3.31553"/>
<path d="M492.464 176.365V176.365C440.664 205.469 401.316 252.537 381.855 308.675L379.736 314.789" stroke="#EFFBFF" stroke-width="3.31553"/>
<path d="M492.464 176.365L452.428 188.425C349.712 219.366 266.199 294.595 224.734 393.533V393.533" stroke="#EFFBFF" stroke-width="3.31553"/>
<path d="M492.464 176.365V176.365C364.845 232.329 270.187 344.045 235.936 479.12L231.366 497.143" stroke="#EFFBFF" stroke-width="3.31553"/>
<path d="M492.464 176.365L479.905 177.875C277.786 202.173 134.08 386.361 159.667 588.32V588.32" stroke="#EFFBFF" stroke-width="3.31553"/>
<path d="M492.464 176.365L467.994 178.482C309.154 192.226 178.203 308.671 145.991 464.817V464.817" stroke="#EFFBFF" stroke-width="3.31553"/>
<circle cx="322.543" cy="403.479" r="17.4066" fill="#EFFBFF"/>
<circle cx="492.464" cy="177.193" r="19.0643" fill="#EFFBFF"/>
<circle cx="467.597" cy="374.468" r="12.4333" fill="#EFFBFF"/>
<circle cx="379.736" cy="314.789" r="12.4333" fill="#EFFBFF"/>
<circle cx="231.366" cy="497.142" r="12.4333" fill="#EFFBFF"/>
<circle cx="145.991" cy="464.815" r="13.2621" fill="#EFFBFF"/>
<circle cx="224.734" cy="393.532" r="13.2621" fill="#EFFBFF"/>
<circle cx="163.397" cy="589.976" r="12.4333" fill="#EFFBFF"/>
</g>
<path d="M319.227 400.163L321.092 392.084C328.683 359.186 348.452 330.385 376.42 311.473V311.473" stroke="url(#paint2_linear_333_64961)" stroke-width="1.65777"/>
<path d="M319.227 400.163L317.236 398.383C290.673 374.641 251.616 371.313 221.419 390.217V390.217" stroke="url(#paint3_linear_333_64961)" stroke-width="1.65777"/>
<path opacity="0.8" d="M319.227 400.162H284.43C230.737 400.162 179.433 422.361 142.675 461.499V461.499" stroke="url(#paint4_linear_333_64961)" stroke-width="1.65777"/>
<path d="M319.227 400.162V400.162C276.482 415.896 243.088 450.032 228.295 493.112L228.05 493.826" stroke="url(#paint5_linear_333_64961)" stroke-width="1.65777"/>
<path d="M319.227 400.162V400.162C232.109 421.447 168.388 496.095 161.042 585.474L160.91 587.075" stroke="url(#paint6_linear_333_64961)" stroke-width="1.65777"/>
<path opacity="0.8" d="M319.227 400.162L329.093 393.736C369.044 367.71 418.04 359.525 464.282 371.151V371.151" stroke="url(#paint7_linear_333_64961)" stroke-width="1.65777"/>
<path opacity="0.8" d="M489.148 173.049L483.787 182.073C449.855 239.183 442.723 308.317 464.282 371.152V371.152" stroke="url(#paint8_linear_333_64961)" stroke-width="1.65777" stroke-linecap="round"/>
<path opacity="0.8" d="M489.148 173.049V173.049C437.348 202.153 398.001 249.22 378.539 305.359L376.42 311.472" stroke="url(#paint9_linear_333_64961)" stroke-width="1.65777" stroke-linecap="round"/>
<path opacity="0.8" d="M489.148 173.049L449.112 185.109C346.396 216.05 262.883 291.279 221.419 390.216V390.216" stroke="url(#paint10_linear_333_64961)" stroke-width="1.65777" stroke-linecap="round"/>
<path opacity="0.8" d="M489.148 173.049V173.049C361.53 229.013 266.871 340.729 232.62 475.804L228.05 493.827" stroke="url(#paint11_linear_333_64961)" stroke-width="1.65777" stroke-linecap="round"/>
<path opacity="0.8" d="M489.148 173.049L478.816 174.291C276.171 198.653 132.906 384.487 160.91 586.662V586.662" stroke="url(#paint12_linear_333_64961)" stroke-width="1.65777" stroke-linecap="round"/>
<path opacity="0.8" d="M489.148 173.049L464.679 175.166C305.838 188.91 174.888 305.354 142.675 461.5V461.5" stroke="url(#paint13_linear_333_64961)" stroke-width="1.65777" stroke-linecap="round"/>
<circle cx="319.227" cy="400.163" r="11.6044" fill="white"/>
<circle cx="489.148" cy="173.878" r="11.6044" fill="white"/>
<circle cx="464.282" cy="371.153" r="6.63107" fill="white"/>
<circle cx="376.42" cy="311.473" r="6.63107" fill="white"/>
<circle cx="228.05" cy="493.826" r="6.63107" fill="white"/>
<circle cx="142.675" cy="461.5" r="6.63107" fill="white"/>
<circle cx="221.419" cy="390.217" r="6.63107" fill="white"/>
<circle cx="160.91" cy="586.662" r="6.63107" fill="white"/>
<defs>
<filter id="filter0_d_333_64961" x="0.000976562" y="222.117" width="759.683" height="531.135" filterUnits="userSpaceOnUse" color-interpolation-filters="sRGB">
<feFlood flood-opacity="0" result="BackgroundImageFix"/>
<feColorMatrix in="SourceAlpha" type="matrix" values="0 0 0 0 0 0 0 0 0 0 0 0 0 0 0 0 0 0 127 0" result="hardAlpha"/>
<feOffset dx="20" dy="24"/>
<feGaussianBlur stdDeviation="20"/>
<feComposite in2="hardAlpha" operator="out"/>
<feColorMatrix type="matrix" values="0 0 0 0 0.2125 0 0 0 0 0.5275 0 0 0 0 1 0 0 0 0.24 0"/>
<feBlend mode="normal" in2="BackgroundImageFix" result="effect1_dropShadow_333_64961"/>
<feBlend mode="normal" in="SourceGraphic" in2="effect1_dropShadow_333_64961" result="shape"/>
</filter>
<filter id="filter1_di_333_64961" x="35.0168" y="-33.459" width="674.042" height="822.949" filterUnits="userSpaceOnUse" color-interpolation-filters="sRGB">
<feFlood flood-opacity="0" result="BackgroundImageFix"/>
<feColorMatrix in="SourceAlpha" type="matrix" values="0 0 0 0 0 0 0 0 0 0 0 0 0 0 0 0 0 0 127 0" result="hardAlpha"/>
<feOffset dx="20" dy="24"/>
<feGaussianBlur stdDeviation="30"/>
<feComposite in2="hardAlpha" operator="out"/>
<feColorMatrix type="matrix" values="0 0 0 0 0 0 0 0 0 0.106599 0 0 0 0 1 0 0 0 0.24 0"/>
<feBlend mode="normal" in2="BackgroundImageFix" result="effect1_dropShadow_333_64961"/>
<feBlend mode="normal" in="SourceGraphic" in2="effect1_dropShadow_333_64961" result="shape"/>
<feColorMatrix in="SourceAlpha" type="matrix" values="0 0 0 0 0 0 0 0 0 0 0 0 0 0 0 0 0 0 127 0" result="hardAlpha"/>
<feOffset dy="-16"/>
<feGaussianBlur stdDeviation="40"/>
<feComposite in2="hardAlpha" operator="arithmetic" k2="-1" k3="1"/>
<feColorMatrix type="matrix" values="0 0 0 0 0.202667 0 0 0 0 0.133333 0 0 0 0 1 0 0 0 0.23 0"/>
<feBlend mode="normal" in2="shape" result="effect2_innerShadow_333_64961"/>
</filter>
<filter id="filter2_f_333_64961" x="52.7284" y="78.1289" width="538.8" height="604.281" filterUnits="userSpaceOnUse" color-interpolation-filters="sRGB">
<feFlood flood-opacity="0" result="BackgroundImageFix"/>
<feBlend mode="normal" in="SourceGraphic" in2="BackgroundImageFix" result="shape"/>
<feGaussianBlur stdDeviation="40" result="effect1_foregroundBlur_333_64961"/>
</filter>
<linearGradient id="paint0_linear_333_64961" x1="19.599" y1="238.117" x2="277.309" y2="863.228" gradientUnits="userSpaceOnUse">
<stop stop-color="#4EB6FF"/>
<stop offset="1" stop-color="#86DAFF"/>
</linearGradient>
<linearGradient id="paint1_linear_333_64961" x1="629.063" y1="706.046" x2="-49.5938" y2="552.037" gradientUnits="userSpaceOnUse">
<stop stop-color="#48A0FF"/>
<stop offset="1" stop-color="#000FFD"/>
</linearGradient>
<linearGradient id="paint2_linear_333_64961" x1="376.42" y1="311.473" x2="319.227" y2="400.163" gradientUnits="userSpaceOnUse">
<stop stop-color="white"/>
<stop offset="0.546612" stop-color="white" stop-opacity="0.672033"/>
<stop offset="1" stop-color="white" stop-opacity="0.4"/>
</linearGradient>
<linearGradient id="paint3_linear_333_64961" x1="221.419" y1="390.217" x2="319.227" y2="400.163" gradientUnits="userSpaceOnUse">
<stop stop-color="white"/>
<stop offset="1" stop-color="white" stop-opacity="0.4"/>
</linearGradient>
<linearGradient id="paint4_linear_333_64961" x1="142.675" y1="461.499" x2="319.227" y2="400.162" gradientUnits="userSpaceOnUse">
<stop stop-color="white"/>
<stop offset="1" stop-color="white" stop-opacity="0.4"/>
</linearGradient>
<linearGradient id="paint5_linear_333_64961" x1="228.05" y1="493.826" x2="319.227" y2="400.162" gradientUnits="userSpaceOnUse">
<stop stop-color="white"/>
<stop offset="1" stop-color="white" stop-opacity="0.4"/>
</linearGradient>
<linearGradient id="paint6_linear_333_64961" x1="160.91" y1="604.896" x2="319.227" y2="400.162" gradientUnits="userSpaceOnUse">
<stop stop-color="white"/>
<stop offset="1" stop-color="white" stop-opacity="0.4"/>
</linearGradient>
<linearGradient id="paint7_linear_333_64961" x1="464.282" y1="371.151" x2="319.227" y2="400.162" gradientUnits="userSpaceOnUse">
<stop stop-color="white"/>
<stop offset="1" stop-color="white" stop-opacity="0.4"/>
</linearGradient>
<linearGradient id="paint8_linear_333_64961" x1="464.282" y1="371.152" x2="489.148" y2="173.049" gradientUnits="userSpaceOnUse">
<stop stop-color="white"/>
<stop offset="1" stop-color="white" stop-opacity="0.4"/>
</linearGradient>
<linearGradient id="paint9_linear_333_64961" x1="376.42" y1="311.472" x2="489.148" y2="173.049" gradientUnits="userSpaceOnUse">
<stop stop-color="white"/>
<stop offset="1" stop-color="white" stop-opacity="0.4"/>
</linearGradient>
<linearGradient id="paint10_linear_333_64961" x1="221.419" y1="390.216" x2="489.148" y2="173.049" gradientUnits="userSpaceOnUse">
<stop stop-color="white"/>
<stop offset="1" stop-color="white" stop-opacity="0.4"/>
</linearGradient>
<linearGradient id="paint11_linear_333_64961" x1="228.05" y1="493.827" x2="489.148" y2="173.049" gradientUnits="userSpaceOnUse">
<stop stop-color="white"/>
<stop offset="1" stop-color="white" stop-opacity="0.4"/>
</linearGradient>
<linearGradient id="paint12_linear_333_64961" x1="160.91" y1="604.897" x2="489.148" y2="173.049" gradientUnits="userSpaceOnUse">
<stop stop-color="white"/>
<stop offset="1" stop-color="white" stop-opacity="0.4"/>
</linearGradient>
<linearGradient id="paint13_linear_333_64961" x1="142.675" y1="461.5" x2="489.148" y2="173.049" gradientUnits="userSpaceOnUse">
<stop stop-color="white"/>
<stop offset="1" stop-color="white" stop-opacity="0.4"/>
</linearGradient>
</defs>
</svg>
