<svg width="1440" height="1482" viewBox="0 0 1440 1482" fill="none" xmlns="http://www.w3.org/2000/svg">
<mask id="mask0_272_17985" style="mask-type:alpha" maskUnits="userSpaceOnUse" x="0" y="0" width="1440" height="1482">
<path d="M0 343.5C123.5 468 503.181 464.965 735.5 295C966.5 126 1216 0 1440 0V431.31V852C1145 1007.5 994.5 1286 730 1409.5C457.418 1536.77 110 1474.5 0 1387.5V343.5Z" fill="url(#paint0_linear_272_17985)"/>
<path d="M0 343.5C123.5 468 503.181 464.965 735.5 295C966.5 126 1216 0 1440 0V431.31V852C1145 1007.5 994.5 1286 730 1409.5C457.418 1536.77 110 1474.5 0 1387.5V343.5Z" fill="url(#paint1_linear_272_17985)" fill-opacity="0.8"/>
</mask>
<g mask="url(#mask0_272_17985)">
<path d="M0 343.5C123.5 468 503.181 464.965 735.5 295C966.5 126 1216 0 1440 0V431.31V852C1145 1007.5 994.5 1286 730 1409.5C457.418 1536.77 110 1474.5 0 1387.5V343.5Z" fill="url(#paint2_linear_272_17985)"/>
<path d="M0 343.5C123.5 468 503.181 464.965 735.5 295C966.5 126 1216 0 1440 0V431.31V852C1145 1007.5 994.5 1286 730 1409.5C457.418 1536.77 110 1474.5 0 1387.5V343.5Z" fill="url(#paint3_linear_272_17985)" fill-opacity="0.8"/>
<g opacity="0.8" filter="url(#filter0_f_272_17985)">
<circle cx="1101" cy="331" r="406" fill="#00D1FF"/>
</g>
<g opacity="0.64" filter="url(#filter1_f_272_17985)">
<circle cx="1309" cy="1576" r="628" fill="#00D1FF"/>
</g>
</g>
<defs>
<filter id="filter0_f_272_17985" x="95" y="-675" width="2012" height="2012" filterUnits="userSpaceOnUse" color-interpolation-filters="sRGB">
<feFlood flood-opacity="0" result="BackgroundImageFix"/>
<feBlend mode="normal" in="SourceGraphic" in2="BackgroundImageFix" result="shape"/>
<feGaussianBlur stdDeviation="300" result="effect1_foregroundBlur_272_17985"/>
</filter>
<filter id="filter1_f_272_17985" x="81" y="348" width="2456" height="2456" filterUnits="userSpaceOnUse" color-interpolation-filters="sRGB">
<feFlood flood-opacity="0" result="BackgroundImageFix"/>
<feBlend mode="normal" in="SourceGraphic" in2="BackgroundImageFix" result="shape"/>
<feGaussianBlur stdDeviation="300" result="effect1_foregroundBlur_272_17985"/>
</filter>
<linearGradient id="paint0_linear_272_17985" x1="0.000938128" y1="-352.095" x2="1390.59" y2="560.224" gradientUnits="userSpaceOnUse">
<stop stop-color="#001AFF"/>
<stop offset="1" stop-color="#55CCFF"/>
</linearGradient>
<linearGradient id="paint1_linear_272_17985" x1="720.004" y1="-291.092" x2="106.876" y2="970.936" gradientUnits="userSpaceOnUse">
<stop stop-color="#1DD6FF" stop-opacity="0"/>
<stop offset="1" stop-color="#7100E1"/>
</linearGradient>
<linearGradient id="paint2_linear_272_17985" x1="0.00095168" y1="-352.107" x2="1390.59" y2="560.212" gradientUnits="userSpaceOnUse">
<stop stop-color="#001AFF"/>
<stop offset="1" stop-color="#55CCFF"/>
</linearGradient>
<linearGradient id="paint3_linear_272_17985" x1="720" y1="300.5" x2="104.466" y2="1534.12" gradientUnits="userSpaceOnUse">
<stop stop-color="#1DD6FF" stop-opacity="0"/>
<stop offset="1" stop-color="#7100E1"/>
</linearGradient>
</defs>
</svg>
